<mxfile host="app.diagrams.net" agent="Mozilla/5.0 (X11; Linux x86_64) AppleWebKit/537.36 (KHTML, like Gecko) Chrome/131.0.0.0 Safari/537.36" version="26.0.12">
  <diagram name="Page-1" id="Hk5yX9tPMimE9BQ545M5">
    <mxGraphModel dx="2284" dy="1784" grid="1" gridSize="10" guides="1" tooltips="1" connect="1" arrows="1" fold="1" page="1" pageScale="1" pageWidth="850" pageHeight="1100" math="0" shadow="0">
      <root>
        <mxCell id="0" />
        <mxCell id="1" parent="0" />
        <mxCell id="4weoMkwUrQ4pHuwGIA3--1" value="AWS Lambda" style="sketch=0;outlineConnect=0;fontColor=#232F3E;gradientColor=none;strokeColor=#ffffff;fillColor=#232F3E;dashed=0;verticalLabelPosition=middle;verticalAlign=bottom;align=center;html=1;whiteSpace=wrap;fontSize=10;fontStyle=1;spacing=3;shape=mxgraph.aws4.productIcon;prIcon=mxgraph.aws4.lambda;" parent="1" vertex="1">
          <mxGeometry x="400" y="147.9" width="80" height="102.1" as="geometry" />
        </mxCell>
        <mxCell id="4weoMkwUrQ4pHuwGIA3--2" value="" style="sketch=0;points=[[0,0,0],[0.25,0,0],[0.5,0,0],[0.75,0,0],[1,0,0],[0,1,0],[0.25,1,0],[0.5,1,0],[0.75,1,0],[1,1,0],[0,0.25,0],[0,0.5,0],[0,0.75,0],[1,0.25,0],[1,0.5,0],[1,0.75,0]];outlineConnect=0;fontColor=#232F3E;fillColor=#E7157B;strokeColor=#ffffff;dashed=0;verticalLabelPosition=bottom;verticalAlign=top;align=center;html=1;fontSize=12;fontStyle=0;aspect=fixed;shape=mxgraph.aws4.resourceIcon;resIcon=mxgraph.aws4.api_gateway;" parent="1" vertex="1">
          <mxGeometry x="200" y="158.9" width="78" height="78" as="geometry" />
        </mxCell>
        <mxCell id="4weoMkwUrQ4pHuwGIA3--4" value="" style="dashed=0;outlineConnect=0;html=1;align=center;labelPosition=center;verticalLabelPosition=bottom;verticalAlign=top;shape=mxgraph.weblogos.json" parent="1" vertex="1">
          <mxGeometry x="201" y="320" width="76" height="80" as="geometry" />
        </mxCell>
        <mxCell id="4weoMkwUrQ4pHuwGIA3--11" value="" style="endArrow=classic;html=1;rounded=0;entryX=0.5;entryY=1;entryDx=0;entryDy=0;entryPerimeter=0;flowAnimation=1;" parent="1" source="4weoMkwUrQ4pHuwGIA3--4" target="4weoMkwUrQ4pHuwGIA3--2" edge="1">
          <mxGeometry relative="1" as="geometry">
            <mxPoint x="370" y="350" as="sourcePoint" />
            <mxPoint x="470" y="350" as="targetPoint" />
          </mxGeometry>
        </mxCell>
        <mxCell id="4weoMkwUrQ4pHuwGIA3--12" value="Label" style="edgeLabel;resizable=0;html=1;;align=center;verticalAlign=middle;" parent="4weoMkwUrQ4pHuwGIA3--11" connectable="0" vertex="1">
          <mxGeometry relative="1" as="geometry" />
        </mxCell>
        <mxCell id="4weoMkwUrQ4pHuwGIA3--13" value="Prompts For storing Tickets" style="edgeLabel;html=1;align=center;verticalAlign=middle;resizable=0;points=[];" parent="4weoMkwUrQ4pHuwGIA3--11" vertex="1" connectable="0">
          <mxGeometry x="-0.0373" relative="1" as="geometry">
            <mxPoint as="offset" />
          </mxGeometry>
        </mxCell>
        <mxCell id="4weoMkwUrQ4pHuwGIA3--14" value="" style="endArrow=classic;html=1;rounded=0;entryX=0;entryY=0.321;entryDx=0;entryDy=0;entryPerimeter=0;flowAnimation=1;" parent="1" target="4weoMkwUrQ4pHuwGIA3--1" edge="1">
          <mxGeometry relative="1" as="geometry">
            <mxPoint x="280" y="180" as="sourcePoint" />
            <mxPoint x="500" y="350" as="targetPoint" />
          </mxGeometry>
        </mxCell>
        <mxCell id="4weoMkwUrQ4pHuwGIA3--15" value="API&amp;nbsp;" style="edgeLabel;resizable=0;html=1;;align=center;verticalAlign=middle;" parent="4weoMkwUrQ4pHuwGIA3--14" connectable="0" vertex="1">
          <mxGeometry relative="1" as="geometry" />
        </mxCell>
        <mxCell id="4weoMkwUrQ4pHuwGIA3--18" value="" style="endArrow=classic;html=1;rounded=0;entryX=1;entryY=0.75;entryDx=0;entryDy=0;entryPerimeter=0;exitX=0;exitY=0.701;exitDx=0;exitDy=0;exitPerimeter=0;flowAnimation=1;" parent="1" source="4weoMkwUrQ4pHuwGIA3--1" target="4weoMkwUrQ4pHuwGIA3--2" edge="1">
          <mxGeometry relative="1" as="geometry">
            <mxPoint x="390" y="217" as="sourcePoint" />
            <mxPoint x="470" y="350" as="targetPoint" />
          </mxGeometry>
        </mxCell>
        <mxCell id="4weoMkwUrQ4pHuwGIA3--19" value="Function -Call" style="edgeLabel;resizable=0;html=1;;align=center;verticalAlign=middle;" parent="4weoMkwUrQ4pHuwGIA3--18" connectable="0" vertex="1">
          <mxGeometry relative="1" as="geometry" />
        </mxCell>
        <mxCell id="4weoMkwUrQ4pHuwGIA3--21" value="" style="swimlane;startSize=0;" parent="1" vertex="1">
          <mxGeometry x="290" y="-160" width="310" height="210" as="geometry" />
        </mxCell>
        <mxCell id="e5_O-6P5KocpQV2n-92U-23" value="Multi-Modal Chatbot" style="text;html=1;align=center;verticalAlign=middle;resizable=0;points=[];autosize=1;strokeColor=#6c8ebf;fillColor=#dae8fc;" vertex="1" parent="4weoMkwUrQ4pHuwGIA3--21">
          <mxGeometry x="180" width="130" height="30" as="geometry" />
        </mxCell>
        <mxCell id="4weoMkwUrQ4pHuwGIA3--31" value="" style="edgeStyle=orthogonalEdgeStyle;rounded=0;orthogonalLoop=1;jettySize=auto;html=1;" parent="1" source="4weoMkwUrQ4pHuwGIA3--22" target="4weoMkwUrQ4pHuwGIA3--30" edge="1">
          <mxGeometry relative="1" as="geometry" />
        </mxCell>
        <mxCell id="4weoMkwUrQ4pHuwGIA3--22" value="" style="sketch=0;pointerEvents=1;shadow=0;dashed=0;html=1;strokeColor=none;fillColor=#505050;labelPosition=center;verticalLabelPosition=bottom;verticalAlign=top;outlineConnect=0;align=center;shape=mxgraph.office.sites.site_team;" parent="1" vertex="1">
          <mxGeometry x="-40" y="159.8" width="90" height="77.1" as="geometry" />
        </mxCell>
        <mxCell id="4weoMkwUrQ4pHuwGIA3--26" value="" style="endArrow=classic;html=1;rounded=0;" parent="1" source="4weoMkwUrQ4pHuwGIA3--2" target="4weoMkwUrQ4pHuwGIA3--22" edge="1">
          <mxGeometry relative="1" as="geometry">
            <mxPoint x="-270" y="180" as="sourcePoint" />
            <mxPoint x="-110" y="180" as="targetPoint" />
          </mxGeometry>
        </mxCell>
        <mxCell id="4weoMkwUrQ4pHuwGIA3--27" value="API- Call" style="edgeLabel;resizable=0;html=1;;align=center;verticalAlign=middle;" parent="4weoMkwUrQ4pHuwGIA3--26" connectable="0" vertex="1">
          <mxGeometry relative="1" as="geometry" />
        </mxCell>
        <mxCell id="4weoMkwUrQ4pHuwGIA3--30" value="Team Cyber Sentinels" style="whiteSpace=wrap;html=1;verticalAlign=top;fillColor=#dae8fc;strokeColor=#6c8ebf;sketch=0;pointerEvents=1;shadow=0;dashed=0;" parent="1" vertex="1">
          <mxGeometry x="-55" y="290" width="120" height="60" as="geometry" />
        </mxCell>
        <mxCell id="4weoMkwUrQ4pHuwGIA3--32" value="" style="shape=image;verticalLabelPosition=bottom;labelBackgroundColor=default;verticalAlign=top;aspect=fixed;imageAspect=0;image=data:image/png,iVBORw0KGgoAAAANSUhEUgAAAZAAAAFqCAYAAAA0tgyzAAAABHNCSVQICAgIfAhkiAAAABl0RVh0U29mdHdhcmUAZ25vbWUtc2NyZWVuc2hvdO8Dvz4AAAAtdEVYdENyZWF0aW9uIFRpbWUAV2VkIDEyIEZlYiAyMDI1IDAzOjM5OjQyIFBNIEVTVGoZ8S0AACAASURBVHic7L1Zl9tKl6b37AgAJHOQdOZv6Or1eVVftO3V/v9/wTe+s92226tcXfUNZ9KUykwSiNjbFzsCAJnMVEpH0lGm8GpRTBIgEAAi4o09i5kZCxYs+EDQ8n7fYSWzd7lrxwULPjs0v3cDFix4fDDuTyCwEMeCh4rwezdgwYIFCxY8TCwEsmDBggUL3guLCmvBFwMd/7K3WBw+lErp8Cx28L5gwcPGQiALvgjY+PL/q+gtZYK3ccv8OyedBOTytwAtk+geymtuCp8g7Av59YgLFjwOLASy4NFivt6fzNo+xddpvMoImcCAofiU3wJb4BXwt9zz1+0bfr26QPqe//LNH/h6fcIZkTWwKseI5bfxSBvmWEzmCx4LFgJZ8ChR1/r75FEJQ0biUFy6eEMmEUgIA/AmK893W3653vLfh0t+TNe8GrZ0OdP/+hPfb055tjnh+/UpTyXS4ESyIdABoVCRMSeMeuZFhbXgcUCWOJAFjw2VPDKufqqT+Fzd1ABioAI7XNK4AC4t82Ma+D9e/MqL7Y7LfuBCE9dkLMDK4InCk9jwpFvxzfqEr9cnPDs95Vls+CNwMjtXPZ8YiIBgCHnWWjl4LVjwcLAQyIJHhypxKPtSyNxOkYEeuMaJ48dB+Xl3xU+vL/hp2PFvw5arnBnUsCCIBEIQgkGLEdVJ6CQ0nK3WnG/WfL9e8z+fn/MM2OASyQrfL5b3gCJ7dpCFQBY8XCwEsuDRw8wN5EkMLWqlF8DfgOfX8PPVNX/bvuHXfsvFMHCJ8galL7/ZSKQlIBKwEEgYyYxsIGo0QWibwHddxz9Lw5+6Fd+enfJNE5xMAqyBjRmNKSI6coVMMgoLgSx4aFgIZMHDwNyIMfvq6JRbNlTJY8DYAZcolxjXWfjboPxfby55cXnFRT/wWhNbMQagF9hJMbQLNBKIuBQiCCauiFIRsipqhqCsA5ybcgZ8vVrxh27FH5qOb05WfB0Df9LIE4MQIYRJHpKFNxY8UCxG9AWfP+zgbzkwjNv+Zi32hgQMwBbhCvivF7/yfEg8v878bUj8W84M2UgmDBhZnByyCEmqZ5X/nYAggpirowQhSCAHIVvGTOgxXkWj0cyTbPzj8ppvVPj6quVP6zU5nPDH2LFetXQiNAJBZjaSu+7BfUjmCMkuWPAxsUggCz4Z3qejSf2h7X9pRUKIZZsl6BWGANK6cfwX4O/Aj68Hft5e8e9vXvHaBi5z5hrYSsAQzAQdSUkwgSoWzH2mpMR0BJnUTZO3l3osiWSCKY1Aq0qnRivGBuOP1vCH1Ybvzs75YXPKd03Deev2ko1Cd+igVUWscr2zj7P9bL+R4z1aWGTBx8dCIAs+Gd4nxaDAZAmffamFQJp60OCfXwM/Z/jlwvh/hx3/MvQ8v7ziYujZRmEXlCFkn4ydKbxd5fjhzom3OAGL/wbzyVuQYmcxTLyxIsY4tEQJpqz6zLOm5Vnb8cfuhP+4OuPr1ZqvOuEPLXwl7rU1XtP8mg/jEecfxA6+O2JPWfhkwUfAQiALPhkO58W3YZw3MzcmUxX/OgBJ4cLgucD/edHzj/6an7dbfjHjF1WG5HYKlxYMk+lgTh5Ti+StBHLLV1ai2eXYFSqCEQ1aM1ozzok8kYYnq46v1iv++eSUP3YdJwGeipNJc0OqONaMhUAW/H5YCGTBJ4PxbiQy+ifNJZAAV+IuuNUN91WGv70a+Mfumv/9l7+zXbX0bcsbMy7VPHxPgmt6Snf/GFmpbI+cJkixcwRxN2ByImYjZqWLwqaJfIPw/WrFN5sNP6xO+FPX8aSBswCn5pHxewSyp9KzSYQad1gIZMHHx0IgCz4Z3pVA6o9iBlX3jrpu4IXBy954sd3xL9tL/jpsebNNXOXMFiWJoBJQEUxikT5kigmRd2zDvZt6nEAChTwkjiRmamT1SJUYBO171kF40rR83234Y3vCV6uWp13kL6Hlzy10rXu9NBzaQeqHAz3fHAuBLPgIWAhkwSfD4ar/PlJANrg0uEjwOhsvNfFjuubn62tebHf8qpmXmhkUBjVycIWRSxwldsMACSWw0Pam2tvOffd8e1y35ARy7FgldUpxA66H0HkrNCOmNGqcSuBMA2dN4KyL/OXklD9vTnh60nAW4AkeV9JSAhXvM4Jvy6CyEMuC34CFQBb8LjicxA+dj+p7Av7b1vjrsOOXq0t+Hrb8mLe8yplLM3oTUpEu1GrshhAIBAkEApiU+A1GW8h4LjlCBwZSVV3FSF62TFZ9u7nar9LNIaqx3neT8rlulKLecouMmSKqxKS0orTBeNI0PG0bnnUt33Ur/uPpE75u4EmAr/DUKmNT5jeQ2ffvkoJrIZUF98RCIAs+MN59mat45tuh/P0K+FXh9XbHy+2Wf9te8WsauOp7LlNiJ0ovwoCQa0CfCVTvKHFLe5VAxvTsM/Kw0qxj5FGceWctj+WYVj5nl2PMmHLwFoP8LbP0/IhVyzX3+JJi8DHz44oaER1fHcoqCKdNy7P1hvNuxem65S+x5S+NSyZr3CW4M4jz0uxz28l9yGEhkAX3xEIgCz4gbrNwTBUzjqmOEp6P6lfgQuHvu8y/Xr3ix8sLXvY73uCR5Ko2Lvy1RIPXVb+nKKnnECgqLF/hTwSy14YjE2Wgxn/Mi045EVV/YiPDSEYRLJZ2yVEvrOmb6YjzudwACxP5eDutJGM0T31iruKKIohE2jbSrRr+hxD5T03DtycnfNut+SNwjqu22ppRsp5wXriEg78X9daC98BCIAs+EAzsIH1hUdn4NFhfvrXHs+AOwBXw/1xl/na946eLS15Y4hfteZ0Hdm7RIIjHWkh5N5E9qlI5mBklIBaQAwI5lDxuUF2RWDx5SZUS5sRYSMTq0j5gFjAttpUjRvSZk/De93MCUZmXtPJfeG2RSW0WzKCcJwYhBOMc5RnKk67lu/WGP6/P+Xa14VkD3wLf6fQY5sGIN1q0EMiC98BCIAs+DMyKO2l2IqkBfwhGINGwxYkjA5fAczI/vbzgpzfX/PernpcqXAyJNxiXjZCipxGpGW1hitOoZHBc7S9FYqj77/9mLnkcygsCiAVXgMlUm3DKXTXtaeOBnGQO7Sv3h6FixahuVY9GQGhw1RxmBANTxcxQU4xMsEQg0wmcx4bVLvHdySnfnJ3yz2fP+M/rZvTc6nDDe1Pe480bd3iJCxbciYVAFnxAlAnQXBrJQVCETOQa+Cvw95R4fnHFT1dveN5veTNkrhV2RAZpGIjsRLgWnZIZUvNPFUKweg4/q0/6By2R2euwhbcSiI3WDD+mK8kMcR1TlQkkuqQiEfelqqot2zvWuzgKqziJ7EsgMubdorbHDFUnmyz15b5lEWOdoTWlMeWJRP54csYP5+d8t9nwPQ3fte7F9RTYjAGaNpGF3+Tp7wUL7sCSTHHBvTD3ObodvtrPAkkiV3hqkZdp4NeU+ZfdwI9XWy6udmxN2RIYCKSSwFAJJDzKvHonidQafpPaSkpSQ1FlFlQ+/m1yt9ORVD3W+GGyUFTDtmCIBUwh5wbNkZwDGMQGmiYQoyAhjIWilLnlemrYPqnccttqU/YyQ9po13Finh9CmM4aSmoXQwJkC0Tz1vT9NX/7+ZKnbcvXNPzp7Cl/+vqcPwM/iOffiiituxxMN+8D41B1tuBxYJFAFrwV+9NhmZxLtzlM/WHARYYXGf6lv+Rf+0t+vN7yIikvtGGbi83AZnOhGSqKipGtZL+V6pIbfDKv34mfM2aj0SopHJ+cqrRxs4NPFmUluSqorvMLGWCGpkDqA9vrhn7X0O8M1YHTM1itA13X0LQQo0/cVf2kpk4qpVFqlUQmP62xvYUgdYxQ0VkrJ/sNhkexz9yLFfPWi47HbAyiGVFcIomA5p4oRkfgpOtYdy1/aVf8T9Lx/UnHk5Xwdeg4s+hR/8e8tY7rCu/FCrX/3NcJbMHDwUIgXyTqdDat02X2/7TH8flCKBX9rESHA1uM50PilwzPtz2vrnt+3l3xMu24UmVrwi40ZHG3V9ecWMkRWBMR+mSbRbwUrdRJ1Io9pTZRCMUmUOM1jhuBQ1FKzVVLoeiwqloqY8VQ7/EikZxa3rwGy5GUjKEXhgHSYJhl2k5oGoiNsNk0rNcNbRcJMSPxGmQgBErhqDwSSPWumigkMrkCKIjeNLPbzGtrLpyUVy7EW59otJnLQpHKzAaoHlwGmpWzIHwbI89Wa86bhv9w8oQfVic86+BM3JOrxUlrrkK8ca/3XMkOHoLImATybRLIYop5mFgI5ItDncSqpt8/F5MzzKa0Y/NEJZAt1fVW+ftwyU9vLvnrruf/U7gYIA2C6ny1TEkvMtEXFBKYtcxVYB7f4R9ltEXMG3PD2elINzapU1+9GicPs+DkYcEJyJSUDFWwFNlebbh4tRq1RqqT2WUuiolA28JqDesVNCto19c07UBsBJEBZChnFzeAF28rM0GkGa/N66TrfhZ2q8+o3vcwnn9Kx+K2k+o+7Pez/F3Vf5ZRyzNpUchiJFFai6xy5Btp+WG94etNw5/XHf9kka9XkbPWa7yvFGLVbo2Bi9PzFZ19X+9RxH9048EcfBZu9LeDzQuJfKZYCOSLxJQbCih+Uv7XOEExTfxzXBj8YvB8GHi+u+bf+kv+vrvkl+2WayJb7VAaTKf84yOBBJmplA6D9Wbnxe0hFXLr1PI2RCB6dLfgRm8LmEZMA1pS+loWdteJNAj9Trh6IwjnU5sqeRxCjBCMEJQQjabNrE8S7dqKlKKEmHx2rRkhg2EoZkXtZFYUasemSNl7ycE+ozxzYHz3vXRSN+IkOdObYRhZIJh7eq0ynIQAecvX6xVPBf54fsYfzs/4IbR8K3AqcGJOJnOdlEpVrx20TvyZH17NXQRym8S7EMjniYVAvlDsa9unchNz1VVmquqXyv4/Af/bL6/4efuGXy7f8KsNXERjFyJGQ6MtYnHm4gqIE0cWo0aLC3YrMUzS0W+9yAhSgvxMCCESpAVrSANsrxNpZww75c2rHTlFYAPWEqR76+Fl5DhFJCMhEdqB0GTaDrqV0HUQWyO2RoggQZFgmA2oDVA8q1y6CAc2JTl4BQ4xxo7sBTDOyMSYbZ//rnBAsSl52KWR0w6xRCfGkybyVdvwl/U5fzl5yvcnHU+Bb4BuZispsp2TyKy1c/vTZHXirQQy/81CIJ83FgL5wlAf9izcj6p9qIM0lO+fK/x4Cf9+fc0/tpe82G55LplfotGbZ5NNKBmKykmQ6u4q4eZ5g8wmh/chkENLzbErm+9bo8QbsAbVQE7CbqvstkoejDQELAXQBqzFLKAKOc+OJPebwNQSyg6TRGiMpjW6TmhXwnoTaTtoWqPpAOkR2bl0ZJ5yHj28io9DIHsT9Whm8Sh6M88sFkxpTekss8mwVmgUNmr8L3/6J/705CnfFPXWKR5jMsbqzFob2SePhUAeFxYC+UzxNqPjbzkuQDLPdJsEBvFo8C2wy7A1eLWFn99s+XW75ae85aUmrky5DsKb6EkJAUSn7jNXVhwlgH0F/1EV1rTl8NuqxqmGYQ5W64fTTlFVWYNqx7CD3S5zfTWw6w3LEdPoxKEumYxuwLeprI5hrvIDUk4oqUgamaZRYgurdaTthNVaaDolNgOx3REDCDp6kpnN5cJ5QpX5a04Gc/KY95oZgewVVLlJIL6jFNtMqaiI5+IKpsWzy3dtFU7V+O78Cd89ecK37YanFni28UJYT5hSztdXzRZWX/chkEOb2zEspPL7YyGQzwXzpyCTRCC3bH/v05TJcVDYGWwFLgP8mDIv0sCv1zv+kTL/PiSud4nejF5gqHYTEdK8MVbyU4mN+vzbGnis2t+xCeKmLnxOHtUwPPuuRqcDpoKqoAppaBj6SL8Tdjv3ohoGQ3PELCI0BGncNEGdwKmB33fdxanVc9JhkuxcNZQIMWHiNpIQtEgmSrsaWK172i7QRIixGqmnyd7rtXNAIiAyEa8b5Y8pI+eYW7j3r6IijvfAxm1VutmXffy7AHRNw3nsODHhrGv4qm34z+0p/2Hdctp5cseOaokqZGLHe4d74FVpyI5YfPbbfVweW/CpsRDI54TZIvqoO/58kf0W1GkoM9kwEi5lXCf4ZVB+SZnrnNkB/3jzijcp8brf8drgIjSeoFCkJC70ExdzAnV6mWbaQ0nkZrc6big+TiA39yhREeavSiC+NaIq5CykBGlQUoKhD+x2MPRGzk4sbtz36UxoCKVVe/dajjbidlQS2eeUctA8TsRGSYwYnERik2lbo4nGZhNZdULbQggZxHMT1+DE6S4bwfPNl9rsNpNaiuQ1uwD/a18CmTdv/NvqhHwg3czujYzfTsTSmEslgqu7/tyu+W6z5nyz5qzreLrecBI9Hc1XuHtwTaVS3YTnMtNIc7eoDQ+vIlClLP9cg+sX9denwUIgnyHmYvz7EEhNwprw3FMvM7zGeKkDv1xe8eK651818+8ofa+YTqnIsxlGQF0T7kQ2kxxGNcOY/O8mbrNv3Bbw93b4xOgE4kkSzap7rZAG4+pKPVo8BXJ29ZXmiGq1aWhxKy6KFPWYDxF3jd2zc/zGEXGoHpo/zz3pqpwziLFeG+u1stkI3TrTdjskJLCEFRenKm2ImEshVWQazytu8/G9Zwqv48/q+OSqN/ex2WRsk4JxX4FYSEoSQiagdAjP1ic8Ozvjq/Up/1EDP0jDedtwLlNhrNUo/h2/fzfu6+xzZDLem0wlAaqEMqbAuXGdCz4EFgL5nVFv/mH5hnmnvzF9G0DAxEli7i21w+0ZbxTeZOV1Hvjl6ooX/ZbnacubIbHNxlVouQptiQova09x24bCqDoZjet7k6HdSSB1dVpRJ6G6Wrx7MFcy85y49U6YBcQiYhFUyNnIWcnJbRuXb4ycW0wbNAvuvuveYK62s6rwGi8mzHKefMhJ5vCujFLbbKKr+9QrjDETQ6ZpjdXaWG+Ubg1tZ0hUkIRJwkhlki59Qeb32q9bzdVB/k2RUmYXJzbtffOab5FUbN4fb1qoFM8m4BKXq8yCGq0arQTOuhVnQ+aJRL4+PeNJu+Kbds1X647zzg3xVeVVkz5G80JbU6tqbrJxOXGDUSzsO4Qs5PFxsRDI74z5qmq+Uo0cm4h0HLyJOBLGDpc0LoD/9vyKF7trnm+veKkDl6JsMa4xthEG89oZQodIIZCZ8sIz1hq13sWeOqa2wgyTmnrj7ai2i/lq8XZlVpVfyl0wT14oNOQU0UFIQ2boE8OQPVJ8gH7XkpMTiP9uXwciByetpLZ/5o+DY8/48LwCiGSPK4mZts10a6PbUIzuidAqHuWeZlKIK35EpqOZidsTEDDZIyw4kCje43qOLQJySQZp5BLY6L0smEHKBC3kIIFOAiuEc2n49vyUr082PDHhCcLTruFpbPimdbXXVK6rKud0XIgEzye8f2MPL2phj4+KhUA+Bxw+AdnfZEwSRiWNlxgvU+bny4FfrweeX++4MOVVHtiKskMZxBjKwFZxQzhS1TZhcrmdr2HH1CB22JTSnpJK/E4J5BDFdkG1WdxysePoL8oHazBrGQYhD4F+F8gDpD6TBi1SiJV6HB05e6DgeLT56vVIU6va6qak92FxbwIZv/S4ktAoTWsQd8Q2062FtjO6DkJ0e4oE9Xepqq1qSyhrdqvnnD/j9yQQm7Jz3QxqLAGS4i8tUqrii4dgnrglaHmn2E9EaURpzWjNWFlmY8Y/PfuGb8/OeHZ6wlfi9pPqKiwYHULHgSG9SrlV2lvI46NjIZAPgDvm//sfIDOO6OpaW1VTO7x+xou+50Xa8ber17zcDVxmYUvHpQauMlxjXKFlNTgN4snw6a0bpwCb/obZxOKiyNEJZq6+uh+B1OnmYKocfzonMN+mWVBtSCkw9O5BtbuGPETQGk2Oe1wVZblZpAhOe2dGuNWj6pBAPhYOCWT+fpRAKoJhkkB6CInYGKt1YLUJdJ0Qo0srISQk5JLUcZ5a3s9cHXPH89n+Hb8fSgbkQvAzjVzZWmlrWlx4qvn6W69TPycv36IIyXObYTSWWZtxGhrO2pZN2/BD1/FtjJyuO067jvPYco54ipXymt/LeczJfZ5v9bxb8O5YCOQ3wjhYVZrNChHdEwp5cPXSEOEywkuBi1553m/597Tl1zzw6mrLq37HJZlEQEMDYYNKQzIj40ZwQRGdSwnVCMu4ijymJZ5PLocTzXS9MwKZu78cvTkTeYz2DCu1ygHE1S2mUozihkgkp4Y3F0oaAsMgo+st2iLWjHEg5XbvEUT9ez4h3Eog5b9PSSBwOPFO78fvdS5/KwQlNhCjlqBEaFul7TJt63aU0GhJ4qhQjO77ywe4TYY4vhTal1z823Bj70nxqGPf8Jol9ThhTwqdfpedQPAswi1GNB0j4y0nVjHQBWHVNJw0HV91a74+OeFsveI7C/wJYd3sF8yqxvN5IONR2EGfecfOcOxZfkl43ARy7Mrk9s3v1gHKaosDFYEJQcKNDqtM6UDmHlI9cJWUXwfjGmFAeDls+enygovdlle7Hc9FuRYhqTBgpAgSWgjR7RiE0XZhZoSSHmM/R9LklCk3pqvj6o1j92TK+zojkMPi4vVjUZFJmTwQc721lcgA83xUbgg3cjJUhTQIFxcDaRCgdTuIxZJ88FibYB5/N4/jeFtMx6dYeR6bmvfacPC+9zuZmYQFRIyUd4RgxMaTObYtNJ3QRHNS6cSJpske7S7V1aIuFKQc/0A2OtaAed843Cz7O8ss22RVX+nYdJktXubXroVEpGT+LR58RcTRnD3VvRli0IZAHDJnqzXrruGbEPleImcnazZdx/lqzUnrBvkzXPV1LLARmHzd5xd4rD8c+e5wQTD99O7p9Lhi+OGSz+MlkHuM2MPQqr3+85alhTFgDLMQLU9JKNp4ziWmqFszT32+FVdFXSpcBPh1uOb5xWt+HAb+az9wIW4mzKrkUrq0xgTbqDao/7xs656LrVG8jQ5uhExThUsWd4dg3Uvs5/AWy2xLhROFWFOksoRHiDfk1Hia9F5JPWyvIzm3qDKqqLS8H4mBu/X5fo7qiPsq+m79tchoy7i5Yz168XyKxslJx+YEVhuj7d4QYo+ENJX5pXpm1aiJd50CZhLtwXfzv+Y12AVGiXR+zXOfO18ceHxLzdo8rxtT86tNR1AayzSWESKByJP1CZu25Wxzwh/DwP/YJp42kTWBp9JyHhpOa/fPzDILl/dw8Jmbn49JlJOUc/v9nLbcHGGfQpX6MfBlEgiA3Mw+vacznatFymtPLYJ7nEx90CkjMEkXO7xWxmVKXKjyMisvtltebq94lXte68AuKVcIzwnsbNLeVhWPnyxM343ShODFiFwHMz7Go9ftK7rxOg8lhuO3505MpzlcP89mcHNDOBZBAzE0pN48uG8n7LbQ7zIpgeYWbKzUvX+SI4vjLwplNf7WgVpyqosoTRtYrYxulelWeFLHxgghEWIGyVioLrdzSfWOmXNGVk4OxxVzlehurMGOEMg0pUrpl5MjgO31+MO21C2ljoq5mjQaBPVCWqe64xvb8dXJhierDd90G75Zn/LspOWcUvPE4zpZS3EdvkWlqUe+F/bzyFVClFmL53vPr+MwZ8NCIJ8b7kkg80ddH+Jhvp5UekgIe3PaqJaqJJIBzfAmwauU+Ufe8XPa8vPlBa/ywAuUrSm9KdsAfRBcaPcJ1lfeMpuAbzR57Iajq+uxhf+nhNRafjKqimIMiHgwXxqg743+WhFbs732Ak2aGjQ3xWBe4jxgn4d4mIPq90PtzWVSDb7AaLvAahVYrRNtl+hWnjGYpipVzfc/sGnZTOSZlF6TC7e9K7Pb7U90r/riLVd1DFrqwoOrXyNeljgCYhnRRCOwjg3dkDkNDU82G75brfl+ML7ZbDjvGr5ZwdMweXo1THFLJns+LnvqacO3MW6rBLKf02xOIPNcb3LwemhYCGS267j+n7MEnnhwACROK44d8NrgjcCLnHi12/FqN/DrbuCy77nOyiWZa8vscmLA6ION9b5z8MJJ1UaARlct6e3d6CiB3KPbvX89jfugXIM0BGkxa8aCTUNvXF31bK8S/dZIqUOTJzEUa5Ex1frxo87fF7wfXHKudUuSp5wvaefPn3asN5GmEyRUJ/Haw+c2M8Z67XZAIu/Wlrv69l0EcvuZqov6nrQjxWWjVLwULRUas3liyCCsBdaqbGJk00SehpZnTcdZ17IJ8E9fnXCGE8oazzq84W5j/NSASiD7S9OFQB4S3pFA5g9w3kkyroZ6nWGrcKVwkZXX/Y5XQ89P/RW/9Ne8HgYuJfA6RBKeP0qFvQp8JnmczGeaX4RAUA9+u0u9dDuB3N319lOL3BSt347b9vGqg4JnvTXtGPqW3c5KPipjt82kwUBbcu4Qa1zauucZ75tKfcEMN3RHc5RocelpusTmtGFz0tCtlKZNJUjRJRgvxDX6zFGlm30vvPs15Pg6QcZv304gt9gVZDq21jEtjJkPggnVJf0wISSiBFWiKqtsbExYBVdnfXey5tvTE56uV3wlDc8schYbr9AYJm+vjoNbPHLG3QQyvwPTHg8PC4EwEUhVQ1XvqNfA6wQ/bTMvdte83m15TuZH3ZGyx4WrGbuUSmr0QE/w0q3I2KGB4k1TVQa1CYJIcXHV8A7GbWPSDwvcOvTq7wwZK9Id3JhRrTBTXTD/6NtUjRCEyXIqmBqq5vmmcoOmEy5eN04aKZMzSPW6suBlXC0cfTZaTCcy6g9tzLw7tWPBW3Gs3x8hEZcgMgSl6YS261mtEus1Y6BijCDB3dKng085ud6uwppUOYcT59Tn6pYwSjk3j3JIIFN7qveWL9bcbViphOEeiYz5u272Js/DIHQEohmaB6pSOgRj1TU8iS2bDCex5bxb8Yfzp5wSOY2RJwbfNvAkuqTSzi/94GRzS5Ofe78tDxGPm0BmT0qZnm2hBQAAIABJREFUBHSj1L5gcqmt23vg1x5+fH3Fi+trXlxfc5EHdgLXmnktyqsIMTbE0BDMjXA1d5RVLajIuBryZhR6mulr5935beThex1+lqPDau8bm0sgxx71lCjicKUEuC3DBM0KUrLZmquhchKGlL0wUwr8+ssVbfMNpu5WPJLTXKo6Ytsw8P2lLB2Z36NFmfXOeKuQWSUIsCKRZL2kaVKp7x7oVg1tG2jbQIwRCeJEIhlCcQ0eg1RnNW7ndo69Qum3kQhUIjje+KpMu9nTjakSoknNx1WN2jXtiY79fzzCQUR9DJEovpjb9Vt3jYmCBSNbJmalU+hiw0lsOUFcWjHhXFr+fPaU785PedrBeXAiqenra7R8HWE1wWN9PfRe/XgJBEbrVo6eJ+oCJ4ghwa8N/GTw6rLn1dUVfRAu+x3X/cBOYadGMkhlYlNxb/UswmA2po0GDobENOHt62ZvqpBuDqW7zIW+03h8qwRyc1hOpyz2Fab62Mf28W5dzIY2xRT7pbthPyUjJWW3M/pdYOg7NK2KARyPDC9pRe5MIXKEQOB2HbfM/l/woTBJEXMj+mQSni92jNPTEzabkxJvArF9jTQ7CJ5yBUk+KYsvLqa1dQloHM/6tlbdtcUOvvFFWs0OvHeMyl8lyp0ZgTjNTapikUCUxj1kBLa7LWZKbMXtK6ZjXFewybDugY+MC8jWlMaUH85POW8j513Hk7bjn06esMIlk9PZq0orD72myeMmEAUCvMRref/fu0veDMZ2gF/ywE+7LW+2Pdus9EKpeyGM6wOvCuQTtXgFP8MjppX9Mj6Om535rps7nxbD+OHux1HjPiZJ/3btctUsT3mtyiAvK0X3q/dyr+M1WyBlI+Up11RORspGTtD3kIcGza1X9Jvx4p2exLPmHlGYvQULgXxoVEP4zf4z2QfAxsVAEKHrWq9j0l3TrY22C17rPSREIIRZXnaZh8wWHJGEDs56bKcjbZxUt4djbh8lKn/PKWBf4Su4e3ktt9z3PapKaMTXU1W/zc267/NaJu4BpkTLRFO6EDgNkWexYyOBDuHrzYYfzs/5p1XLN8AznESOyWQPBc3bd3m4UPHu+xr4B/C//voTL1V4k4RelZ0qiUCKggafXAOBaJFoTTHgTlaHUYcpWrKd3oSrBO7XvjkHTEL83T8eTY11lX+E/6cJ+sDeMv7ao7oVt13kFEouqYhZYBiM3S7T95khqRdjyp5vysvAhtF76rDz62zAHb3iqvZe8DujKlUOUfpMER9VFc0ZzMhDj5RleGygK3m5VquOrgtII4RYiMPSoZ52bzL2o0+rDlen3W8M3G8P38uYkdp43v0DqWiR1OtWY8zozKzRd/RbE8jSkAKYGBeaeZmV53nwFCsG3bDj6+GaH1cb/tNqw3853TCX197t2j4PPGoCEfOVvQHPh4FXvfLShDcKplYiuQOrEIoxe/7oaiT47Hj4w67pQm6irHbuLdRNlf5kVvXv1r2Pbrr55RSNXQzW1Yg9k67USozGzuh3iayu5jKDlIy+96p+uVTx83QpM0O/3TxzHWqHE8XYUjvc++7rWPApcPM5SNEDOYcEL/tbMv1ikFMmZ2NIxnZrNE0uL6FpKSnpAyE2tF2kbYNriIo04ArgoiobbV7V7M3BOHxbuz+f1YjVhJF42iExV4ObKQPKK038etUz7K558uxrejasKVKN7FHVg8GjJpDatXbAy6uenbRsgW1wU3dJtOE5eGyazrNlz3J18DTrgirgksZNh5Hb8m7c1j7DitpMrArjd3Uhm+p/jyR1YLisfxl4USWBYvDWrKh6fqE0KLudlnKv7oYr5FKAScgax9ridY30tvoZe4bxW8b1oe3jrq0LPhVmdjkLzO1sxfC2BynZAkwh9UoahjGl/Oi5FQy1RNNkTk5WdKtAbCNNGwkhuFE+urXNS/fOzvce7b5zlzsPOe/Jx3e8a6sd7uWBXgRrwWo+sIyQeROMROKZKNdtpJ//flz0PSw8WgIx8Ghv4GeFX6+uyeJKzYAg4kbiue94fZp1TaQHs2CQaZlwq5BxbOUt4aiqyb9xW8td9pLR7lEkir1VmoFLGtUYPqtsrQ2ph5xAE2y3O9Lg7rU5U2qEuzQyGj/r6tNqZLnca5ze4za8ZY8HOHoeOG7GHB0sRA7UjaNCp+5iQKkt4xIuqEWX3E1JOSAMbC9htY6EaLSrwGq1ommVpvEU9SEqEnq8DvyH7Ad1sXXHYcd+XlHzy83r1xwfA/tfFaXx6H0IEvzYuTjggNCpjMd/t+Xm54lHSyDgQvIWuEjwZhhI6v5IcwOue3PgadArgYhMlflmsDp6arW+twZSOQLH1VN+OJ/0DU89sa8kntY+Y0p0qR3eB20TW4Ze6XdODFhAzcu97q6u6beKqntSedxG+S1hLCw1ORVOBva53veQ+962UrpDCcf+sLvPZLEQy8eAHPnr2L2+61mPkm7pw5hgxfMxEFm1rY+jnOmvjawDJkrXCatVADG6VWS97lhtWmKbyjkPRZ5ac/OwAYfj75hEOyORoxdR+3soNk/XL9TyA7eVYD7uNzgrAT1rQvXgDCa0GpAoqIQxDdJDtgs+XgIx6KTEe/Q9V0PPDsNCJNS00jKtGnxy9h/abfk1YCKWo/531cYwF2wFrS6Oh13RcOP1nlrK9rZXo7eqEGNLwCsKavZUIbtB6HcB1Q5V4fpqhyrk7AZyj26vmX0glLgOcDvQmEplOuX+pdvcQ+xDYCGEzw/v9kxu7G1H+jYUMhGEBtQI0mAYqfcXrLkSLTYTzyQcSiDpd98/8+lfQOIbQrNz1dc8NcE4XuavgzbMxvnRa5klMDWl2HvkRp0ZGWf5WRmDYxO/WbHxlKOafycY0YwGVwu/urzi+uSMHZ4m5aGOisdLIDBGqPZDos9K9sVFWWNMMDxm41BcP8S7lHCdHztIdZkttoSRMHzFY1UiOKaPVSENFLWTlpgLRXNgtzOGHeQUUC3brNg9zAnCjdpeV/zmlbm4fZc27iHqZRd8PNxtJeBG95r+nIzzezBfsGVtyEN2Y3sQfv5HJohLBc1qYHOirNcdsWnKOHEDvNTEkbVGfD2sTGee692sft5rb5HqzbMf2KjCml2HTAQyKxh884YcE4LGEgs+B2SFX1684ufzZzxddx5tcNPU9CDweAmkqC2TQZ9zcbstXh4zr4f6vOf2jkPdb8Wt9CH1TYpSbE9JDJRVv1RJBJDgHmJW1UswqZAAEzSb2ypSoN8p19dDkRpikTIiOcXiYqtj40NVd1m1lsgNab9WJ1yw4IPiDueJ46aIYlAsNjhVH5W5N2okcNwpQw+7lbFaBY83MUGCk0bTCk3TEGe52H0k1kDG2Ui3KumXj8ZIPJNt51BqOWy1B+cevdQjc8dINriTzJAz1kQGpmzeB8rrB4PHSyAF2aBPA0kzFmd6p71VxYfAvmXFvxGCeJUQryfQEMQHioirlYYEQ5/pdzp6QFlxMx6GzNArmsE0kHMhoirNWDumQRc5VhN8smMcLhIfcfjogs8Ut0+QYY9hbizq8ym7a2HYCtvGVb4CSDBibGg7o20jTRMIMfh3qxaJPSFco5JRK275ZnsEIqNjzMxp5N5Xc0xlNtOwTScZK3IaQsbQEOhzItE9VPMH8MgJxPBaHiknck0mKFJWOcI79Ze3nQh3yd2TkM3zDakpmFcVzNmN1qrFhrHN7k47lFog1NQgUqK9zVVcVvWyQi0JOzc2Hii+juIhrnAWfCGw6f3GhGpr0BUZIw9lqxiIEkImbLO7EReJI0ZjvWloVsrqJBFbgaLCdR+YGmE/c5qvJz1IHHk37rcAlfHE7rCj4glX+5xvFLV7aHj8BAIMprOys6WcZ+kgb8tjWw8UJJbu5jrQyWZRV/rCvktgybRrgEVSL1xfuUrKzCN8h0FJgxXJIhY1lpREhIx2k9ENeOzTE9FU1dSokRoHwvT2UMXjBQtuYiZVE9Dikk6xi6i6Wuvq+hoJA7HJbE7XrDcrJASaGGmaBokDyIWXWJD95CbF0ZLpRNWOUuYNK4G/YxDk7c64e8OxHFeD1wOaq7DibQf4zPFoCaSSx1YzveVipXIbg5NIibx+C4VUYgihRTUAGWMo0oBLBjV4aKysJ5GclO12ixWj/dAL22vcXlEaaDXFeXGh1UPdqVW7St1/Xjxzvs+xVdve201nkbfewQULPiVum4iPOJbMfyIRoaFO9DG4ClmzQo7k1JKGQL9tSTkRRFmtYLVxm0mIQmwiMUZiiIQYPEGj9PhYn9tLtEgoUrTfNZ9YnUluv7LafhNDRUhB6M0YDLI83PH4aAkE3IX3ZerpMSyEMWGaiWASMNkvXzt20/HzZPjCOjSvaJqeEAZXL9mKIRnDoJgGrq8Uy6uinspcXQ2uLjNDJBKl1vyuXh5+hhDird2v6lRdb+v+Y/53lYLejofaORcsuCFSj6gOKVUMny+qPKUIJcuDZdhegpV1fn+tXLxKII3nv4uBJjbFEB9Adnz3wxpkO+oqRilFQEIttkUJxqyGm9v9NEeTq4jXHDKlz0rSopF+oHi0BGJ4fY+tZVJZORzmtjqG/Sy3LnMGaVCN7K5hh6dpGHqvupdTIKdIyoqmBsuxqKla2vhVKdxTyEJvVl0TcKM5RUA6di0zY81+RPtvoYZFqbXgIeGIwXpM/7y/rSqW7aDGzp7F0DqQDkPRbPQi9PgkH5uGf/z1NbHNNG1D27bjSyIgW0Sq8mkm6r9FG264t2fGGDRz3fcl2fzDxaMlEPA1ejIlqRbPPHH38blHkh177mVVY4AF2nbN9aVx8fqaoc8E1vS7iGkH6uqn6t0xDzjSWpCESR11F27NHyXz7Q+9gsCCBe+K959i7xxxVdMw2s1dW5B74zqtEZQQq4twJESBkPjqezfQW7GLMBvnb0MlkV0a6DUzZEVjeLAk8qgJxIAhJZJmsloJrJNZttqb+08VAyfzsyn0u8TQJ/qdgQo5BYQGKWnfoXbW6neuNz08FixY8MnwTjK2MfNqrNmrlZwonl9eAUhlx+ZcOG1ttpZ7t3AAE8hqDDmhNS3Su7T1M8KjXs4qkFRJ6n7gatUXiyIk3DQtz8vO1NcwZFL2OI2aAn4qVFmPNT/mQ+0OCxZ8iZjUw1XKNwugjb+s9Rct0HBxcUnK95c6DmFAVvVX8RB9qDPGo5VAqmCZgGRuuFKb5bGBWyURRyWQ4N5VubrS+upEaG+xfpUI8FrKc7RfHM8XtGDBgooPOT7e5ViTHcNqOsQxu/Xhbiuurwa2V3B2vkHi7amA7oKaeXqlQ9fLB4ZHLYEkYGfCgNc0V24KHce7mey9VIUhGZq95rNZg0hTK97uCSDj72pU+btEYdgtrwULHj3kA7/e9ezVkypjlqZjzMahzx0NppGL11cet/W+Pi0iDKYke9gp3R+1BHJp8CYpvUSvzCy14tncPlGmfakTf3WNNWrJKSOQci5eHeW7mrBwdk4pv5IxB49/67EeE9kc62h3dvma5mqRYBY8anzq/u0eNPtR6Rm1XGJLmhtNEhmI0rFqGs82HN+HrDyU4NqUreVFhfU5woBdVq7VSBJL8Zb9KbjaQo6vWWoMSEA1kLOQcyCMtZL3f+F8osgYfGRjl5S70j8fPfeCBQs+Njw1vI/VSiJqPauV19g5HKsiXoo3SFNis2QWBzJXZR0Z5DM3XzEhhMAgxrUm8ttcgD9jPFoCAUhmDEBvhpbAwbdT/YER3SKaY0mZHksRpv2DmJTcnFKtLnW7Bw26q7CNYX8PtK8sWPDIUMgjQAhKCEoX3F03Dbe51Qtj4pF7iA11rHsqLJ9TAoEokDSxS4leSzTAA8SjJpBcY0CY6RnfxePOvPiLmngaE3MPLK3Kz71khkYSZZChpEIIRKt1BJVaKTAsKdQXLPidUZxcREEyEoymE9arQNO2iLRcvklHF3pGCfxVyArNO0oP09QjJIPtQiCfL3JWVP1V05jcKJd5B9wrV7ymeIYp5dm+Cqt+UpTrmBEzGozWhEarB1a1xi0EsmDBp0dd8BluvMggmdgo7QpOTlo2Jw2IcnV5TR3rN+yWZqUWD+g9dE+37WEiZAIDwiBlgfsAp4fHTSDqEojWfDa4yjPYfYUQDzrUrHg2+Luerlc1HMIAGNkCZoqRUYtEa4jWuF3EFnP4ggWfDFJ1ECXAN2QImaZRVpvAyWnDZhPpVkZKiRATR/MKlUJTajWO47fN+VWhrXJ/pcjnhsdNIDYF6lS8UzSGgamh2YqxjJtue/VrExRlkB5DiVJcfok01mDq6iuPhX+g8uqCBQ8NpdStoQTxuiFIplsL3Tqw3gQ2G6FtM7Ex1AZCyIxJ8WbjvZZtMCCbkYt6O3B7Jt63t48HXRj00RKIP2RlMCOXwk6hGrTLxH8b69duoja4akoDiNf/qEkNalpEA7Ik+tDThy1uRNfJH0uUHDyFc2PdYgNZsOCToYYTK0JCgtK0RojGai3lBaEZIIKSsTCwPllN9XfqYfYgaFZyVswaxslkzMR6zNAaRttoFiOJOw5PLXyYeLQEAmWVgKGyn6DEKxq/hUAMAtmJwmopqRLlIUa0aveALJkh9KTQg+SxbkAS/21CMRE6yWMKaiEgiyprwYKPBzF3vZWEiEsYm5OGdiV0q0DbGRISJgk19aqGkmnasGf32B+jJVokKynliUDuJA8pJhjPCK7ii8vptRDIZ4m5FxZMxu5qA5G36h5r5DmEUoEs31FMvGpaVUrFslkYq4We0F7QakOjkVZXtNoRNBLwojILFiz4MKhxwRIMCUpsjdVKWJ8E2hXEJtM0LnUQElaSJUpQT88x93s5AgMkhNmnPV/Pe0HNuNrteH3dk06797vQ3xmPmkA80+VBesRbAwcPIa62kuDeFkapPyCjM8cxmFCzQuMBSp5bJ0tmZ4ZKQiW6e29xC65K0AfohLFgwWcFw4uP+kAfQHraDs6erOhW0K4gRAVJWJFQvGZPVXUZZkoMjY/hozkThSDBzzOe9f5m8PqzIMVB551+/XnhcRNIdeGdwnl426PyCNP6l5CGTEoNk/ldboswOgIrCRtdGtFSISSIkSWRQ3JllrWjfWYhkQUL3g/udp8wyYRghJhpV4HVGlZrJ4+mNUwSiHrOK6nKbDeOmhlBIETXPNSYD6ghADJm5TbTo1kp7gVVgglSKhs+1KSEj5JARoHSSrqB0X9if/vxH9e0IwIaSEndbdwCYqWk7Dv1l2oqcxuKipEACT2UIMNoSmMtgbAY2RcseF+YE0i2nqaJdCt49tWGplNCGAjRMBI+ArOTyHFDBzG4e22u28YJQ4jBM3LnUuJhX991c2aZQkislMYtrvxBMHFp5qGO+kdLIBlKwkNBQtgnkPs8LfMdxUriRC3RPiLvvOCoOXlNlGx+KBNBg9GQaDQX9VqtmX5Xox5qV1uw4CNDDAlGt2o4PWuL5CHunkuCoJhkzIaSn85FC5v9X91aQgRNxU46G3ZS3XDK3KIqYKFIMvMl6j5sduyaP0spGcL3K9I9KDx4Ahmf7cw1V4Etys+7LRchuFG7OuHKbJ0gR5RaU31L97gyMFOyZZAIogQGDCFJIIVECgmVwUVjmySOsY02ddHKPylkr48s/vtsRqOJRhuCRcLopSWjJ9jUUpn9v2DBl4aqcipRGWLEqIQm066MbgWbE6NdgTQ7pFHEPP7DxjrmrrryeWBfxW2iSOiR0IDM9BeCBxgaQCBIQ5AIDJ6pu5CSjRPSHHLwv3tpDu5gvHhhfS6o0sdOM8+HnjchYD4dA0UzddQx7+ZnM1eDqTsDF44yAoksgSwNWXJ5DRh5Rh4HJDI7JkAmI5IJYkQiSY1GOtrQEtUj14OFotYKJS1jPdZkL7ntGhYseJyoeeiUEAxjIMbEah1YrYVuLbQrITQ9oXF7h2IufVgxlJcMvPOFXYUhmGVCNER6oMHToMZpvyJ9UNRXbhPxmWFy2jkcneMS1g31OHkMyEhpDxEPnkD21+T7DnVVPykz3n8Xj4ex5ofO7eYfbqq2cg7Xs7orYZa+6EndaN9YZKUrOnVikdJJ5z7I9boWElnw6CECkhE8CWIIStsZqxNhvQ7E1iUPk+wpS0jVkZ5R6rC56moKBfc4DV9exggp6OhFWX/gqugG1cxul0hDpumYSTHMjs3N76TMJ3gsSDL1QOcPfJs+FR40gdxU6sy+L5GelTzex1VO1VzHiefEksMTfQDUEEWVjMrcZ9DPG4lI8tgVV3/NlLJVBWcLeSz4AiAU6cGDA2MjbE4aunWgWwfa1iUNCQYlgNBG0sD/3vOglNmrjqNqAxG3a8g0c4wemiJ4mQe3f7h31jw0+aYMAj4n1aWsFVtoNvVa7B/4Vn0qPGgCeVf8FgLZdwX+gFJIjZKXuRa0yBTF6yuLkkJGiATTYhPRIqUs5LHgkWPmtyIiLnnETGxhtenYnASaFkJjRd1c3HTRqfTCvUd/UTfNvfY5WKCOQomgViuOFtK657kkCJYNtdrGh4kHTSCHUzuzv+8dqnELzIycS8ZNm1IwVj3mh4buNbiseIqxLpEJJEQiESn2kFBE6knKWrDg8aHYKsSzQUhQVmvo1i3dWliVqHJCibISZcou9T56B0eMQhgdIqdjjF5ZRfUVZD4C9Z3PZkUCeah40AQCM/Ioi/bqaTXz8H6vo1pxtfPFgQcOhU/8nCs5mihZMkkSaP2+eHtZqXr4aZu2YMGngRSjAUqIQtMa3VpYnwjrTUBiglCiyc0Tmco8OPC9ZgEjNrGQhXI0164bMEFtWsS+oyHSsNHO+lDx4AkEZs9Npqn0Q7D66L5X3GkRSiqUtYeEYFjIJT2JovIxekKJYBclksnVdZGIWATCHonOLT5GeNCdc8GXiOIKWxZtIiCixKbn5DTQrcwN5a0QG0pwoJX4DieaffI4ZiV9O0KQkgbeoGTzrkb0OWHYaHCVSTz5glZzj4NASoZLsJKqXX4zgThhhGJ8879rB0Kj57GRAZOBLANZ9DdKPcdhZpi4bjebd+pcpA8VCNaM5wxQPFQUMUNpj6+eFiz4XCFpptZZEURoV4HNiXFyluhWhpoRm+BeViWDLihBqmuulXGDr/jeI7tDjdcysz11+LhYNfeg3PfOnPuCfhl4FARy0wZiYyLF9z+o6zdBMfUMncEP/cngixvDyIVEjERGCWQRUoh0GRqFUEtwloRw9T5YcfddaGTBg4A1QMZsR9tes940bE6UzQm0ay1Fn9xDakyCaG4wR3yxRU2iWm0Vd5/w6HchBCToTKKneIH5x6rBskIk7zu+9tO9Pjw8eAKZx3bUCf4wTfv7PB5XiQm1rowgv8PConqv+/9K8BQoxec8GBBKvAitR66PSyJfQpnZYiFZ8NnDDeXFIC14NPlp5uw8sVoLbeuR5gQlEkvy9SmLLuNEbIVM4P6JDm843BJCKGqs/XIQN12yDjPtveuFe9LXh0ohD55A3gY7eH9XqGbMoqd+/tQT8biaolQ4zEUqcl8wL241oBJIZiC1OlqgFtp8R7veggW/A7SootyG0bSZp88C3WZgvemJbYOEUEollISIpS7Drarq35iUVEQIAZdEDkZQXbTOP8st2247dn23JQ7k88c7u9Yxn3TlnQ5ynw70fvBOVgtaBYEggcTgnV1ATYk0NKVLe6K2L86ut+ABQoISQqJpjfVGOX0iNJ0RGrdxKFa8sayodeepSEZdEtPo/W09fiQPmdVHv6v93Bz395N9bJFAPh/ITM58P4zqquJ9VfPd3OgOdfPsbNVm9ym0XVW1lYKiljxbj0E0IZugVoz+o3fIR27QggXvgCmeAiDQNtCtYbUxTs8Cq3UuUkZbnFOKh1UJvNXqcTVLflqO/MHaJ2JIeLcj3kVdYsc3LhLIY8PMw2J005N9yaRqXXXPCDZGbnyMJo1SuXuHTAY4ES0JHiFYjW7NNLmltWb8fcUijSz45KjDoqZRFytSh6dgX22UzamxOQm0K3ePr2RhReqY3NNhXzn9YcnD/S5T4abRunrTUmJGSmnvEueLyINDjmEAjwmPgkA8E+beN6Oe8Z2PVdz2JsOYv/aOLyU6o3h/WHXLYLba/wg9ZV5xYJJyXJSPotTcnspAInIiAWjHnn+TRBYLyYKPi/kwtGrnkEwIia7zKoHd2o3mqxWE1rfrmNrHirfV9HmPNMxuX9q/N8zd4SuBSEnAaGEqZ13sL8MwAPv1zH+jEuRB4VEQyB4+UD+q/t83/TPq+6SL/RjxH+O5ZtdzmMJ9XI+JolU6kYxZIFuisYCgNBa9/vroMRL2EsctWPDRIeYu5pKRmGiazOokstoE2s5oWpBY81jlA4mjqLDGzn8w2vYM5h8iFqO6rbydnLxk9t5l3tj9Q8tHnxMeH4F8UFQd1gyj7WP+T/cE6Q/cgsPTH3iWeQsyUyI3KWUyd4BIwrQlWiSaR68HC6Wm883qh4+xky/4nTBzTfKo7kSImW4DbRdYb4RuDaGBEJ1cTLym+f6S7K7R9bF67PunQ7mLRB4bFgIpuOH19xk+8WOeicU368jeSg6JnXg231YbWm1oMIxmpr0KeNbfmZr6Y13Agi8GY5VWoWS2VYye2Cln52vazut2xFL0aawWKLNEiFUNfK85/F0caRd8KCwEwuRN9RAm0JtD4/hgcTNgRslo0KJTtqnEgcRRRyZlyVTdfcsnPu87seBzhlmJcQXMEhJ61qVG+Wpdys1GRULGGMBqJl2dkhjOg2Lv1Rc/Rn9dxsBdWAjkEaIOO61eLJJ9QNuUeDqU2u1hbmj5ePb/BV8EqlLVO5IBTYSmC8QOTs9WrNZGbBVCQkmg7m1VgwjHaptMNrq709rJwfuHuo4q/dQkRguRHMNCII8Uo7OjuJE9A0NwuSKL0mhDYzo5sVDIxTwoUexjDMwFjxsuv5oNULymQmzYnApnT06QONC0uRjJk0sfNhGHlN+8eyLUD9yXWnSnAAAgAElEQVRHq5/8gSfmgptYCORRwweiJ5ZUVAaGoAQLrCSz0pZgRqguigSvID+uuiqWwbPgnhAQEiEOnJw2bE6E1VpK0Se3dYSY3fFEPIXJGGGOfUa2yOORU2ZajDoL4DESyJ7q/kud+I5ZSjz9e83s2xuoKMEygQEzobGGVltEYyGS+RG+1Hu54F4QAEVCT9sObDbKyZmyXidCI0h0SdhrlStmmbFeef2/JFScVv/1+9+j780kkPH8paVmvGeY2S14uGPr8REI5bF/2Cf8AGGjUXz2DW75MFSUIQhiA1X10GmHcEI0KVl8D38PD7mzL/hIEAhBCTHRNInNCZw9gdVqIESPUTLxpIRGJuuBq+6cM0b11e9piJu7fRVpfOS0D9suQTzr7wc96qfDoyGQ8QHUtNBfPIE4bvPacirxFC1S0l5nvHRuFiUG99i6eQBjX7214EuHYDSt0naZ9brh5BS6dULCUNRUxRYHo+rK/MOx1ArviENV0wPwAJm5O9aYrYc6Wz0aApngvXIxe90OJ49ZQKJ4beYoSiaRQ4OqJ5IL0yLRjZsmuIF0IpHlPn95mKZpN4Z3K2NzAqenDd3aUPrRxlHLcszjyid5WGYL/vftSYcu57+dRMSzKY7vH5yXCoMKXj73oS7JHgWBHHY7AWJJcf75R3b8PvD+uz8qVKwY2d0ukk2IJggBsVBI2VOhjHEiD2DBt+DDoeaHqvaLbjVweq6s1tB2hjSpuI8nJIxLlNkRiiRi+++fGypvfPDjApiXYzDzZVhDWAjk98YkCfsU10pkFQKrbAxSYltv66uT6/n9qWaWq2c8yAOfTQ0jSyaRfFVkATUhWCRICUIkjNLdlFtrIegvAWbZ05uL0kZDorI5TZyeZ9pOCNEIQSc1lenMA3aenORjjZMPNwZFAlIkkHfu3TK1Zo65VaXelsaExh6uUvhhE8gRTzsti+IVgWex43S35U2A4SBj7yg+M60K/O/KJDauQnzQlEDZ8uRvbJMHPo3KpJ/OlhgMonm+rGiGWRgLV4kZU/KTMPPWEm7+NeFh0+uXDAMUk4yI0XaZzVlkdRJZrzPdqsfIqGVMQpnGS5LBsegTY9bsjyN1fGDjdiWPEI5k+76jFTPyuOs3wfzVGLQGN7PSPQw8bAKZY6ZREfzCViK05lHXPqPJsZ/ccrD6PusKtzLEw54aXf3sNabz/8/emzVJkiT5fT9VM3ePI7Pu6uprZqdnZgeziwXAxQ0QhECEj/ga/IR8AYVPFApBEIQIcewugN3Znbu7q7rurLwiws2UD2rm7hGZWVU9M91TmZXaktWRkRF+mJvZX8+/koqDIhMkECwRTN0KQVHLqEZCBiUQrMZD5JyDTuRSo+t7LpKBHmFNiMZ8EZgvjGbWo3GDsRnrOmqE4xw6g8u9St5ehl1jkv07TQSu1odabQJ3eZfH1QGQIlYeRQAaVYLVbKMdf/1Eq3ifqTumi71S1AtKFqO3hIoSUQcRCWgOBARTocmGVd+fXQzH13J5RXynI2gmtpn5QlgsYLYAbb0zYB4oSIoVy/lgMehwl2a9fX331RQ8hv1lcs8jeHicNgpEKTGQS7iErhyATOdnI0osXnsF0uThbLmz5P0GkaHPiIBZRhAyuYxlRlAMRcQIauSaQSKGaEQ90Z9rAsYrJAIiNtR3tJ2x3IvMF9B0goQesx4j/XYJVO+oDC6s3yCa/laRGBnr1S7z0F05AIFxLkdRGoQoHuyV0TM7yPu+5W3Vzwxvjj1OFOgtu/tK3EJRy0glY0ylGEq02Oxjfckg7zE4X14xVBNNmz1Fd64s9jKh2SDqlOtW29Ney9cSEfHaKymK1yUGkSsHIDL5v6oiqoWwbTuyITuff79lmjZiYFbAwwHBzDmKMpS/6eDa8N+NmCNSQESQCfPvZc8ueP/ESAhrYmPMl8J8HpjPldCUwkDtiypWMkvs8mcgfpsyjY+EGAh6WXOwLjuAvMafKkCMAdUaWRem3B7ZjFr/+T67r6rIzmD6yNikaNa1zSwG5imaWVKpNPQPqYVSMyKQKzUjmF1eDeuqyzQ0KBh93hCjxzpmcytZVoZGAd1gJCCVuIdcg8fXkGnCu4OIEEK4rkT/vco5IDIEqkQwy6ScsDOEbNce+7NyTpbasEeM4Ft7wSOw1jVZMtkywSJqDSEHkOCFnINVcz3S75YUQkCx8oAzGoVoG2Lbs3czMJtDCD0a/Jl7mm7v7WmvgePtZSfLyoBkRhTQGAiX1wC5AgACW09n6poKqmPF687P22WDvI/ulwtAhCFB0z9VUktMzN0aZmTLaDJMmqG4JohODnJNf/IuyBATlgwkVBMaYDYLdMsZbbdhvtigocdsUwLJY/X5RTUdV++Z2hu2iKlN8fafqi6sbBC0KFqXVK4GgExkG0ACYlLiw+Lul62009ccZZqF8Z7LeSM1MBrJlJbbCOr7khdWBsRAqhuRXHqNXMu3KaOLqvxulJYWGdENMSbaTpkvoF1kmnaDhlNES3Fg2QKr1bm7Iq6iJW9mw89Fe4WqoF9nf6jbT7XqVdDgFshlHb8rByBVBIghEFWRVMz1Wkn+hu8N1snwy7WcJ5UYLzNJkRahJrUbAbOImjrbT6VEuXZnffsySdX2PS8TYqJpMu3MBjLEdi5kUmmDnCY53rXO4z2RChoXgMc0Sec3FREpIHR5d5krCyAAUYUgpTFS6W9RgeFNfZbl2gJ5KxldW31xZ0mh605kAmaZYAHNkSBSAurXY/ptyhk9yABJNG1iuVTmSyE2gjYZ0R6xsVdHZSlg6+tX/wlW99xgheyKiAPIb7M/VHPkEg/m1QYQjEYzQWp9ejHG7XxuG19oNfm08M4OGtvZz9Zjva8gM71tMyuaq6eBJlWCRTKZSEMUCDQlL2tCKnYt36zItkFdudtCVBZLmM0zTZvRCFKIEJEEnLU2bHIc2z7FFRN3e5sNq3x4f6pcIoKobMdW66fP8+vJ5DngPFhRJhbIJRzIKw0gi1aYBS0PqJqkoCU99XVilMU2cAzszAirfn45CyKXcCL8JmK1In0IrxuIp3gqXs1ukjEvXaehc+iQhBGAUDwj45Z09XXbb0tsUIZKLjWbfkPTNMznQjuLzBcrmiahoVCvSx6/e/Zo47ty/seulHurRLrNZMvikmk/9EK2WGlLzmBGGZBxuPwThht10YRWlHCJp/yVBRChcO1P+oKIOKWJ5kLvvvMd3w+9aE7KUVS9q5LlhNs0lLVZgMMU1UCyVPzLNbz8/ojtACvg7EiSyfQktaHbYUNEC0W8DHUjhWsLva4Z+R2KiCGSEU2I9MQmsdyDvf0WCStik9FoxUVVaNjLqx3I2JLBpTOkM76NXOAKemdlYn1MY3ZFUTTxcZNQ+C2G9p12ZkQEQ8z3nFzTps1oTVg2HU24vDrnlQUQ8IfSNIqclsVQvCduMVyUXVS+K64x1GwVpm04h+Pv9MO4rLPgt5KzNz1oY5KHQLupFx4mAiEHAsGbVFkkWERyLP1FrmZWz+9Odmft+SPl+1wCSahuaDtoWmE272nnGcT7lav6RljZdPNw+Nds9mf+9KanZee+fGelpp0D7K7vydsmVlxYebDBz3NfVff51FIBp3FvRYlc3vl+ZQHEgI2VOgWqslTiGsbFdW2TmJaIx0BUwZLnzJ9HXS7XO965YlbMdsuDsmpmZM0kMmIBNSObEcwbWCFj4s/1kH49GcfMGzmFaIRgBTicBLFpDVHnsxL1Hh+V16rum5fLUvhmJA8B9G1fRU0tsDLGKJPCWhtcsuexWxjer6jiUCOKpB69xNvw5b3yN4g/IKGN0d1WjP71C4NcO98fM7HGPs7nfe5aXi9WfPBpcGt5QyoRcwDJ5pTWUlrnip5ZgNfjfJFMw9olhiEZDUaMRjsTZvPIbGbE1rsIinhFuU3cLrZzxCrv77jbGY/DliFVmBmGsrLy79dxwHYhsmg7ItcdCd9JiUCrwZE+F0C4FDb01ZI64h5Ur70ME1oC8FkzrQVSaVo1ZsG5Jvf+bmJvI8UXLz6WIpkQoWmgnQltB93MiJ0Rm+zAYRtGNt0L4hy83+M+TeEd+eCKkSHeB+W3SfMXc7bwVuTahfWuSgPMNNCIILWi1LbCY2+Eky3dzM7pvDdudSNF8zVInRErK8/7ZFdyfUM0gylr24Ap0ZRg3u2wJitsMc3//m7h3RTxWJMDhxEb6GaBthOaxohtJsSMhA2ZBPT+/zPg8XXm7FV/CgKmWFZsZ80PbtkK2mIwjOf0s68fT6HsT5FrAHkXRYAWWISGVgPSJ8hvb2JW9tnRfVUzMiYnqCm8Q8uqUt/wvneoOiPFwB9zSh08Bj4tYS0KqkgOY2p0NewLiFwH2M9K7XekIdF2wnwZ6GZCiIkQM6oJ0R6rTLqWgTy6YH6j0bzqT0AwU3KGnBkDptPbNkMVNGSQvrynE9w4391dD6EY8xiZN9cA8s5KCyyalqCKkIgICVhd4HAcH3ny36QhNArSO1Egk0lQ8sNLkh5j0UhNi7wGkLOyPSZmNhhstSN7Lxv/m2bUtGRrVTCR6wD7VMMtHQNDyMQWZjNhNlfaDlQzaAI27rYilVTTMWMIm4L6+Wf5+vK63MbLJErOMhQTjndQ40ygQT2L7TX3N9UlS8IbivdB71SRHlJzOUcIrjiANMA8KkEUya4x9Dhvk9o5gavBwMgInqESmzgUE5bUbzddi3ulQkolbLxWk98k20ulpu4iVtJ8N/7aIsHUNT2Ctx0h+Hd43RBf7RCwWbE61N0nIWa6GczmkW4mxCahISPSY7LB8CZQY/dAK68nUCTnnKO+PnMFrxvTq6I4VRcWmHmkruqE07EbXVi1uRZUYB4OU/4vVgCkfDeY70+hfGU46CWTKwsgAqwM1kendEHBEhAmEYtzvjPZlbIVDS9AaCL9WrF89nvubikurKGS91reVsx8+aXCv2SaSZYIssEsgDWE3Lo1aBlEtza4qyW7m6+MPvfi8jO8KFADtG2gaaGdGbOF0rYGoXYM7J0QcajFKRlXZQOcpuqa5YIiE1//hSN80ftXBTwAhJShT7gFcs5tiYBqieGROE+tmUCLlwOUeasGwYyI9wQJcnnn85UFEICFwLJraY/DFvq/7mHVLIvaMEeDEIIMNSG+TqzQmDDJEtqJkVzL1xIr3Q6NTNBERrCsQEI0oDSYbYP82/Q0uqwLc1vKJiWGSo/JKSEqTdswWwRmcyU2CYnZLY7CZzUtcDtT6Db876IBfJOl8TbvXV6xXMJFpei4YoNnXgEqhOA1YmdpvmX75U4SiIqTvO53HYvoVshlnadXGkAisGiUFiEabL4GiEBZdpZQMbQwzE6N+2mK6WDVvKfEir+xFGqH6kYxBJPkOVpewYmkDt9A/ZmMNqSv6gt15Uu+pw2xCumBNSIZDT03bkba1vt2NK0RGnVNWBIimWwew6vFgWOwXAZest1Yym9ydVdZUs7kzJBsABULfjfmggJ39ua0OIBc14G8Y1JBotaC6M77Up3JnF0KtvWPub9Zs5MESiieqlJkSImnyOgYu642+fpiO68cKDKJRK+rojvX3iKepeUVI55qecYteWl7jpR5WbPORBAyEjJdp8RWWe67xRGCV5OjwYsCpSZ/TOIcUqkuy2yeKsd10L/2WF392Z2TuftKxj0DhoinF8GKloZSsr3mB2VoWxzM/Y9BhCY5ncl1P5B3WKJ4xWcs7W1FBJ0WB12ovtZWrDZQuot7VMbJZOLEgIw/wLBgr+XrydaoSfUhGxtWmGaEhmCBXIkXUYRmHHmrX73EhIwy4AeDKiJGjMJs0XiNx6xHtQddgwQgFgAZW85WTXl3JM7Gay/tSH2DIkP67tYeUfcBSQS10hwNhr4ebM/h6mGVrd+NEAKdCDE7gATZds1eJrmyAJINevGH34RAEC2B8W0X1VnfZdUm8kBIJ+q8/0hGRFHCEJQc4iBmYHnUQy7hZPh9SHWxVI17eM8oxH4GJHoBClG8J/dGjOhaoAlY8SSPhuXlU5SLf12ckMoBQY2m7ZnN18yWRttlJCSQjbu2pLr9dmlJfPLvasWvOfk3dluXSep4pew2sGqpBaGMkBlKIsY8sHx7/YcMnR6rTGHFKG7aYhFqUFLwjNDLPPJXEkAq/UAqO0kTIlGktOj0CmcPkp/39MaCQCdSSwx9FcjDpBizVIr1YeaBejkTN7uWN8igxNnkDaQsRd9IfQEmsikxB9fk8M9VPVtLlt2gFlwWIKn3bgyKS3VJzWaRvRtKOzfablPAowftgYShRZlxF+uQWm67ytHbXsib5F0fzN9eDCHl4moqxV+D5WZugcTgcVHMQIMrkP6JLQ/EGCe1iullH2I7en5JUeRKAggw9P5ogC5GGlVI22m2Zy2Q4duuVZRPaWkiYmVL83JBt1S8twUEKb75audey9eSwRLZedPDTaVDRUUZFUJOxdczFhgCTshYoGUwBut++s5LxmwFkojNhrYzlvsNswXEJgy9O2rfDq/QL46+0nWzumm3+xXU15Pk3DOmyevm7K5j5upLShmzUKh3MgMrAoVvLFiJe1oBfv+bWxjl9SClYFaMQKZLxs225XYD3bd6V797uboAgt/cDNifCbOmQXM/aLUXg8f4vmtzmaZpSsVpLcSq5xi7gVxcXXItbyu7W1PtyZLwOFQFGbOEaVHnKDQSiqOEhfIUwnZc5F0GkWIRZ+uRsGa2EGZLYbmnNO2mUCz5SAyt0Cr30hAkrz9O9AdnGY3hIpi4tjy2RdhsEinVubR779V9lcuntTybMXZ1Xghd8PbaMzFuNJE5k0LCS7p1XFkAAb+5BugE5k2Dro4ZWxxdJNuag6rQNAFhjaUNVtqynpke5vxCrujZpZ0Q75JMN8ZkI4hoAYOMF2INAfdsNOUripT4CEP9yHavi9//A9rqgqzuLunmDcsbxmyRaWcJ5ASziJVEgWphmCnnIcQII2zF+4Y3hk+9jWwd7b2SnDIpZTRnKgNClSEeqtXd/XYiGMGMmSr7TSQy2YAvKYhcSQCRmgZZMhzaDIsQiaJkEbLCpPXaBcco/1cIwYNpQ3yjKBjv7/L69sUozXiGasJim5g/j4gRClpEMy8EI/jGu7M4K4j8fizGksgx8KV518sQ+1JRbnTzTGizN3yaRtzKjdQMq1HbrbLtf5947rc+s/233dfvs1TLoXJgnce+bQQtxcXFMhzn4xv2FAMVYxYCy6YZakCGOsRrAHl3RFxJoBGYCSxjwzw2JIzNG30Z26k8IhBiQIKSkzdDqgv4GkS+SRkdCGMqpYzZWUKJB2zIxb8cS9/6qDWZQp1FAEWsbLA1d+LcwMs3dSsVClLxhydUjdBAiNDNe7p5pml7mg6o7WWlHcwIk5Hcb+vaX5sD+iYQuZ69UGGjUMdUFt5t+tRBNAixUUKwEUSYOq62x9QYLWAxb2M70+BcWJd8+K8sgABUHaIrADILgaN+Q918xl3k4sUnhcPEmTfVg2tDvr2VQHos1aSGsP42bu09khKPGgKV20FKkTxYFLXNaP0tYJgGpGTUjP/K1hr/5iGkbNSSgR4Jhmiiqb075sp80RBb72Hu7LnubNVa7GpT56tt4ULNPLNJ5pVMP3ANEudIfR5ATY8qnouc3SSQSS/TUQTVAh6SxnfPDZ4PRy9WpyfcNMBclHb6gUtofcAVB5CqaTbAPAQa803Fm8EoVZE9VyrRUsme0CBIgLwpOfjDU/c6hIgQrFCdXGdh/U5FJpt+fVx1O63JC4YRNGDFyqiuRm9O5Rk0auKdKcvxqmb4zYox+skdIDRkJ0HscKuj8xa0I3g4jxVYsUKKujKQf20nbNjgTh3Bw7ODZOc6rmWQ2ggK8MbmpRUDkJINgCKD1Td8ceDDssLa/eZz1ezAWvoKi+gurDOexEu2dVxpAKmZjBFYRGWugSb1KFI2oPOe1raPWEWwwecpU1V4S3xt2/jLJZsIl01s+kogmQNKBPpqOUIBltJdDkUleOGhGDKkan8DMli3XqPhXFVeQd50wnxRugZ2eMfAyqBLjw2b0qQv97C5lM6X9SS7lpTYmfev5c3io6Zky06iWKyPYY/YwpAS9yjALoNteD6Y1JmoBp1G9pqWRbgaW8SVBpAqEegC3JzNeZo2SH6d1nDW5A9aA2ZQiwrPhlGuM7C+bdkFkYzRW0/E6HENMUgswKGEYbpL6S8CUxq73/1jy8XN4UWBscm0s0A3g/lCCU1Gow1EiAOX1XRyTQFiRxOeXrFsff4SqrK/dynjNVTvVwAZYxdVrBRtugVSwMNqLc75Sqk3khIaUfaajrle/hReeA8AZHA0CeTNBuuTNw+88KmdBRdvp16zM863QKSYu0OP0Wv5vYiRCwNB7zqhGVkCQZWcMyYNIUO2QJACH6a/8zUsUnzs5o2dRBOzRcdyPxKbTNOadwwUBxkr9OuVnfg331XOy7J6N+TdvTImKd7Gi+cvMLuPVAtkRydsYkR1M6z5ej8q6mrkzg3Wni5iRhM8gN5yqXFjkCsPIOBI3whE80YuipCLO2DrWZdfziTueU6o+zCdZ2IrfiKy65W+lm9Dzjyn8maeBNNr7CDjnSnNjCxumfgnKlOz7MQM3u6c535GvVq5xjs0CrENzBbQdkZoMiHmEutIDC2U689blRecl111LV9Pzlp0lQbJspCzudW3NdRGiDoQrNYszUG5vEAMGSyQtgbQ30Uk/Zpy5QGkBtEXAZZNQ6MBLLnnctdVPFGRauYE5nGQGIWgpYhtd7OxMTB7vZy/HbkocWUEjTy+FsPQkgabyeYOCBvi2x5XkErJfwGQvB14gJnHMmLMdB10s8hsGWnajMQe0b707Bj7lPuX31xLsHu3uzlX74pcNFa/yXV+M5bLdAYVpbAaf4YHzrNucVwB3uY6CqI1i+vtrsoAsiEp06DjxnuJM7DgCgPI9LE3OOfMnkZirgGw87cfD3NM7QlBBZoYiNFKYH5KYuJuExteX8s3KW+71gy3NGzyjLIJWZxSwutE/C9knGXZ1NsTy0QV2HVHXHA9lcNQpCfbKTEm5otANzOaDqdgDx5Ip2RaDbQkbAOH2UW+9Ivv9lxrjPM2399+O54unanSvX0NZzPA8mti+7Vj6O9Odkdw5753rAVByBawviFvMpYi4+5en08mRCNEcQuzWLqj9fh6CdloszEr/Ykypcvp9PIumVxJAJk4Azz+AXQGN9uOeQhI3riWsZPjLTBoHON3XTOJMdB1wslRTx76R9fNSa4TX74F+bprrLoUkqRiUY6plMOWXWLowXzDEAE1A+vxPvdjkN3xZjJfziToGMiGENfs3Yzs7QshJjR47YcrLtVd5RvQEFKrsY+vGT+rgdupIlsTAneVWzvnnd9EpupVlgp4O+c/B9IGg+8cUZgkNux88zdYW1v+ANt1MJfS74ENoDoxA6cnLXkdsNx4lp75vXjAfMPefksIPfX5jUrAm6VFuD/fY3/WEsp9DV+9pMH0KwkgVYYAunnjlv1G2YuRdq1s7AJPhQA2WiIA5IQqxMZpTfo6PcsBVBTJXmBkjKy91/L7lxrULDowXjMixf2w8SephmXn1dLJZw0G15bvitvbkM+RclwxjBXdvGc2j9y41RLbGuMowfGBSXfcdKZbz+9yD9mix/8G5d3d8950ZaONVpsBeA2RYkncGq1HGbTJjAS3QHJVAMamA685kwPVTAP7TceicchKXO5uhHDFAQT84YQCIHP1gsIO4bj4yM/9TgGR6uIQMkIihOjU7pSNhfG1mQNKLr0rruXdkYlzCBvCmd6TYeiuXlxaAW83qmaOMaKD9rqrv/vrHtF1CZqvuXt/nxDXxGZTajs2jGBR4zHnzI+ySb0uEHuh7IDFsOl9S3J2A3yXt0Tb+am+RyVnG2pAapfLYWgHl1Ue3FcibyJm3T7vLEb2m4ZuYrlOabDe5VG7SK4kgOw+CN8UoBWYaaSVUMzlNz02N7oN74EcQukNsjX5xk9ey+UQKzxT3m3cux0OXuwSzHC3jLMM+IYspf9DEUlAX/p2ZObLSNN2xM6BA01kemxCd1HO/porG6vov/Y9nblHKZb0Wcg7+/pN13XxJ4dlZK+L2lz0l3dh1VRHNWw2PcfHx4jOyJUCoKCxCGQzUuq9oNjy1m1Vb8b0jrz2w+eZmjKPkUX0SvR65ssKHFWuJIDAJLiJP9Qo0CrMVOlQwoD9bxLzDmIkNATPwPjt45DX8nuWoXZYPEXbpPyUlF8VIxDcqjRQjZO4a49qQjXRtIlunmhnRjcTCD5XnC+txjveRuQ364ttE6tl4M2yesThgMN6GCr0z7u0t9OmzbwnjiCTc03Pcp7sfuJNZ7Ktl28Xpp5K4bOqbYLdvNs5xuRqTMg5s173w/u5xpEEtOTtirjLU8+5h+k1Sv3H3EOhCBFjpp7Us8uBcFlB5MoCCGw/lGDQKCxiZI6+lgVz1KrGMDmSEE3OiSW5bCbh4oP8jmV3k5jKZZ18v2/JQ/os/ojFt9CMB9JNYvlT0VJFsZxRSc6g20YWS6Wbb4hdRmMJror/uOV6tj5g+rx2p6FckEL8NjKSKTqvU7aRjKPWMEkJjljpxrr1fRkVrjdu1rYLN/6tSv7ooDstrJPisrGtXXZrw50cy9tJ1z9KKdL7zXS2IUkBiqlQx2iqRLoLC5MyNrb1XVOIjdJ0AtKX66tu8Nc/swpgy67jxiwONO6X3fqAKw4gVUTchdUBy66jNQqdycWPcFAGBVBDSKj2hBjLBlGowa1CjHMrtamjl96pDiS7hruzTKb/euKNjYkh00vaqXqvml9majL7i2CTrwFJPCD8DbI9XWqxwmm2DSIe7zJR3xpK0WjMFN+3Wx6iG2KrtLNAM4PYGRLcbVWOzkT7GEBky70xvZbdIMbXkvMUCiuar20FabW4tWqGlsPMJEJUC2QnvB27OnbNiKrNkaR8PGOlwZJDlpT1MVvZK8MAACAASURBVGSD2RgwHs5ZzufzVegLuKnlQXGTakWojOvxLcRgrOmQ8U78FJM1aeLxj6Sk3puSWWmTPJ6ruLAjhAaM5KDydpcyXPSy61gqQyOp87qNXDa50gAyhMrKU4rAolG6ENDeGIkRLwCR4vf0ad6Xxj8KIZeg+TgFTDLBlHlasmFNrz29roubxK+kMsfKoAX5VSriJnLN6qj+hbIKpLopREiuVmJ4NX1fVlWXC4gYJIW1eiOti1Ijr+UsiJgoWliO3BpJ/kSkJxpIVOazwLKDWQtNzGjMSMigbn3YYCGOGnQFj/O17e258HWkKiKGDjQcUviZBv97mTeGYJUDToJ/a6Ll+ywvxbXFutiplS3/N5JkghmN5SHpYCP+vtFgeXQgb3vlDCwX63/gDMYETiSyVk+xD9jQK0NFCvVQsQi+xhCJjMXCVoDD0/STp2rXUTQl58BmI6Q+jwCCPztVj3168WB1T76dv1HKdQRRQumYGeVqgAdccQCBqYEKLbCMsB8aGnxxyTA1Xc6fFuYaKD0htsQI6z4NC3EoSENKIVrN3BkX0pnjlZ9ApsH9olEg536r9apS27QaPcKpwonARsBEEAJKKOSg51TXX8trZQoinlrpwfJc3SiiSAByJqqiXcdsv6Et/SBEE6Yl3iHVmhifd91AfvcN2f14SZzYTwU0Z9QyrUCDlE3YqnHlQCJCnx0yHSh8/udi2U6M6p0zAaUIU8WIlmgt0yFEgz5AFsUseU92EXIW0mQ08mho+zmZllJ6knUQb40wL3FKNUOTEYoVJ28xjo5PMgInRRnM7las1lKecI7lLOTk1yyTiHj5qzf/CnlwAcqu1TjZOIZ3y9gHhaYJdCo0GfTb83x/43KlAWS6DpRigQS4GRs61aIDUXyz2xvvVGuqnDeQiBGaRtisvJGRU5vYa3btOtFGp0E9lpCJ1tNi7Glg2TbsL/eZdR0h+iwLBt2q5/T4hBfrE55Zz+O8LtaHEnND9H57iAi5aLvffJ+LqyO7lsiQ2S/+lMAwTSRRbxsRwYLhVeXF7BvYCCbsvtVLUn//Bq47S2YjmY6SKIKx1MjtdsZCAm2Zo6EEgbMqB6crDtcbepRVn9hkK+H+anVMNPfxbFS4acp5FgJLEZYxkqOSVIiEwS3Um3C83rBJCVElqZIQNuWc1SUm1c2FEVFfDwKtSOGxUyK1guftJrZIrfcpAGlGr0YvxmlObEQ47TNjEykjJ7yDJaMLy70DgPSEiPdtsdpiePeBbL/nrjsjKLRNYN4EOsb4x1WQKw0ggO8DUijdgQVwfzFjb9XQ2AazSUxholRszQWBbF6EpkFo2oBI79rWjsZ58WX4hI6Waa1nntYs0prbXeA7+3v87dv3+OTWDe7cibStay2DJDhZw6sMD1cr/uLRr/nVk8c8PTnlwG5zjJJFScWlJdiVmqTfhtgWX7cNSoWIu4TIPdkCmcKcW+JiYzWzSzYrVDhTt8+uTFNeZev9t7cfM2aJxnpmuedWUG6HyL3FknvNjE/2bnAzjqyvU9XlRYYXh6d07Yyvjk758tVLnh0fcyzGibqVuxEp4LkdRQtm3I0N37tzhz+YL9nbJPYRwqzFyLQIocQ2eoVnxytOTlbsLfdYJePUjKdHxzw6OOAw9RyJcapCsh7L0FlmkTLf2dvjuzdvcCPCQnztfp0YiOBrOokrYcFgDawDfH644S8fP+IhmZ4MBM++c2xAtBApUuMgXvvhXHiFbLFaREO74SngyvBvMLiR4FNTHsSWuXybqTffvFxtAJmsRaV0JgRutYG9EGg2G5IZrmLYABrThe8cOTaYsyJeja4BcsrFrzxOidfNb8NdUp0ZHzaBz27e5I8+vM+f3L/Nnyzgbnv2gRiwCbCewwlwuOz4kzs/4OePl/z0q8f8v4+Un58IKzVSlCHLJXDV4x+7N/fbw2UNi44eJ8/IkpJx41CSJxZHPqMRuzVat5EaJN7+jEz+PXv9b/PQrLiTEvOcWPZrPlvs88M7d7kTW+7FljsSWOAM1PXwAvTAhwqbGzMi8KyZ8XA24+HxIZ8fHvD5+sTPYIAE+h21Oppxo8/80f5Nvg/sxchycHupW0LlGxvgeNGRZx2N+u8r4GBxg4fLPR6dHvP58Sserk/pzZNOOjMW2fhAO74/g/sKe/i6Pe8Jn2cEVOlx0GjLOJwInAIaGh4iPLbsNUBD5pXHIlUDY3jIn6AGIwS2ige3XhUX4Zb70hxwlynzMcq9KHRSeL+uiHZ3tQFkRyIww91Yc1E6o9QJT/NgzlnIBkNJkAohJEIwspZ0XhvC4+ecteglYgSEJhtLCfzx/bv80w/u8Hc+avgkwAc4wNm4//i3xasJkvhCugXcA358/0Me3bmHLDecfnnML549wfLY5kwmP3bmnmpx3MUkfONRRp/4+O2LM4rOfHuygU2/c9E2qW/4++hKGX+34ZtTM/Jslt3YtXpX66+sq7b1tg0MrZXNdzpHitOlAM2ZDcHOAsfuPfihamIF5/rRzx7BqK1URY07KN+b7fHj/Tv80fwWe/gcb4pnbdr616C0X2agOmkD3FjC/eUeN+Yz0pOHfLk6RVQ4wcg6vV+jRdjbJB4Ad8u5OoN1mad1s5ZyDdVyEPM5bMAdhXt7yoO9PfaPGuzZY/p1cQBmo82wRNnLcFNh32Bh51sgrwsvnQq8KtfUZsjqsZ6Ak/iLKWIBywFLAevx2p8tJiIPosdCohi0WB0ijFOmqgQyIIMri77nzAWWwQuZr0rwvMrVBpBzPAIR6ASWQVkAR2ak4ifejR5Otx4VpbKfOSMn9GvKxmgTnPCwtpmSzV1LlTc8ktjvV3yqwj/78B7/6uPAXYB1aXglbmL36tpTnWx1PtdEgLoo90Pkx9+L/Nc052dPv2J0VEyufrop2djqtQbdt+9zG0Snm1jVuM5aaBeIVfvNV7iZITpu4TVoW33gjY2pyIYMm81wrgGNSiDXCtHl0Ne6ulvKxj5cY73HKV/yDoAM6atTWCrapuHgUcAik0G9dznkwX9PZjJHpmO5PSbDVW5VtTMQElqZY8Z4qOr7r+1Ttd/QSqaRzGeLff7BrTt8OF9wl1KkVvAzK6xFSCZscqYNlWnYN9FoELODQKvQ7UU03Sc+f8rP85rTOqcnmoCacXu5ZIZbBa05gBiwSXBq5f6U4Vz16Zh5Ov28vKdAWHZIvk06OKLfJFJJH+uDsAmu4K3F4zsy/V459wC85Rp6A6LPrdppZY2PxQr/yQmiOoyYRcwiKSk5GVgYZkjl0RQxYhRiI2hBXyvPcGpP1nv0ueTPKlpmoYHbMXgXQtmefZddrjaAwJmnpUAXYS9E9kRKAFEJuYTR5QyOlE0QLyRzNQlV93w55QHUrSpaAHMN0ad5psdQEi1r/kB7/vWD2/yzPeWTTcnQaP3UpwI/6+HL9YrjpqXLvsiPj4/Yn894MI/cwuM4HWAJHj6DL1+9nKQK122mXNGgNVffvO8uQkAtjOA3vdfyI5JLyuKoTZ/VqmXr/bp9S+k5LmUMjOw59sUF0Aus1YO1wWDeQ1eQciN4wBohiX/H02kLFbs5aHhvc29e69HtAKalVmY3I81oLJ1ZvDX0kUVKIsUIOIq7BMUyjSrtrCF2QgrHiPSe4WQRtVCo4KEkyHqGkVS4Khu/1Nam5oWKflnl8uonGa0d87HybCRPH42WiKfHfLrc47M7H/Dj+T7fbyOt+txe4Zp+rx4POwJOMhydGou5z1kBlgb3BOYGM4N5dtfW7WVHsPv86vArNpvNACCDq0aM50evWPNhKbh08N8AfYbTxpWfowQnq0TTBppiGHfATWCJK0KDS3l/yYs+8+jVS9aSOQnK0074yxW8bP0aW/MhklyyKRN82sF+GK2bXuBlD6vka+kwQd+UTT3DOsFpDy+PDgkayAQykT5HNr3QZ0+CHpIfajxLKQF0fO1oTa3fXgW1NHFQdiwRLLMvyn2NDpyv1boun1x9ANkRBWYKyxhZiHJAGhb3oPHasGomUjdVPBOrDaS1sO5HPVnwTU1FyIVcUQuNgWIEem7NIj/64C4fLoVF+VICngj8+bNT/sOjL/j58TEPNz1dctNbUs9H9+7x3Q8+4EE35/v7wg2Fx0fw8ycHHB6/qr1Zh6utQXufqx7qry1cVVyTFJsWvvnFWMkmsMyQ6unjVokix+OP4+LvqDoJ4dY5yI505qmmvSV6LdaIGNmUYM4VBOMmXrdhv85pwqeT2I1ZDzV/qHaNFMSMKGmw/EYt8SwMjkV1GZV6jIkNYxDMwaJJ0CVhkTOBVHpa5wKS5epkenQ/TqC4L8XngZb3Pa3Uz5at3HtJId55KlSe52iZGzFwu2n4IDbcC5HbzjrOCgeMI+DlGh6v4ZevnnN0ekyyhGostBzG/RD503sP+LiFm2W6Z3xuz2422IliPUNK6xhQLopUXRGDleQg8pODU37x6gWv1ms2ZqgGVA2s5wcf3OcP5nt8goPJDN+AAvBRN+PByQmP+hUrjF+9fMoLaXisHU0MhOApwpJ7OowHIaBxwSfBg+wZB5EDg1+9POWL42NeWUZmXbVZyZbY9BuOT1e8yIZJAAvkHOh7t0x2tUfDzZwQgJJAcR6Fe8UMEUrtTbGSBJYxsFShuWLWB7ynABKBvbZlHgKh78eWtNWNgJzvVy2EcU0U2kZY18q9SVHSuROkuGkCmTu3bnP/gxvMA4M2cgr8lyP4X//6Z/z7L3/NQTfjZWxoemiTENYbbp8+5ebTY7578zY//uAj7i7hyy83/MXnX3KQNkN++niX9QS1gDGhloniGVoxQNCAypgaWeMvORubPpGyb3dmrs33eEOm0dbRqa2DWiZYIpR4T4xC1AJeBjfnc45XJxzZhuO08WKuHBHzadiXamSjWhqucTeWiObXnwV6DfSqrErgFckjXUiGKJlgG5QeJaGFpnujSi9a2hlrAQ8H+khPsM1QNwHFKjEItqHNmXnO7PWB270OzsJehF6FJO52S+rjo7g/X7IR8Y2kE2iCEMo8MStWlsE6ZdbZm14h4q6YYg1Xt0iFzBuLObcWM24t5uwpzBKcBrfcngFfnMAvnjznl6tDfpVOQAqXU14NFBz3DfSFYDfv0TR+P2vgl8CvTldsyNUoYsoNLwhRgidplJ86YCvgv758xp+/fEbfNlhQJIGljOSeJ8+/4tHJK/7xzXt8NzSDK00SfDJr+OFij/Vqw1ep5/npMa8yvEjKJgY2TXDNP/c0acN3u5b5HOYs6CZjdAz8zcFzfvLqJcdtw2oVhkzJ6gbMJvQEkkXISu4h9yAWqCy87lgQkFoDYkit9+H1HLwVTAJGJ7BoAl3UK8kK8d4CyH7XsAwNaivcNC+L1MaFOtoWMGix4u4Z58QqgCPsKiRbMmpvwmw2o22GXwGfkj958py/evGSp9ryKnYcxIZWAq0qTTAOU+bLV2serV/yi6OeeWg5enXMV6dr995o0a8nTI8Ro82JJq9p05qbbeR2jNyfz/j4xk3uL5bM5i1CJuVM6jObTebJesXfvHzOk4MTDtaZQ2k41UBWGywEKy4zT0vOxLRmTmY/CrdD4IP5jI9u3uTeYsF81qBkbi0aDjc9TzYn/OzZE3558Jynx6ccpYZTWbIislEjWM/MEh/OZ/zw/l3uWM8srVFLrILyKBn/7auv+Cr1RFOydSRzirpgiYUkPrt3m+/vd9xcHaEEeiKPkvE3Lw74crVmFSKnKNGMkDd8sGz4u59+wq3TQ4IJfZxzZImHL59z8vI5ywCf7c/5zq09Pr27R5bMWuHhZsPnx6e87NeYGkjvvGvZWGTYt8B+27IfI9/Zv8WiWLFjfMBrI746PuLx8TEvjo85JnMcYYWwEbc9srg1Fg0e3LjJR8sb3I2Bmbk+vMIDxr84gb86eMkvTg54kdYcqxJDLBo8bqmReZ4Tf3ZyRK+R1c07SIbDlPir1RE/XZ2wZmxTNc6oMp9Fz7wHvukebXpORCF2mFYXaQJVHm42rE9P+Th0fHDzDnNGi/iOwoNuwc94iWAkFdZibPAK95xds1fLJMu8Wp9y3Pe+nU8uolc4scypKqchcFJScsd2Vgaq7r7KQs6wOu1ZrxgsyWqF+u2bx3OCFRp3K7VW2wt+wJvJeypKozBrO9oYr5z1Ae8DgOz4HIWxR/oiNgQr6bjRo3416Ev1kpwjvgHUbAwYVbU3XIplcs7kHbBJwLOVm9XHTccrbVhpZG0NLQFVTx0OBkfZePTqBM3HrsFrJHC2hZWJb+5d6rmRVnyy7PjxRx/y2f4ef3hzxncXcD9AVPBNDPoe+g18bgv+y+Gcnz1+yc9fHPNXhyseFfrqMWTtGl1jmXm/Zt96vrM/50cf3Cvn6PjuHO6Wc3hqAayJvGCfzz/a57+/2OcvH7/ivz8+5m9eJlbaksRdPp0lPp61/NOPb/J3b8GdMsLPgX/35YovHj/kKxJqEbWWtUQyirJmIYk/vHuLf/3ZnB/lO4jBqcKfHcC/+W8bXp6cFuqNSJQN0TZ80HX8T5/t8adxj5jgMLgm/x9/tuZlf8jHt27w9z58wIezGff2hI26tvsXq8zzzWNe9mt665GcCGa0KfNBs+B7ixvcmc2513Z8fy7s2TiHqmTg8WKPL072ePjqgC9ODvl1f1ymlltZVgL20eDOfI97sxk38QW8wVNUnwM/efmEvzo+5HHI9BJQEzIBzVX/9Xr7AxWOxehPDjnVgIjwcnXKz/OKAyiFfmdjXoYDyLgYtv/Yi7AualrO4x9FwaLxPPd8eXjI0c077JfrD+rurL3yezKjV2UNbFRHKCtB6yRCbQpcr6GeKQEpBFKMrFXZqDjFypAy5XEcMW8ilhNY8jW/VZ1TQB71lP3aUXIgpblIYZyAT0BoVZm1LU28eu4reB8AZEdqsKsLMI9KG8R97BlEdbQ8Jk979EhPwtNC4cYZyBG4eFaNx6k1JdNPNsD3797iky9bnh8c0ZthuaXLmcYivSgmblwPkZqKczKNR0zu0aDNmb205rNZyz/59BP+8Q9v81H09MsbeCA159F1pQrSFW2wnfHFcsZPXhnxi0ecPnvOaeoRKR59y0RR5jlxI/f8YNHyT777KX//D5Z8FMZzzMs5aiQiqQdO7wI/unWPX926x7+fH/Fv/vzn/HJ9QmgCwTIz8+vbz/Ax8KB8fw7spYTbNNFpXPDFHjBiCMwD7EfhjsAHJYB7Ajy4Bev1ERs1knjmXRShC4FlVG6UdOp5cHeOGnzer/juvdv8rU8/4U9uKPMe6OEkeFC1y8XpYa4hN/2GpRh3mpYf3LrB3719m30YfpoxiLQ1Lx4o7C3hwfwGt08W2POHfHlyjJpwYkYqFB+NeV/tNkNTfP/HEQ6BFxv44uAFh7ibr5CmQZISMnIt3MwwNdaSeZTW9IcvUFVOU+K5GGukdGaUrWRoqT61Mt92Z7tZqdyuzZkGtaYn5x7rN6T1il5m1Kaw+FV6zYjCibrVBUo0d33WVTeJxni2o2jh+xonvjtvpYQEvThw12Kox8kGm76n78OE/2qSSK6Z0GTaTgjB3FXqYXbeJGpGsExHZB6agTzxqsnVB5BznnWgMPM2DU1Q2PSoRjIeBC79xrYWyDiBHTRiDGhwrVykMp3693Tyn5RcHg/TCj065MzXw7UCf3x3xh/d2Ofo6JhF3vC8N0LugchJUDYoakp1HniVtJArVYOrS4gpQQKK0q4PuR/hX3z/u/z9Bzf5cfQNuMPTN5NlNpbpLdOnREBZth37wFLh9hLuzoXT8IATTRw/e87zPmNEGg2EZDSbFR8vW/7Rdz/hHzxY8qMwZokFA8tp4EBKxdqJeAJBxOta5p8sebX6Hv/2y6dYb5ycHBNEaVGW4prpfhmuQ6C1TPAoSYnDiKdhY0RRZhH21LN9FpPn1wCWe3fFyZgZ1YTALAYWUjJ88HMyh8Pb+8zbyP2g3DTYj/DipCQJaPGsZ1coGuBujNxT5eP5ku/PlnynjEVT5k9WSBODVcyBapZLcodCu4xs7A4Y/Pr0hLUZSQNRAp2MqbOtgZWU76MMz1anHPQbVrEZxmUwkIuCUJdED/RmHAps8tr7ngCrss0FoKar1hGsG++YWDHGQAyILUgoCQUTRt1acCmWmTUNi8ViKDZU/P6PBV6mDSdkevUxVdSBTDy5wAFizBP0FUahEyprWz1FV6nZVDV2M8pwBBNSbwON+7DFi1+1SEKjERpwBu6iSl5QeFIVz6rARYNliCyiXllmiKsPIOfIUJXetsSgSFZMBSmMthcREooYlj1FN0QlRiWEol5PJmUoG0TVe5wVNLGh4eHhKX/5DD697xQHSCKq8pkI/8uf/oh/+f3P+A+f/4qfnp7w9GjF09MVzzAOs5GzYuYWQJbARj3IncVzvLBItIaYhdbggzbyz3/4gP/5D2965kvv62AjcBDhBcpX2fji5QGxidyZLfhY4T5wS+FG2aj+xxvCwcGMv3665qvjDd18QbRAkxNLS3x3f87f+egm353DbYo2iadVbkIYcvFfWcas54403GOsMP5M4H/4wZJfLxf8/GcPOT09cUdLgBD8WbU2DnMS18gHBtlBV3bAjgYzMzqgJWP4AibBvIvo6cYDsiUSvul7TldrjtaQWr9+BW4I/PNPb2PATHyxPDJ42cAqulXz+PCQo+NjLHgs6GNt+Pv3HvDj/T3u4BlOK/FEiecJDlLmsF+xyQkRZRkb9kPD/ejjvWcOfpu44FW34knKHGxWg+uojQ2f7i9Z4kpA8Ntik+DzZ8+cgqTQ0G+VtopbSF5NrUSFoI4s/RDtkwEUNFfSQZsEGYotoOqJASXNPEt55hmenxwhbU1lB8+a8yB+F1qWMTCbdwg+ng2gCXKEkyieGAFYNgiFbbq6heqqtNLUbQpwNnELCkNdzVAZNVhO4ndpASOCKamQKFpZ+H5stzasKApstWU4K/Uvm5ImvUgwD5G7yz1arqb1Ae8pgIh5Rsxeoyy7liZtWMnYHgbGIPpUfIm5KSvqxYSxES9ASjZE3X2aujWgppgoiUCWyMOjU/78yXP+cHmbex10BDQb++LFXDduNnx28/s8BJ6v4EWf+OWrl/z6+QueHRxzuDFerHtebRLHOXMsyqokigKQDc3GXJW/de8O//Dje9zF8+9D3fQM/r+HR/y7X37BT18948n6mK7ruNV0/L2PPuFffPyAf7QU9gQWJD6MgR/s7fPJ3j6PTo/YmBCzsQB+dP8u//KPv8ff2ndrIvewCvBU4Kev1vzi4IiXL19yuDrhYH3MnZt7fPbgHp/t3eQPG69rOQC+PIYvnj3meLNy4MGZXKtbomqiMLrtTNz14FpfdYh4sDJYHlJEzaMA/n6xFr09rW9uTWyYty17rX++doyrrZCPgIc9PF3DocFh9oLPlcDTzZoNXigZc+bD2ZwHRO4aLDOE7IVwLxX+7OkznpA46NcDgOyHyA2N/IN791io18LMMtxTeDBbcDv1PE89p0CUQBTb6icRJhtn7amRC3RElJlqYbgFTQlZbwpjbvK0bNl17wSyKBIbNmr0k4CdWC61DqWqvXIRFoXr+GRDS2ZuQj+ATrE+Nol5n51mpemYM6HbMZ+XL1crTnPCEIIGUh4p5Wsh6JiIXVzCsBVTrNn3nswmA9flSFTkDNZYRGg8Xb03z8KaWDcOID2q6nT9Z9J3z9oTtVeP402mi5H9tqXTq1eBXuW9BBDwTWI/wM2mZaGn7mfG3HwuboVaCFZl7Lng5m2IRmyEtPFJeDHslBwQCTztN/z5y5f86NWC+7Hj0wiz7JrfvLoxBD4Q14b7LrBe3uGr23d4errh5wev+OuXL/n1iyMeHW/4dd7wAmNDcWeVzXQRW354+xZ/tHTqkw7Xgh8B//eT5/xvP33If3phPJcFp3GJ9UZzmvlpOiZ0J/zBcuGuPg3MBT7cb/l0/y4/e2k87o2QMre7yJ98dI8f7buLaQ+w6BvuX572/O8//RX/8auXvDx85Vlb/Zp7L074+MUJP7634tX3PuZBhK+O4T99/pSfPXrEaZ7hdyCD2+Ks3ufVFZlILpp1rU73zXR8DruLVkS2NgopTsbWjDmF6oZEQ8+GjiPgV+vMf/7yMT95+YqT0CCxRZtAIvOKDetSgB4NPlzsc6+dMSt4dgI82xi/zhv+7NVLHopx0Pesc0ZF2AuBW6LcXt7k5rJxKnb1tgP3uo4P1jO+kBMOSopAJG+l0BbPXfH1M4yb35NwQyK35zP2m8g8b4jW48RPo4tpOsI5C8ciPDQHro2N8FJjEn02NnjdRYVtAaJl7sbA0ekxOTS+jqTUvfQ9ny4W/HC+zx/Mltwqa9AtSni1Sjw/PmKdMlljaQNbYoYyAQ4ZMyaHq66KBXUcihVTI+FDvZOCKUbEciCnWMAjF0Apc0IMSIhmYiPESCmqLS2K7WJ7oh4jAK0Kc9UrSWFS5f0DkIn/di5wq5sxe3VAI8LacmEglXOetk3+7z+eHYX3hRioKWRiS5ffTTBRTAKHZP765JT/6+ETyHf4e3fnfL/zzbe6vgKFPG4y8R50cNo1fO/mHX5w7xa/fnHAL14c8H9+/pjUG4f0rERIapAT+7OOT2/tcQ/fFKsp/6KHv/jiET99+oJDvQ3R3XjeUTHx+HDFX3/+JS/ufsKD5Wzw7d+bwcd7t7nRHPAkbQjSc3e54Ad3l3yEA0jAQerxJvPvf/5L/uOXz/hl32HtbaeDaHu+7Dc8f3bMi/SCp7LgZrfk6fMX/MXzJzw9XrEJrY+jjsN38aPcJSs81/G4dRgpm4q7N5Jro4jbcOaUGbG4xFYYn296/p9fP+T/+MnPeBJn6HKPW3uZBgXJ9GolKO9nv7PcZ6keLDcp7sL1iqfrY1Y5e52LBFAtRYOe8fT45Uteze5xs7jKGimtB5qOVhXJNoDf1hhUd6lRKtfHroJqTndyN0Y+uzHnfpgP6YwNXQAAIABJREFUnFLCxUP7QuE/H53AqwPSauUxO/FIRi+wssSpgQU3vKvV9uGNjj9e3eTBYk5fMrsCyrJpWcaGWyFwt4ncLnPSynw5DnDY9xxXclPRbUVfxpdYsSpUQLY38qlFspXpWAmzrBwlK5YD/UZIvWDZrZLxVO5liBG6LhDjFK4udmOBswwEy7TiLtSZCq1cLQr3qbx/AFJE8YDpQpQZQixazm6KrYvtvPapWn27Z5jwzj2b554fq/Eq9fzbJy94dHjMTw/u8Q/v3+ZvL+B2hK4pPEVANf9D9s2tDdHp6OfKD+e3+PLWnBMi/ZND/urFU2gySRMqmZn2LPCFWksKAY7W8OS0R7sly7jc0iK1BW1A2NAn1+LUfJzuKNyJQux7sqwJkrg1C9yfebZV3RDWwBcvD/hvj5/yaKO8am4Ul1FGbYXYhiPJvDrJ/OzXD70ZUd9zYsY6zjDUs+Kmbon6/53hfd0m+Cbx2mQbvP5iNtESE9iGU5nxi+MT/vPT5/zX1YaTbp/lbIbMWjot3Lxig6VqwO0WuuSuq1Qsk9Pcc7g69UZJGmAoZoQuZ7qcWfVrjjOkwuNUg7CtQbggn7zuiZWqI09iFUaiFkneUuOHM/gEJybcHdddeSzwMLY8yXCYDAtCVil0IUZSj02MtB0+x24Bf3rvHkl8HkDpwVN+Iu4JkuzB7mPgwBKPV6c822w4zYneSri+0KVv3/D4zHPKJBs7PW7dS4mPpWxlnCdoZA4WlpS08SZSZEEtjKm7ZEQzIVixPt6ufa3T1GQasrvI28iNmTMUX8dArpgMABIie7Ghsw2acwlIMzhTx4lZp1Axh8XpFbzdZa0JGR31ruE6RYfhGSNilQtJOMg9Pzk85dnpCf/9+VO+M498794tPrlzgwcz5QN1RtI5HlStWTyCxzNuAne7jic/+pgn85f88uApa0tgAQ1CN2swLRxF+INu8UX+J7f3+WhhpDhje+m55vXDpuGDNrJktIoGz5CsEeudCyy6pjf1R6+BL0+OeHryiiwNDQ0hew1IqC4AYJMTm9M0DNlaPNMom7czPbNgt9wWJcNIdrYO839q7tu27TE9kNZIqX/JkicnDIdTEK9gfnF8ysuTNTnMyKZEAovk+mqvnq6J5WGH2ODd+YyxvuH2YsbHktlvOk5VORGZAIgxy8aeKjeakuabS2BcYKWeYSe5EHSWcd4N6Yp5TKLGiwRIGCvJJGyY720eYwQVAIbtVfxWRCoNTY0cTPihEDQGekaywmbysyc+3zblb/U6N3W0wzhXnv3/7L35k2TXdef3OXd5L7faeu8GGiRFSuSMpAnJIWs8doTD86P/ZUdM2I6ZCMsOeWJMDjUiRQIkADbQ6KX2ysz33r3HP5x7M7OqqxeCLQpA5RdRqKquXF/ee8/2Pd+Te75czvnNyTG/7hIvu0RyV44kXb+2+qsZh0xK6dJ1UCwoEQdZcnERqoNUUpfiVpMHh17JyZKYlxWnbQhUCJS9nct0yqqXt97nV1+sL+SNccrshcheieC/q7jxBmQnCvttyxeLHqeVeWG+6CV1EKBaFNUEMiDO44NJdvSuFCOl5lEFhy/efyoyH65MPMt0CIcCJ5r5cjHn/3n2kgeHX/HB3g4fTUY89MLDvRm3m8gHowm3Y2TXW29EW3bmDPhhA//6/h6/+GKfXx6dImS897TjBt+uN3F9v48m8G+/9xFDSuxMwqUCdT2gp0NiX6QsfDNKRmJZItIjkmiahvGkxfn1/QbgK+DMgUxaRkFQp/ikSBbzGsEERtQOOC1phYRe2cRQ27Vr5mFtQKSk93Q1n4GauinCFZuGfPM7lwxLSW3UGlV5fONsWa9C5zy5GTM4awAN4qz7RIvAY+mOFmcCJavD3VEeBfbbgPoZ7Y5RdJZuHfW1akbjdN6Zwa6vVaw20DuLBEWtazrl9eF8yYBgxj6o9bbkIgnTk+lLRGCNeWVN1Ouay33l8rXyJRl2adRtuYWTdfe7U3sPvuZIhRXrKJc1sQCOy+OmHnoyOTqezOf8bnHBr8/P+O08ceIaJNoIrMvRx+WBBFkEraqQbCaVq3HKxUDqynhUx0AL20rV0Q9KSuv1VLe7iuI8xMYRfL1Im8/welQG4H6I3BmNVhMIv6u4cQakHlJ1Nsi+h4c7Mz4+PyZoZllpIVlfybFuukNOMq5xkANDB/OLtMqtW0+rK/4PRVRRcTrQp0Qu7rs6pVfolj2NtDw9yxzOT/mFPyNKxruvGCH81d1H/Gh3h3/z4S4/ifCo5MnJ8BHw78bwyQcf8PnxL1gUzxHvGHKdd7LGCHjUCr0G80jt7bBRZjTxOqwYLs6zSCUloeByQlRJKTFoputB49qrfJHhsFNwLTklUjK5fFRwPpIyK+HAoqNrDXjqcMkKnK6w3Eyxd+1xV8S2MTkZUjlQFLS2j2XLj9fDjmoUKBLwNXWl5ZCy2/WSWUqN2DKBgSWel/PEV2dzLrSkOL1w7oVGFK8Jh5Y6gHB3/xbdAE24nG7bA0Jwqwgyrf9k42YFxtNmPaeDMkvDK6OJEoPie0E10w2ZJdAXo197O/Yn8OHtO3z24qn19niHT9Yl+unZMfNuwYe7u4ykPOkwwLLjwzjiTyYNo7g+QE/OlMXFOcu+p5cN+Rq1Du5d75j0yiQKrS17MxLZ0l2nmHGphm4ovy8UzhVOuszJ+YJPvnrOhVPO8XRtNAFSUXPQNvacspbVrwahR7lYzOl2ppdSWCmB5lSK7dV1spVQ9dsoGmddn0jJsRLK33ggFyyKd6E0CmuNPngN7NEbYIzj0c4eD3bGNpeeyyWd15mgr5uO/ZfEjTMgsM6ZRmxz78fAXoy8TAPnpfd2PT9i0/cpEECsLTDEQIxWUBVXm5LKTdSt8uq109UXhgziUBdYpMFKuRJZAPNS2rViq9Evn/3uGb98dsinp7ssPnrIzn7kQM3nnw6RDwI8nE44mIw5PluYQJzAzo41xdV3UI3JAjhawmhkUUyLeYi19lJfc5WOm3tr4Hs6H+jUIyRSVgZgOlmn1xxmc/tBTMmVgA8jBE9KypALO0axkaBih78DXMqEwjGybKB1Q9fhPjU6OOthvlgC4MVmXNsUxlDSaQmRzWVd9W5rBzOsOkhWisvWle6kfrwKakyjeXbM8SyBiN2o966MSbUDVXK2LnHnmAa75qqZJG51DRdqdN7NSGdzdVXa8BwzKAgckjjOHX1ZfoMqXdbV4VzTUFI+Nz9k8nxJHDdk51DNDEl5urzg6cUJv744wou975iViQrL8S73x3dXn7sTGDXCJI+IiwuGrisRSEloqXJ+dMTk3v2VlhViBuLYCT//8kuezOcsQktfzHVSixoW2Ejbsz4zR5n7hl4yyQV8LunAzR1ap/+pGqOqRJlWthDbe+V6rqRDs117Y2KZ+6CrMNaVXg9nGlid9XC9UmpRxQeHC1IibH217+QaCGb4JyJMxWjwV+sfr4thvo3GA26oAQE7SHz5gGcCuy4wsmxo6QepX1c/2noEFG9XMi6A98owlMcui91veDY9wrm3lEurShM8EmxoTpeTEU/UUg+DWKpBi/d9GuA3F6csPzvmXgt/sf8RLsCe5lV9Y+KEifdGP84mk15zz6PyNuYK/3QO/+npV3xydIHODogukYclySVG3rPjIs4HThc9nQQ6At1CGVzk89MTXg7BAjQgybpJcJShdaU2M9tjHA5ZHp1zERJtG/HeMQydHQZqekT1RLdDVm3jk4mqRIRRgslg769+EiEa80fEoaknuUz2JmthxiKXY+ttghNSIsmiTKBl7oSALx5wFhjEMYinpzTubQgJwtrYeqz5blT/XTOIY6lWlP6HFyd8KUvmjZTGvboOpTxGqY+pICnjcubYCU/JHA2QcWW4kthgJDXhwHrwDz2cHp+sDqtObV57dnatCIFFTubcCLQIC+94SeYosxpF67AIqhrHVNJ7m955iBHn19FdKuvsTODjYc6vu3Mu8sAglgjLpe6SxCjAGU92zphrZa+suCj1s+FyyrL+WzX6wTmaOghM15kF5zBlAGTFuEPrmILacCukJAxJkCzroWAbz+k9+KK+ayKK64rQ9ce9/VsjwsQ5dptm5ZxtRiBw+bm+7biRBqTmmJWizOtgP0TG4nA6lI7nt/kE9QDMeO+IjWO5TFwm7FUROCzlJT0jem5L5u54zKgRvjg75eXQk5wn4Sw1QTFTpaCZveNClDPNHC4XzIEFyljW3mfwQhM8dfpfPyT6HlJcvxon8OnTp/xfP/85n3TCUfPcZjU4ZSCRlksOfEPbjLhYdiQJJGnossc1Y5KDZRERUc3MlwsW3S7arDf/GBgNif7snL5LJB+YLzOUYU51RshYMyMvBCekvidlk3lZri6dEWxjyWaoFmorMI0NEUcaMurBu4AXX5oHM40KE1krAly/BrS8FmMq2e9G4620z5pvz9Wt0EKllfrxFwkVZ1Hl0FvDX0+lAtvz//bpS3725AlfjYXFJF7qrRBsZgzldcRsa2axWNLFwLkTsjY4Z/SsTpSz3po1eyz6C8BehA9v3+aTpwtOetMsy6jpqlU3262PrqjYAZwyyyEzlPRQXfZZYK2FuHGAA9E7hi6hjTfjr5ammqPMnXDuYO5llaLU0lu1+nllMot3rqWh8DXYNBJSby+WNqwhWI2YX2VR1lxCjWAcQ6/0fYlbxKOlyXS9VpTYOJyv5rE8qFaD9LpXaWtqtx2xPx4zLp/PerDC5qv6buDGGZBN65/VDr5W4XY7ZnJ+WlImuuENXY8azisJ8Z629cwvMkN69ZaYaaDNS275nn9zsMff/ulj7ozh7z9+xn/57DO+HBIXUvR9xBg1dRaEj4E+Z3IQiGHFfhnMn7L3kjIXFxf2jKqcnZ8xn99FykS2hG262d4e7e4Oy5OO49gyOLE8d3CEESyHjBsyoZ0xbidkdZxnYZEBzXhxxKJff3Z2TteBNPZOs5r8xwe7M25NJ4yXA3NpyFXWO/XG1smJOxF+fHuPe7s7HL885POjBUcaeanmaadyotQUViVcNUAcEiEDgzNBvWzTFX0Wgg7shoZ7k5axrD4p9MqWLYLeiNaWPH6/XS3gxCjHUgoRy+WC+TzD2H5fERhGY/xsxkVecNxZbWfdYU0h9QhRPOMiQTIf+SJnDpmAqENdps/wu+fn3Lk9pW/W9Z0pcH8WOHjZ8HzRM09qUezalynTM8tBNyi7OO7MJkynbhXlmdEsxXb36lkpQBRzVhxlzrmYAelyKmvTnJhcZGQuRxIb6U5l5f2/7kxeD/Jd/ROoaZhZOrhev5LKCuC8Z6WoXT1FAdSh2dF3icVCWQ+HvuY9Boe4ntXEy7cRccX6qJwqu+Mxu2VP1AL65nuUK9+/zbhxBuQqrOgFt8cjdtuGZtFZKgl55dCBteFYTS0UxTubkx4bsbwqUD2eOoswZritmZ9Mp/wvjx/zl3vWbf7wh3d5MAr8758/53fnSwatbBld+T4+DXgVPpxO+HAyYxfYQZgMQi9GG10OiT4pzke89yz7RJfK3lEzSDHAh7sjfrK/y2cXR7yUdfNUypa2cKrMJPGDgxk/vPuQ5emCn7885LlkTvvejoQgOInMu8Qyr4vhIcPUw8Po+ZOdCU9O58yTM+aQKr0K4hyz0PCD3Yb/6YMH/PBO5OLWPv/12YJfzxM/e3HMi37O0sNSXDlA15ttDDyYtOyFwMQP9FhTWKULjdsRH+wf8LjUd3T1Xy1iW2rGLkyd9eeo+fX1EVdrFQkbxqUI3gzOSlfJDpWVzHhS+kHXtZacGDnPo50xd156nsyVuTM6t3nTay98P0TutSMeSEuIgc/OT/hyOedIYEGyCKFEBcshseyhay4z7D4I8NcPHyBPv+SzxQUnWTkPNce/nseIKLe85y927/Anu3vcEruugfVhLGFdsN6EYBpPUdfRb1QjZ4yyI4jDicevZGYK6wlKoyOXvurDV0PwLrBrVqjaGyfz6oAuBn0t4V7ywerJ2dF1ia6rHtr6vqu6mMtl3k9CKY0rrxz/5X5STaPVSaZNy95ozE75TL7ruLEGpCgk4IGJg10HezEyGRyph+5a41E9ieIXqfFCfBRiVJy3BWgbtixxcaaTlIR7k8jfPPqAv7kDHyocZNiJMH18ANMD/vOnL3hxdMj50DEfBlI5p0beMx1N+cu79/jJrTvsAztJIAXE2TS6xQBdEsRHJATm3cDRecd8v2Efs3UBeNDAv/veR3y29Hzxckmfs3mR2aYWjhw8Hkf+5w/v8Jf3x7jFmHvTwC8uzvmHp8856nokNGTxnHWJJ4dLjqct+64YkASPx/Dntw74zfPM0YV5zUtRznSgFeF2E/nzO7f5H+5H7gPuFswmI8Ih/PZszov+gk6UhfPM3bqHgAQjD3dH8OHujDvLzGk30GfIKRFy5nt37vPnH+7w0di8clafl6EW0M0xNaLC2oisPeXq0SKJmsSy8cS16iGsJS3UnA5VzpYD3Y5nrJa2bHDcc8JPbt/iy6865l1H4yN19raIIjnxeOT58WjMj5oZk4nwcw8/O+wYhp7EUCR2LGU07zsuBpt13pcoNTpr6PzBSJDbd9g/OeHT7oLfducbKZxcDGJmH8cPxhMetXadqv6XaKlvldk1V3P+olgXfp9J3oQrETMgY2wCoaj1rZho4boWVdl0q3STrA1J0GvorlIMGhRB0mI8FNP3qhS0jbTvkDENrasPhEOI5ORIQzLtq+xWmWgbHGVGIJPKz1ZHek274sa5oCvViJH3zKJnzKsG5LWR1rcYN9eAbES2jZgUx8PZLvdSR9ctiwG5zoi86oE4Ad84YoMVwyvjr3Y1qe2EduSZTiKTYBtOOpPv/ijA/3oP/mbnNk+ejnh6dMhC8urYu7U749ZkwuP9MY9aC7ytauutQDuHXz49osMxKFwk6LPwd58+4cPJ9/n3t0oEkpUdJ/zVwZj0r37EvSdf8NXRIYOzFIqIY2fc8Oe3bvFv7++x70Bm0Pxoh3v9DnMPP/38Sy6yFXCXWfm73z3ho/0fcGvP3ovLibvi+fcPb7E/3ufvnz7n2fER2dnRvd8Evr+3w99+sMOP7TJxAfgRdC0smyVJlzRd4EXX88sEfwWodpi2Lkwj/PWDEepO+eLZMX1K3L19iw929/nLezv8qz3YW+XFVyajBCmraeslwlg3FYrWFLdnibHMYH2EKrXLxD7TrHnDr88sUH51ccy97g4/aTwTemDBjBE/3p0i7Uf84sVLXlxcMKgx0Lw4JrHhx9MdfjCa8qgtFOe9KcsYOX72lHnXUbhQ9A5epI5PFxdMZhOCM6XgKlezC3x/J+JlxvRcedAGW+fO6is7TcutdsLYOdpR4KKkBQN2iCcpvSZdX+Zo1HW/hneWZtVcpEyCRaHiTYcqb/TI1D1S945FXxupp/KY1yaIasBUIq+1hpntuSoftHkwV4l9KanA1f5D1h37yQZJrfa3KGBS1c3IMZ62KPPVuGQBVEttUykRSV5Ns1YnRLXG34fthLsbEV1F2lhH3yXcXAPCetFF7APfj5E98XxVi2WvhZTHqDOWEz54YuNNIruyQ6Te0miDR6enfPHiOc9273J7bJFPoFCJgR+OYfHRlPkHUxPoKy80OFPqHbEuyiVss386wE+/gs8Oz1iqs3RShh7PP52c83dfPuPDnbv8JMJuFtpsj/Hf7cK96UNOlgdFckMQB21wPJDIw/JOB0yiXc6gm5+TyPRAr44O4Z/Ozvm/v3zB493b/FBgRxxjhccOxrcd39u/x0m3A05oseL2QdNwC5MuvxCbpPd0Dr/+8iuenr2gy5lxdhwuez6eG4U4O5sd7oAHEXYf7PGn90bMF3dwzg7hHRe5J/b+Lga7UKMNL9e83mwjUlFTSC6LwKlbSWyYSpZfp//Uiv9VBVhKdGmHUolm1KKBXxy/5O6s5fbBlAcitJpw2nPLNfxNG3n46D5HS1PwzQJOhGlsuF/WgGOtHOAKJdzljHepMN+E4zzwydkRKUDYnTAr8jdNzsycM/bPrOV+G3DRr2jDDcY0m6pNaHxGoRfXVV09+fI9b3ryG9shBFNh8M6MjZb1mNW8//p8m8bHnLW1ob7ykG/YZZeTR6vkoQjeu1duK4CIXz9XiS5VHZpg6BUtkYdqYX8Z3QAkERrHeBpMgbfETLaXNwtCl5JwCJ6AMFK4Hcfsy2X6bqVye64xlNdnxr41uLEGZFWWK4aiqvPuSqB5109TKHIavc1qaDwhmqeTEtSYW/AMGnl+nvnpFy+YhDH5gxk/HtsBVwcOganx7jtW3u+m51dpkwNwoZmT5cAnLwK/+uw5z8/PmTthEPOUMsLLIfOff/cljycNs+/t8T1nir8xm6f6Iw9p0hTfdr2066JYohzlxO/OHP/42yd8/uKIeRIGb16dqvBiyPz95094PG0ZfzjjsRN7DoU9Z9P9Upn/0JQe78pT6wVOMzxdKL99ccZ/+/RTzl0geU8/wNHZOZ998ZyTh3eYh8hYIeTMrkvMgNvO4SY7gDBnLfPxi/OOF+cdP9pr+aitpsOM0OCWJLcgiZCJxSAIodSpGigUb2umDCpGaaUMGhMhZI/Xehysu6Z74HmC/3Z0wq4D9mY8kpGRDnImiPI9UR631tRmNS63uub1EzgFfnOx5NfHL3mWewaBqMogNvlyIfBce4bujOl5Yn+2Qwiw50x3CWymy71o5shkR2y0bfWNOuDp2Qnz01Py/gE74wmjYqBVLbLYrD1RaiOgLPuOZd9DiKsaTga63iJfLf08iis0XTtsX58Eegv0sj/nCksuF0Xhzb+lxDr1tjFlULNjGIS+g5SMOLGZXBNJeDcQQsCHhA8WfaxeeS2XbBi/mk7Lan1ADcIsRqZ+Te+ur/3a6OM7kM+6mQZEWU8xKxujFiJ3XaB9pQP9KjaD5npsDXjfEoIvU87WN1FA/YjsD/h80fF/fPaMeZ85fLTLR/twR0xyfTNnWvPBijVpDRs/nwFHGV72iZ89+ZLPD0+YO2sQzCu5cmHuA7+dX/AfP31C27Rc3B7x/dZoy46qX1SPRtveVXriEDhGeJ4C//jikH/43Rec+cDgbXKjYFHLhY98fH7O//mbz4nhB/z17ZaPohkoKe/JDulMu/EeFtgckK8y/PJkwX/55DMWEhjEk50nIcyHgefn5/z8xQH373oeOcuz+3L81tefcVxgzZC/mnf8f5/8hoU0hPEDbrUjBGWO0JEt7y6V2WMHeRabo70s1zCKdeEvgM61JPHU5JXU0HLzSCipjE5hGRp+M++Ynl6AC3STEfeCL9fDjqOqUOBXa8kO9LPy/Svgs77jy77jVAQp/T2iShZZSZEc58STxZJfiWcYtTxuPfusU1L1sZvybPW6nwJPu57fnRwjfc9eVuZA40sk4UEL2+8qsghH8wvOcmJBxJVZ3wOlN0WL1EgxHpsp36/nZK+v82YRfjH0nCwXLKdjY7Wx1uAatMxArHscU9ztu0QevOlf6UZ9RkxZu0q3e69Fuj2xqp9prhZ0ZQhXX9lmtIzLOOVaT9p8ByuDUvEdMB5wUw0Ir3oENcS/1UyYxiXa92+559qzytl49z54YowMQxF6K91XRnNsWcgOZ7rkq3nP80+/4ucvD/nJvTv85f0pfzE2WZXgquRG4Y87OBGrE9SD/ePjM37z5XOevDzl2UnHoWYufKTDF1aO9VosxDM0Y/7rRc/ZLz/h49u3+e8/uMePZ6YaO4HCTfIESmSDHWC/XMKvn77kN8+PeHK65KVrOHeeTqyb1xfrOxfP0Ez46fmS019+wsd3bvM3j+7yZzPYD/YclkiwZrwlcAR81sM/Pj/n468O+ex4zmfzxEV2JFcmLnqH98KLxRn/2y9/xcnJAX/z6B6PJ3BLPG3RGRNgmeFzB/94Dv/vFy/56RfPefD9x/zpZMRnWL9ABxxeQNbWev3VPOQkmcHDvHU89/AEu/Zn2OyUkzhjGVqyDDSqBM0kMfq0v3QICNk5usZz7IRPcuD0xTFPzi744e4uHzYND6N1KF/NW6yMxtDz5fEpn88XfJ4yz4G5c5a2XDkk6/v3w8CzQfnZoud58LzYmfF4OuFeWMvrW0eKGYazsn5+t1jy+fEhL4fE/njGi6TssCYrnAJzyeVgls2Xautrd4+z2PAUY7q5cp/zrDYRkfW0SLj6bn8frJ9bobDd7FinbenblrPy3IKt3XO1QV+Dq3GnUfJzUrpFz9AD2ZfGwvJ3LEqITSA2HhhwrtCQV59xpXrXek5d10BWWic8OrjDrL1iLGR97xqRfJdwYw3IamWURVmF7263gZ3o8d2SKgt9mc64aXpMusSKdWk1odAvLbVlkhgUrrsDWjJig6UyLC56Pv/NE37+VcOfHUy5PxszaSMjMXaLw4FznLvEqSZeXpzxcjnn85NDXpzNuegyMXmWzjNgBXubhFg2rghJAqcKnywHjr54ysfHR3x/NuHe3pS96YhZ2zCKnsbbQfziouPJxYJ/enHMFyfnHC4HUnacamBYkyfXtEsnZAmcoHy86Dl88pRfHR3xg9mYO3sz9qct07ZhEjwNcDJPfDVf8MnLEz49PuPwouciCScS6ESRomm1mpUB/Ppiwemnv+Mfnz/jw70J93en7I/HTJoWXWZOzzs+WSz5p5NTPjk543AOF4dL/sNvD/mZCqNsIi5fIXy2FE78hC5HXLL0RCeZT0+P+Y8f93zlz/HqOXcHfKqenx6dcDwkVJylTqCsiPVJUKmqIIgXlgpf9gPHfcfzxYLP50vuxcjDyYSDUcsoBKJziMJFSpx0HcdpzrP5GS/nC05xnIhjIQLerWiw6yVYSAFZOM6JiyFxtFCeLTt+e37B3fGYW6MWL45hMLGqrh847pecpJ7Dbs5xt6RDeakLvuozXy4SIxX6vmfRBj6nZ641elyjd44ny47R2RmHSWh8ACcsEV70HQupI5b6hP3fAAAgAElEQVTfD6q6XD22rQ7kOM2Zz/ue4XTBbwdFnGdAeJZ6TtVUEqwHpJAmSv1jGBTNZQ+rloK4sa5CcPig4AaqhMortVCzZNQUuCkQZEY+MI2BmVuLSb6C75jxABB93YT47zIUVqknCauD6gJLqfyHF0f8p5MzVBxZsZGlrxiQoshb2BgQEL3N+fGE81Pl4mLJ0HlEbDJbJzB3HYMYLTO5BdmbNHrjwdExjoGIsNu0tJmSW88MDCxzz9mwZKGJhRhDKCscdI6QHC+i50KKGOFKHsOsl6tNTpIZeyEMC1xwxLZhFhta8XixMaQX/ZKLTln0jrl4enGMSl75vKQ4KI9vEwAtChNnaSUnytgpYVjac4wadkLLSBytCl3Xc9Enznul01AkV4QlmZ68mnVOSXsJA04Sjc+MpEeHJU3jmTQjxn6E6zLDMnGocKaORRYCwk4IZK/02rObE61m+tjyRZc5anYI2THrB5SBJkLTn/Cw7bg1/x1BWi78XZ6FEV+qg0GRITOOge998ICdUSRqR9TlOhZVaxddOseAgBO8ZqIose9xyyVRhGkzZqcZ0ThTQl6knsWwIKr1sC8QOnEMeJbiWDi/vtaby7c8c03pRIWgSquWKpyGiLjAMluUmVOiT0tUEtkLSWwWuuBw4hgVEsECE2IcMN0tFb9+Lk2giSjCQYjMFjYAKkfTLxsUjl3mHMgubOyZskZYOfDvDlkTRqo5cZppUHZjYJyUZtEjzkbxdmSWIlxQxyI7NLfMz4Xjl5l+EdGhgRRQHM4lxHU0o8zOnme6q0hYgHRkGbg2bpJs8+VRU1MeEvfblr/+8EP+xwiP2KAkl3xX7dd5rRHZFtG/bVh3IDvWg2/uCfzZbIev+sTTxYITcqk/bKatyvdy+EGNMHqatmfoleVyIImCBvurQqMOp54kSsrBqI4iDCmh4lksejQlDuedLUA1n6uIzFv+W4JRYoukwrkozgtDjT6g9jdSu6y0eJKK42JQJEUb47nsecFQ5lKbt2XcfIsAkjNF044VH2BlmK4WLykS2VlgkbJt0EFh2XOo9hw15ZPLdEZ1tURZqjCl9rRpqsGTVeiTklTIycGQObpIOOY2bEmFwfkiQOlIIpwNmZys6IxEPNB3AIF2SNaFXoqjWWFB4Mul8qLbJzgTf5yngSRhJTVil6ke2aw+g83owErI9cC3eoe17Hj6nFkOS06GHl8oqBljdwUB76M5BtTZH+sGxzefu0J20CWlV2WOctItQfor88J19Zop5rlcAjoxem4W0zjucyavPon6fu1+PXDUD1ygNlqlXJeEqUubIJVuzPD4w3zU9cGrK2M9AKfdwDxrmXMPqokBU0dOzqESQBs0t6RkqeacXVEfKM6PZLyHWEfXukxpZmEdZ1y52uWaObUa3F5s+N5sh49iTdm+5j3wmj9+i3EzDchmGrqgsoMa4HHj+V6MLLslF4MdAtkJm41j6weqx6kxXnxc0LSeGDP90ii+WuYth2yNhaIO5wI5Q+9tMwxk010KfkWrXL+yK9g4URbOuDxW2K7GjJXxYLUJSkewCOrX5frrCqVXn6sSyuCaYiDmF5pnacNBMh716zE6mXfBVf96s1RZ54fE1eW4tsCb8ypu6aS+Wrgoj121rEY5seooUDUqqms50wYdTbAs/lDSjzUNYga2MpGqT705V0gpirKyNiBS1o40zep1X2I3FXQbi1JKkjBvWOjNFXd56dr7SGhJJ1pE8XqsF09dJ4KpP1dDIGJp1qszOUBAbOjX0gnL2sgn5Q1vGiu74KtfvrYJKYf15i4opp8eG+plrTxVLdhYUUaMcWiO5BRNNy3XR3Ll3VgWwgchNoILoDKUDvQ3veKq1i00Ihy0LR9Od3hE6e+6fNPvNG6mAYE3frDRwdQ7piEQh2GV+349zIcWSYgbrBYSks2lyD22t0M5hR3qTMHK5lgMG41Wv/8207Vvs+G5X+ezlk7rr7mTq8f1bq/p62B9r6+755y7/uCsh+LlZ9PVaWwaUZt/X3PgLHpTKM1x67kQeu21dDWlt/nc7/SO1q/dAgS7z2bqavU3Nq9W+ay1Pv+7MAg3f6thwkbToOrKuFz/EFfrAm+Jj6rteU/J8uomXbouG6/BiSsEljL7fBCGXkC9Sf2LLw2jPULGefDRW/2DVOPhN2abqgBn4xw7MbLbOCZ8t4dHXYeba0BeAxGLQvZGDTtDT5wvVlLTb17/hfongjjBB9PH0pTIm41n2JjbSrfdeGZqx/rvg3ejSb4fN+iP4Uz9cz1HPWA2D5pNgRP7vXrOYEdBqZPpdQf39XjzxIg33/PS6y3fr5qDt6ezfv/n+n1u9bXf3XsyHvAu61xxUqYPZqHvMmlQmwZa085SNNFcBgHvPc7XF/r2+MOLHZ6tc8xCYOzt3NjU4r4JeJu7ciMxAg7ahlnTEMVy92sZhdfDDqcErupjmSS0aiqprFeXpYgUVVd5h0hni5sO2fjaYhO1pikbPztyUoY+kXpdD49SUM2IyziXzdnzNvv8bVvQlRkyRldRxt4zjZFWLjeD3hTctPf7TojAzMPMB2LONM4mA/pL/v51sBSHE5snEBtwrixU2Yz8N46AS5HI9lj4ZkFe8/WH4w9xyLer5SrWtTIR+zLjITb7Y5nJAyYYqpU4YAYjRkfTOFwo4omXYs1LDIQyKtmCFK8wEscsRGY+MObVWs1NwNaAXAOPsSl2YsMsRFrEIhFqk971m1co9cTC6ojRESJlolmuVcvL91Z9S8C8xR8f1Yt91XisftKvb1rex6e9NSIVlz+BNWHE5ORTcgwD5ORRm4W7SliKQAhiw6NcZj37Q9YP/Zpn9KqMxbHXtOw4v5o8eNOwrYFcg0rpvR2Fh5Mp5/NzFqrWD1IKrxs8ljXERtySBfHQtA3Lhf27auWOl+Mpe4JGYobOCRc+k96Rr7TFPxfWOfT17/WrHCx62Yhcd/d3MRDvakTeZCDqq7rZ2IwYcqEPOwRP6gPnZ8LQR/Rq97ko4jKh8YTocT6hMpgCb33MK6yyNX1X8VmZOuFW07AfhTFbA7JFQe1K33NwOzQ8dUtOU8dFEbMzI3Ld1raWRC1/btoRsVHEpWJAMk5d6YfwqJhSqHPWZJjfZ6Vxi6+HjUPGDpAqYbkRhehr6mEbzuv7MCLb6OJdUYxH5WeJM+mcTjg/FTzt2tgrxRJkXFGOcJ4N7avNgXDrn6rUv0MRzTSiTBCmwF54Vb79puAmvue3ogoNjgQm3jHxjiabvPZVOqih0DrR0jNg8gihgRCx2cqrzvKrlFFWj7n1KL9JuEpVXRdpN73RSzf547ywLa7Fem9pcdDSAKi3HlldR4wiGecSMUKM4LxlDi5FH9c9vhpp3iuMnOf2eMzdaWQHczhvIrY1kGtQi2ENsNNEptHTCCtZ7+txefGJZMTZmFvvi8ezSRRZPdfmL1uf85uB11Q3dP15vf+y+hZ/GDaL3sIwKGkAwW9Qs+tnZTJEbevwAURM8P6tLoAq5Gz1D+e5M5uxJ5bujldfwg3B1oBcg3ooBGAaPdPY0CAWgeQ3r5CqAGr1kAHvM+OJJ4QyZ9lthMZaaIUlar6JsmRbbPH1cR3JwdhXmj05l3K51vHElDJWRjyE6PFBeCfjsfGMAdMa2w2BEaxmsNw04wFbA3I9SrhrCwVmMTISMVltkToB9QrKP27KXeiAD5l25GhGjpQ7NKdL96myFasxnPqGHPsW/+K4gWfENxQbhkMcImXAl0Zy8hwdzplfDOjV+eiScT7TNIILCedSaSZ8G4FFiwJ1Eat0wtRdHgZ3E7GtgbwBARg72G0Csxhoe8dyJWdxVRWqpjnK4e8dqgnnPU3rWS6zNRXi0bTRr1py6079hgyFbkhL6ErqZItvBipJYjNgfHPn8usfZ4uvgw33Sta1Q1WHo2HoPYvzgTwU9d6NgWkimRCV2CohDqVLeNgonl+HOt1ECQp7TcOd8Zipv2I8bqA7vjUg10HWhfQp8KD1vBzPOOkTXb/k/A0H+rrILiAmcx4aoWmEEKHPVn1VsIK7WBzSZA8Ekgxkya8s522vyB8TV4VLNhPoRuXOujkyqdxKXp8G/zoF983bvO7+N3dVXJahsRk4nuVSOTvtre8ju6oAh/VhJVzIjMbKaAI+FoZk0R1+oxOg1kg8dsLD0YTH09lq9vlNxtaAXIPq31QDch+4mEw57QYOuyUvNMPbROvUpNClfMUm0IysMzbntbhSlUkf5YhjoHODSbyJmFaPlNrINp/1R8amKdCS4liL7Ok1keE/Rw31Vc7e5b/dTGyQVWpboIITz3KRuThLaBohuiGKKTb3I7RKM4LQmDFB8qqZ9+r1rP8i5e9OMztNy+PpjA9b2OPyGOqbiK0BuQ5lJQWA4mXstrAbG2KJmS+3nMkrO12R4qVmxGd8VGIDPmTSMAAe1ZrK8jgcXj0eTyaTawrrTSfIFv+8EEBrLFjMhpShwZJfIT1c21z6HnCdobi5xgPW6SgH4kE9qJJ6WF5k8hDQ7OyjU5MscZLwIdO0Qoi6ou6uC+jXXFGtQ7AyQZQGZa9tmAXPRNbiiTcZNzBr9xZcWUehFtOB3aZhGgKStZS9r7QbaaV5OFBn7A9NILksXgjRcq7U9Ida05NTjyPgNNjvpai+JYr+S0Kv/dKi2IrYz/WrKrn+MV7JzcVGU4dIoelGNDkW856+EzQFyIE6YE1Jlr7yGe8zISjeZSjju153RaUIJ3ox4cSJc9wejdhrhRF2Ltz0nbk1IK/Dxk4NWKfprcZzp52wq0Kr1128akSuPIiY6meMap3p0gM2d1lQRDHDoRFPiyciRfRkVbCtj7/tQNjixqMY8pzLj85mfgzOJlZmt8FttF0kojineA/eF+Vrhc0Jk5uo0yQFCCo0KhzEhjtNw763xsGbJt1+HbYG5B3gsTTWfgP3JhNuxZZGFafXqfNePdirkGLC+cR47JnOIrhU8urVgHi8RrzGYkwus7xsmV9nQG76Et7iRkKhRvuiHjSgORrDUT3k2pGuOGcCp94LITi8L1T8N3Wds54zGoCp8zyY7XCnaZhh9dHrpnPeNGxrIO+AulBaYDcEdp2wAHoo88pfnTmnG//PmvDOgxtwAWJ0eJ8ZcrIABY8Ujays4HLCicc7k1cYYCXiCNtFu8XNhpTJnoIZi2EQhk7IvYfsCzXepn7akLeMD9C0bqV9VWfRv/F5UIIIIxF2fOQgBPa8pa82FdJuMrYRyNuglcJnYeutJvAotuw6kzdxrOmcl+OBjVwticxg6p8RYgOhEcTl9X3VFHpd8ngNeDxO3aVAfIsttqgd5x4hoNnTd8pyAX3nyCsDUvtESuoqQmycyQqR3qgatCLii7FlGufYaxsOQmAfK55vd6Rha0DeAVW+IAL3GvjXt+7wcDqjcRuDai+lszYLqhaj5NyDJMvBRhNZ9B6j+ep6QQYN+BxWjKxqRLYpqy22qHAlareUVeocQ+foO+v92Jxpb0qKGe+VEKzvI6sVz68zIhtdXGSUQTPewV7bcMtHDsTOge0uNGwNyDvC6XpOyL6H/aZh7OTylMJXUqql9C3lC9YekdcNETejitaApcYdDmc8EtV1zneLLW48BFVHzkJONjQqDZ6UPKphxaq3LaM4UXwAHwRxil6Sbb+MzS0cFFpVZs5xq23ZKXM/3Cv3uLn8uG0N5B0hClEsjbUbWAmpedQEEvN1Or1WuLA+QFkZD3GFm+6F7NyKb17vAQ6k6GOJMUa2pmOLLaBG4aqCZiElYehhSI6c/CZlEbCpg+24YTxWnB8Qz0ZqGfPsrhExFWwK6Q6eg9iw5wMjuVo4f1fdge8uthHIO0JkzcY6AO6NGg5iQ1sOeBUtyaorTN6ymFZRiLMi+mgciNFGaco1Qm6qsmokrOu76vGwqrvcTK9ni5sOo8trNtn2rstl9sfVoz2BdDStMhp7XMB26GbDr+qlXSTF6IgoDXDgHHd94I4Ik2vtws1mRW4NyDuiOi0NsAPcjfBwtsssRotCSguIyqYkQin4VS9HrYDngzIaR2IriFdwl2UURAWnYvUPtUSWr9Imm+Gyvk1BdIstvnvQks7NWei7zHKZyCu99jXEZUYTaCeC+N50ryS/knB6RU9AjdzS5Mxt8TweT3nQCJNXn+Gar5uFbQrrddigzdZfg6wj3z2Be23LXmw40owmyJpX8cHVxVSTVFkT0IOD0FpBPSfQxIqN5VVockCKdEaSAclKxmar60YX9PrVbfFtxvU08C0uo3RmqNVAhh76TsmDQHbFKhRVKwEXEnsHgclUyTIvzl0uatqv7wFxonhVpggfTXb44U7DvfLXDb3s7a5ja0BexabhkMv/Lht/b4B9B7fwHOEZdGBQRUWKOMJ1y0up427xjthCHA3knOmHaA1QgFMhZA9kcBFNCe8gFWOSJJMvbYDtcv4uoH6CW+Oxibq2zXg4CSCBIfm1AUlhNUPHtMoGVDIuLAlNGTEtaePxXm88jAmpzBTutWO+fzBjBoQ6weHKK9vETdyBWwNyHVZG5Iol2VjLHrgT4ScHB/SHx8yHM3rNJs0m1y/Rmm01WYWB0ViIMZH7yJPfnJL7KY5oRXMxgTjJipMRA55OOjqXSRsqsCvF0M3XucW3Gpuf4s02JhZpV004wUMO6NDSLaBbKGkQWMn+WIo4pTnjHc9sT4htZ5G6bqQP3gBBaRUOBuXuODAtez1dKaC/6ZFu0i7cGpDX4XU5hbIWPSawuBdgP0bGXjgbilIrQn7tKqqKrkVGWnpUBNcEch5ATaLNPCpfpBQckm0DZEl0ld0F603xtrbaLb5VuJJBvbmoxqPM+xCNDL2nW2SWi0waHI5g+0Atum9aRzuyhl2bNlhV5+BNV9ViHCWi7MeGjw4O2PFrzav69aZ4/6btwq0BeSOuLIeycmpj4QiYedibtLTnFvqKCOnVB7ryIGWuRKnMi1fCyJEGRYeEaCjPXoro6o3C5ZRBBwRX8rnrissWW3z3sElud4gG8uAZes/QwdBjyruFJq8oUmXbm0CIUnpCrpv2cT08lp6+PR5zd+Josb1u42xZp7K3ALYsrN8PGysnYJTe28Dj4Hkonr3SK3JdR8hlWJFPRHDOvto2EKLRB/VKhcOeWnDqrSt91eW+mR/eYovvHlZ9UQRyCpydJk6PexZzyClgYopQU8O4TGwcoRF8ePd9URNhrSp7IfBod5cJ1nUe4I3SJzcZ2wjk90VZSA7zVPaADyP82e4eZ13PXPNqkuBrscnuEoc4R9t6umC5saSKZjMO64UrZWZIlaqunpVs01dbfKdR01eaI928Yz5X8mDCibKKPWy6oPPQjDyxFZx/9z4pAZxa/eNW2/J4Fplge9zBpRT2Gx/khmEbgbwrrjj61WOJwC7wYDriYDwi+hKBvONwIRFBnA2aig24YGqhSC4FRLVNolK+e4JGPMEikq3x2OI7j+okOVISNEmZkmB1D5WMuIEQBpt3PoYQEiLXJ5P1Wp/LIpgoyk4TmbGd+fEu2BqQPxA1Z7ob4NZoxFiEUDvFiwDW25NMNrEwNor4AfEJ5y2dtYY9ildPyBGfo4ktbj/CLb7TUCisxJxM70oIK8Vd6/nIOJ/wMREbpR0J4gaQV1PBG49a2kbspygwccKu8xz4wARLUb9iQK7rHbzBWeRtCus9oQX2Y8MBnhPtmasykFEVIsZRT9fQexVs4I0bmEwDTWw4ORxY1iBGVv1RIILTQJtGiJMiudCTsP6TLWtni28vXiXIipiwaM6Z+XzO0bNEt5ja1EF16xsJiEuMxsJk1tiYBJdRSW8sntuMHcWLMFHhQWj42wf3+VFjoql1ZO06i/wuWYWbZU22BuQ9QLBU1p1Rw5/M9jg7GrjQzFKEJILTNy87RRGXcWHAZSG0MAyCZodmywE7cUWZ2hEkknMiF2mG/HuwTLbY4puJa9ZvcZrSAIt5NrFEwpWbZkQSIUIzEkI0yXZTuX47mcWhNAg7ItyNDXcDq5kf1888vznG4V2wzX+8JwTgVoQfTqY8Ci27WRipyZ+8y0IWyYhLuDAQmowLCecSrjQwOZUVpdepw+Fx4gBnTYfbhb3Ftxpa6n5VZqQo7qonDYFu4RgGyHmt/2aCohnnMk0rNI0jBKuHiCu9VtfA5u9YNBFEGaHsesfD6YQHzvq76sjayy9R3vx1w6IP2EYg7wW1L2QGuBYeTiZ8kQf6nBgEhtd0ptd7q9pGMA67o20d/TKTe8hDRksPrABOhLyqAN68BbvFdxRS5+IIiEdzkWvPsFx4uq4tEUjJ7ZbahXOJpoF25PExg0uWvnqL0yZqBJaoMBG4PWq5O24ZsS2e/z7YRiDvASsOOTZs6v50yu2mYeIcvjQMZtmUHLnuQawJStxAiDY9zZXNUKWAheo9FXOiGwZkm8Ha4lsN07Bap56ENAjzi8T8wqFphtAUYklefYlkfEiEqEbblTos6u0bolLxZ064P51wL5rxWFF32RqRt2EbgbwnrOQOMuw1jtvTKc81c9h377gI1xKMznlCBBfAJTEleFM+KXx1h8+BIJmUM7l4XKp5pdC7tSdbfHPx5iYpAbIKQ1KWy4GhN7VrSxVZtK6lwxyfiS2l9mGjaqti9ev2gBGCwSu0CDshsBvjqnFwazTeHdsI5D1gc0FGhb0I98Zj9mNkBARkFXJfD/OqVEw1VFwiNpnQJHwYcD6hDNQxnIJb0XmD1vnpoUifbJf/Ft9kvIkHWyRLJIAGcvJ0y6q4W8kkpkZlTYID3mdGY4cPJqRYx9W+znyYA1b2albGCLeahr3gLzcO/r4v+4Zuu20E8h5QU1i1ljYFHolw2s6Y95nf9gsWOeGcKxMLN1ebrr5JiSKQnthG9vdbzoNycZYYUkLVlreowyMm/54tndW5BYgjSWXHrwfnbLHFvyze5XR1iEQ0t8CEbpE5O+5J3YQ0BKutl4cRyYgM7O1Hprue8SSD79FV7WM9rXOdOLbBbmvJEmG/afn+uOEvbu/yyNu+rQfiFR3uLV6DrQF5T3CsOR+twm2B+yHyMjYc6cDZ0FfhkQ1l0A2Ilp4p86TEO7xk2pHQd4m+FwaFnAsbC4EsIBHIZAbwoDoUtV8rzm93wBbfDFxdiFd+11BStGPy0LK4WNAtIrlvkdysu0TUejxio8RRIjTWNJhlIGsqKdyNHWYbrtxX8QIRE0k8aEfcG4+57Y0Acy3zaos3YmtA3iMEwFkaa9fBvZHwrAs86YSJKktVepFLDYKGy7GCVGlqScTGM54YK+UiqeWCsXBe1CPObps1ISqruey5qvSqbqWytviGYTPnU797VB3CiMPDJeenMHQtTkflb5CyTfMMYcBHJTaeEBV1gxFQNiofq920QTRxKE4tTTUWx06IzIJnzLrvY3U3tr7Xu2BrQN4Dri60IFYAv4VRep/2HSfdkpd5IDtZDZx6ZZEWb0mrsigJFzzjaSQNsFw4hl5XI0CKuAloJJNBIUtmAJS88divJrK2qa0t/ri4uto3k0QOVUfqhT4pywWk3iM0oKEQ2CnSJAnnM83IERrFBUVlQMXYW6W5vDxVySmXXiynEBRGKHvecbcJ3G1hh8u1j63xeHdsDch7wlUhBsFovQ9G8APZ52ToOb84JalJmtQb1SyTbjxQlafWIk8tmgnREaJjOb8i4q6Cwwrqig2cwiuJyqvH1IGvecFbI7LFHwdXNd0urzwnHlVPN2S6hdItYOitWVbqQlUbxOYDjEaO8SQQGjMemWFV+3jd85dxOkRg5j0f7M54PPU8cK+mr7bG492xNSDvERnoKZ3jWC3klsBHI3g+mXGYe7q+ZykmtHj9hM1NU2Q8d2QgNq3NC3EJTf7STQXBq0PVkyWWSERBe5LUZNbWXGzxDYSC89ZFpSkzdJ7cZ0vPrppsFdWE+MRo7BhPhMkkorKwmt/mgLaastpY7tY/pXiFEY79GHkwGXPHX40+Noezbc3Iu2BbM3qPqK1QNtjWFuYOcAd4NB1zezohCuumjlewDrnXDVPWTOiDEiN4n4pRWU0D2egN8URtCERC9gQ8XlyhPm6xxTcLWmJpUSENjuVSWMxBU0C0dFapFc6z9tZ13grtSHA+gfSo9qhuNg9u5gDWTbZOIaoyEeEgBg68sMvlrnNZ3X/LX3xXbCOQ94jajW7CI2YLakRy0MK9YcKzkzMWqWchSnKuqOhaNFLvVyFi3lfWBK5nuuNRjZwcDQydlNG3lXEi2HRoJavH48lSGfHXawJtscUfB9fVPirrEPp+4ORozskhpH6EaLtOXQmo9sTYM505JhMlxNqxvgCGFYPxuucRhAA0quwqPIyRD0Ytd4I5d/G1r/lNBmTrkFVsI5D3CIctyOrR1BjCY3nWe7Hhg9kO+97TqhKcUDTZ7WvDY8paOstJRWhxwDc9o4kSm4S4HlxiTenSIrbo8FVscVvo2OIbh8KSKo21OSvLRc/8fKBbiE0aVKkq7aUWnghxsEFRTcL5DmUB0lPFFy/HDFZYrFFFUGWkcDc2fH93lz/ZG3HHraOPzdf16mt93dcWsI1A3j821pZxzu2fpsCjCIvJlJOLC/qUS0FdSViIfbUQb78UoUWXES203pmgmum7ntw3oHU+Qi6MFVl932KLf3lcZlzZ+nTknCALQ5/pukzOpqhwedkqSMJHaFqIDYivjbKKacTZ42kZ9Gx3W7cQNgq7LnB3POJu27LHWnF3ewD+Ydhev/eJK46J3/h5B0tpvUTZA44E5qr0WD8gVPbVVX68oqTi+Ag+eGa7EQFOj3vS4EH9Jd67qKWzUEHc1pBs8U3AqlqHdbw6dEgMfWB5MZB7jyMYW6p8ZcmoDrRjYbYTV3pXIsnSuht95q825lY3SmlyZk88d5sR98eyMh7+0h2uJdZv8RZsDcg/J9QWqafOBYE7o8gH+3ucnZ1ytlywVEgiqzqGoW62mgSz6EIlIdKVYtgHMOEAACAASURBVCI0baJbJvIqeimsFXU4KQNv1YroubRZbbHFHx/CpgERbdAcWM57To8GlvNAHloEb/tAWc05FzfQjmA8EZwfUHpy7kFq13lN0+rGCl+nmQRhJ0Y+GM14NB6zzzp1tTYZV1NTWyPyrtgakD8GxBbsCDjwcH8y5nm/5Hk3Z6kw5FRqilJ4VZstTeW7KKLGynJBaEeBPEQuzhVNhX4oguIKZdHjNeBZj/XMq5L6No+7xfvAdQft6wgb/z97b9ocR5KkaT6q5mccAHgn82RW1tUj3bsyn+b//4Jd2RXZEWnZrpnp6u7qqsqDJICI8MNM54OZh3sAAV7JAyT9zSQRDET4aW5qqvrqq4PxiB6z7x3tLtC1hvf5WDBoIcVzPVkWyAqhKA1xMe8XrAN8TBlOwrRjFfqwmrL0mcBZueQ3d095VEFNnPQmwS5mw/HmmA3Ie0RBTKbfy4V7Rc5p5tj6nsbHplG9GSFRbkWSEbHhr7CvrhWJ6qNVneG0I2iIMeBgiYsVv5IFj9eR3qiiBAJhCIkdL0SZMeMVcCw0msbT1XFlwyQ/5Coy+k5oGsH3ORYKxHQ/Js08QodzQr3IqGuPcx3QIanPuRlIIp7YnoVlKak+HFns9LnMhPs5+9zHtFmUTP6e8fqYDcjbxEvq9ZQ4iB1gqxUEg2e/0PmORsFbNBwheQmK4CaZdUuGRPDRq8kDZ/cyNueBZhvoJ7o/YuAsowxCLjleouBcpx1BOrwM1bszZrwqXnWinXq4ca1vhPjKlItnHZfn0GyJXQaDJoMAcaHUk5fG8sRR1R1ZHlKkKipRR7thRHWrSTWUxOWTM6O0wFLgXlbwh5Mz7rgxdKVXjvL4Wb3oXGeDM2A2IG8bxxZlwyi1qMVzBqDQVEt+PH/OMwuci9Jh9EaqDYmPnYky9BKJmw5gPmr/KCzXa1QECwEfjOBHFlZmGY6YYA8SCNICQusCwcJ+tTZjxqvjVSbWIXc3eNOChbhA6rae82ch5T00hq5sCChFDyIvoKqFqjZctgMdzJGCuP22bQj7Dp65Re5hbsYS4aui5PcnZzyp3L7mY1q3MPbXOXYes5F4FcwG5F1j+kxNFvw5cFYoj+sFT9sGJNBaoDNLgouaHpBUryvsKb37ngeqiOvIS6WsoesNHwJChtjwgClG6qVORo4nI8Mk+jlhLjKc8cY4slqSaUI6hlszt6DZwfnTlu1FR9euCT5LUdksLpIIqBqoJyuIWle5T42jmLgKElV7ZbJ/G6WBnAVyCyxVeFTX/PY0Js6vS7XbxEzMxuJNMRuQ94BrbrLEC3+i8OT0DlsLbC+ecSmBnQzdnmMy0KZVtsmIsPdPYmOdvMiplxm7pqVpfNpFas5ppOSkIjjUHM4Uj6KiaUuzEZnxuniVVbqikoOVdK3FMGuXE0JkXAFj2kRANKBZIC809jjXECV9EiV3ULEWGfIlY8xYIFWcC1UwTjLH3SzjDFgwJs7jLqce/ext/BrMBuQ94NrwlDiYa+BxDruTO/x5e0FJILeopyVDzMuubEdkLJISAYkyJy6HxVIIQWm3HoJjZMKzd/clKE4jxTegmMRGoDMra8bbhIiL3oU5mgaajdK1Bd4XWHCHhgNAPKodi0XOYuHIslFNGpJQ4iCaOCymhn0BGiwyHYNxphlfL9Y8rpesGHt9XFfbnY3Hr8VsQD4QhFFs8a5THi+WXG437NqOYGAa47wi1z0Y2y+8LCXUOzSDxTLHgiIW6BpP8EOTnsHoKI6MLOQEHfyOPoXJQnpIZ8x4XUzo5kNlxaAO7ZXtZWC30UTXzQc7cPBNVU9eGNUihmPVdaCj0u7Bp2VsVTuwrRxGbsZKjMeLJd+envBFKZSMxmN8hmba7tvCbEDeN2RMLw6MkDMH365O2CJsunPMjBBiGMtkpPaOTKyB6m6pkQ6oiy55UULXQt927B17YaxQD46cIj7qmsqukpwKNhuRGa+LqfeaQkMSx13fCn0nbC89zXbQuXIHLN+hW6bmgWqp1EvB5S1IS5QiDdOmgtf2LCnLl2EU5jnNch7WBQ8Kt/c+3PGvz3gLmA3I+4Qc/ECIxqQS+K4q6OyUjTfayws2IZqZQKyrunmDkbkiEhACRZURvOJ7Y7dNvdJNQWSor0Is9g/JLMMkeR8WCDJXq894Ea6GOoek+eQdU4SCPFvSBWh3StcYoXfJO2Zf62diaEqar06N5bpF8yaGZWWUKrm2j8kiSoHchHWA+1rwXb3gu8WKBzrmPmbj8e4wG5B3jSPe8rCgGn6VAY+Bvs742a/4qWl45lu6IPRpG8a4WjvcYIwNG/Ghc5mjrB3eR8HF7bYneIdIvNVilrwfhSj+TsBF3SHm1lMzXoSJAZFI9ThEDMyqVJiv6BrP9hL6FghDjw/23xcJZHlgsVRWJ568uowqvXtlapmMeTs4gvRbMotiiXdcxg/rU/7hzpIvczhhbK1wXXJ8NilvC7MBuQUoiEN6DTzMCr4oK3YNPA09lyHgU7L72MC3ySvBo67D5Uq9zAnB6LqWNrhEc9S4ajOJD3MQVDwqDsUTLFYKD82qZsy4jmGJMUzNkxFoAuYIQdhstlycG9vLHN/liGX7hVNkVvlUMCgUteAGuq5cNxpXlzSD8RjaJ6xEuF+WPFpU3E/GY+gyOPereLeYDci7xgsWO8MD5QANsBR4mCs/FxWbYHR9YGc9fhBUvNJZ8JCMaCA9ZgF1SpYLRWXkO6Pvu0SbjHpDTmRfQhU1sxymWUqmdzHfPudCZlzDFf/UrkzPyYC0refyome7cfRdFb2PYQtC9F6kJys81SKnqkHcIM8+9ayPHwGQGrAZhQ+s1XG/LPiijgWDJQwk9pdsZcavxWxAPjRSPFgMFgIPBJ66nEvtOdeW5xrwIaTk+83CC2NVbQBpUAdlXXBChUhPs4291GMMWhnUf2MuxEVZFbXUg9rjLdWhzJ7IjBci6SMMMVYTmm3PbtMRfD7WIyXE2qUOdT31QlkshCyPEu1pGXR8L1M6uwpisVHUAuFhVvC4rLnnRrHEF5mIYxysmZf1ZpgNyAeGCvumgpnBXeDbsiCY8DT0/GR9FFlMXsiEgzXJgoyxaRNDLFJ7nVOy3FGW0LWe3veI5PviQjWi9xEsykX4QC5GnzYczO93MpuRGQfT7J4aFQNFYoIFR9cozdbo2xxCbHamMnoD4qJMu+Y9eZkjWY/RMoqFXkeqJdzvWjAyhTwYd4qC3z98xFcLbujzMeNdYjYgHxgHz4xBbvB1DkWW8zdd8hdr2PYNkZQb5d6v+iHDwzm+H1VI0Z4sM8ra0eyMvusBTXq9aRIIWSo0NEzz8UAAJPVjTzuZjciMiDh+DIGgCBniM7pWef5zx+bSYb7EQnlQqqcOXBYQF8hLI0sy7UhIbMBhhF/HPgUoUaZdLVAp3K1LHhRwJlHpeurv3OjNvOJ7M16O2YDcFkxGsAqsFb6tKn5ulvS7lp+CZ2uBXki6ptMvXSmRGvi6BDRTitKoFmB42l0bBRdTgWHsXpiRBYl91CX+EW0RjFjKZcg+pDVjBpCUcc1cbA61U7YXxvbSpaR5ziBXMqiOiLsgKzuKyqiWjrw0xEUq8FB/dJQmMlgPjWarEFh2Pd8XNX9c3+F+PhqPm5Pmx0bubDZ+LWYDchuw9+9jXjIQH4YnOcjpKW3f02/O8T6Jjgx9EJg+FoPvMSApaolHHCzWwnKZ8+yp5/LCYx58SG1vTXGmOMtx4lFNMtkaYrGhBcLQ0Go2Ip8xJhOuAUHpW6HZ9WwuYHup+G6JhAI9+KihmScvN9TrjvXJAnVGoI+GQ8aeNTDJd0zYgHtRUQuUKjzOCv7b6QN+t1SWjJTd47hav3LlXGa8MWYDcpswKTR0xJjuoxy+Xi35uduy8T0+eIIKQQ7FGabYJ75T8x1xgUwEp0rdQdcG+g6sM8wLmvj5JqAqOAsUNqqVqgR84oIFOyzumo3J54YU+jQlhIxmZ5w/D7RbJfQFYi72NE9dCAQw7XFZT1kbRWW4PMSWBRa95EM+4QSJlGUYQQJFCNQh8MiV/NPDhzyp871M+7G8x3X//MrGZyPyqzEbkNuCI1XqFbEB1Zd1xd82FZddT/BxIo8iDzdjaD5F4txLqjLPy5x66dhdGqGPMhFm7Bv6mAmZ5TFkZdGLSeWMaatheMkQXpiNyOeDPWncHL6PVeZ94wh9BkNnQUbjoQ5wgbIyFiuHKxq8NYi45Ekn42HXR9Eg2W4Sx3HhPXdE+K6u+aYquauRdTUc1zGTMJuId4vZgNxCDIPeER+QbxyEe/epspr/cXnBvzU7LkLAu+FBnaYqpxi8hIEGY+SFo6wcFiCEQAhhTMIPnn4qNBRT1BRBEcI+Z3JYET+bj88FZpbGSJQr6Ttlt+0IfQ4+A3PjwiXN5s45ijpneZKRl7tINRQf82rTdPe+bQGx6FUELOwpI2KwCsaDLOO7xYp7DnJJ3T2ZmVcfCrMBueXIiZW1Xzrw6yU4x+XPPU3X0JoM8/00e34FUyNiqBhZDnkJfW/0XcB3Fg1D+sbQu9qZw8j3fRjMLHVLnHgik33M+NQRVXZDr+y2PZsLpW00NoeyofoijQ2L8jqiBUUFRRUQ1xPEEwjIXh/3Kp9wfHsoFlQznBmPyprfr0/5qqy5I2PeYx59Hw7v1IDMaatfiRQGqCTJnORwUVX8e55x4Vs6gc7Av8YGDY/LfPRCTOhaI/geLCcJ+0bxxqAgedy4Do5JaiUqIa0zX33PMz42TMmwcUYXUTIteL41nv3c0TVR8worxr4eSKJcefIisDo1FicBl28J0gAhNoTaL0AGQkj8ntmwR8NJVNl1GCXG1/WS352ecp/Iurre32PG+8Y790DmCs9fichepCR6Ivdz+LKsaLzHvOe5BVrbR55iSjL9VCaMFlLbT4091bNcKDF8H8m63c7HVWSIK0MB1BRCGiJJYkLFI3h6omyK7WmWMz4dCAzChxIIPqpOBZ/RtRnbC6FvBfMFmBv9CCF5HR1Z3rNYCdWix+U9aBvrN1DCtQEzmAzwidJrGBmRzLEGHhULntRrvshgHaJnPuPDYw5h3WYMFeFEY1ABZwrfL9YxiXl5SR+2e6HFHlKHQeglhpsPY8MG+FhoYoGiVIq8IC8CT39qaXYeyOOkYApBcJohIa4+4yKxTx5JIKCp5GTuI/JpISo1A/HeWoH5ks2l8PypsdtU8c4nJ0IGCSsx0A7VHau1Y7GGrGxAPSZD38ur2Yp96WsaQ4bHI8Te5qU4vs4X/B93HvKPK+UOMfeRvnTj4mXouTOvbd4t3rkBmW/gr8dA6y2JrCxbKp0s2XrPL13DORAEfPpjcvy6m6UQFD5pDymaZZSVUq8UI9C3PRaiLAUIIRiCw2kq5JIoE+/Fo6ldYkx1zgbk00FaaKAgDqGkaTIuzz3dLkNsH6yKPyV+VF0A7ciKnnIBZa3gekyGctThW8dnhej3BtQChQRWwMOy5KvFioelUvHiCWsege8fx+/HW6JIz8bj7WAwIEJkZQXgi0rowpo/bS7ThB69Dp8uul6LLFn6z6cir0FBS8mKgtXaoapcPu/wnYttdQ007KtB4lbEcNLvBVFMFMzvmVwzPgUYooEQBPPCbmdcnAfaJsMsi+PninSVKLg8SpWcnBWUix60I8q2h0QXnC4zDkfn3qwkkcQqBE7E8WW94KvVijv5lcnKJj+vTDTzOHx/OG5A5pn/FmEUbHfE2G8F3FHwC+Uf7j/EP3vGXy8v6KuCy5TYvnmdNxRvxU9FdVRPWUUWTeiVzYXHdxb7O+y3YzFCEYScLPZsl4DiEYw+lgnPnsgnAUG1pG1guxEuzj3NxmE+FZwOBYIpdCUK6jxZ7qlTW1rNUjdMDvNkNy004iJJcMFYmPDQlfx2fcofVnd4lMfugje2ph1UHN76dZjxMrzdENacMX/LmMg7AJiQSWyWsyDmQ36zytj5M7rdjl/6HsmG5+nmm2CppiPC7+PFRVlQLYS2CbS7FnCIpGKTtM2hGZVZhiXPI3ozgj8QXpwf548P6W6a0uwCzTZjeym0u4zgy325BkwedQEk4HJPtYBqoWjWE4jexzQ3Ni5Hrsu2RwNilAFORXlSn/CP9+/wXRrvBTdMVvNc80ExJ9E/MgzBpJxIZXzsQO86Ag/4/579nQtrCaIx6b2v+Dt8XCeVIVhMvUcZeBGKUqkWRtdu8X0GlkPQ2K3QDJXYC86ZUphDdPB1PCpKICr4hkmGdTYltwVHLMB+RA1UXQErkrYVXF4Ywaflhk08iPRGEE+WGYuVslgbop4owXmksnwvAZ8M1T5XZ/t6jzx47tY1X6+WPBI4YwzhvmyyOj7aZ7xLvJ4BeVlu5Gjm9gW/m/EKkGsvB46MACcWSVWX64LLpmZ32bBLPT2CWVIauk6bHJWsFCTlRazD5TmLlaIq7DZGs23xvYNekjcCBMXJwNIxVHIcPb30eA30CEN3xDhLzEbkViCxnLBRuyCGoQyRDAuK90rX5lycG90uI3QCZNHTsCHxkUKf6tGsJ6+grB0u6xPjKi5KhrBSMk3X4leRKh6NR2nGAmPlA19kBd+tSu4Sc35plB5+Efae8QtO+IbXM94WZg/kVuP4oB96PefExLkAXwrI2V3WecG/XpzzY/BsMRoMb8YgZxKf/2Q+DAaScDCPIohTstKoVchywTnPbhtiBbIfjEiqVfcZIrHQK5NArx0tTSw0FJLg47Ajm6m+7x17M8F10cLoeez1pkzoe2W3VS6ew+WzCrEi2oH9MIxV5iYO8ORVYH2SsVgaeekxbeLCIe1rmhGT9E5cTAzjApwZpQh3NeOeKl8UNX84OeWhRNbhNZmSSV3TtE2hcWCbjlyDGe8Cr2dA5vvwwXF1TTU8ZPczMIVdV7DNc5rOCH3sZmg69kC/tgSEuLJEiL6DoOpwpSPPc0Tigxq8p8cRTLEQpU6UQVEVJFWn5xJSpXosWAxD7GPGrUDs7pdS1qKYKeAIfcHmwrPdODbnglCMNF1Irkqif0sH2lBUQr0qKcrYvAyJ8iWxjcDxex5NWdTBUom1Sit1fLVY8WSx4DdrxxewV9m9JtEu117cmJSf8e4xeyAfIaYPR0Y0IgBe4bIqeNaXXBBofU8bovdxMz9qCDXYGBIQDziQQFlnqOR0XYMPHusBKZD0X5SeMFSUDAeWpwr1ABJrToYl7BzI+rDYGw9JApmSE7yja6HZCpfPHG2bJ2Xd9B1IzcRiMSDSUVSBxUqol4Gs2GISEE1ejg3dBSf7hf34C8SapaFNrQvGMlMeFiWPc8cD4A6RJDIYj8G7mPpTE2rJ9fO88Tcz3jZmA/KRY0gwFsRV2+MC+pM1Ic8JwfBNy2V6eFN3kH1e4jqGTwEo4gyncf6vFuB9RwgdACE4zCKxUpKBGkQYVTIUjxKI5YnpcU9Z09mQvE+k6dRIxAqwoLisxCwaj/NnPZsLT7vLYwGpZdNvwlB4qlGSpKodq5OMvDSMLnkeMA2TRYzvTjlYapCZUVrseXMiyv2y4EE10nWn3z8kk7/Yn50Nx/vFbEA+cgwGZNpeqs+gWVbsmo7WG33f0BGVdGPV+JDdtGsbi55I7L8gYkCPOuHkrCTPPOeuo9l1hN5HbyM4JIlqmxlqipqL7XHNoak2JFJ+U8hrfsrfE/bpawSHWJSk6bzR90LfeS6eG5fn0Dc5+MW+ynz/dVKSXT0uNxbrirxqEdcSaFPochoWvdqlZpJ/S7deg5EHWCB8sVjx9XLFvWL0POKyZGoq5Irn8fKznvF+MBuQjxzTOPVQaLgE7itclCWX2x0XjaexAFke5U44Tuzd/0yNfsx8XLlqT1m5RNN19L6jHyS1RAimscjQFAtGRgY2xLmVXjq8xNi3T37QjPeDGILSZLwFlRzfdXTB07aB3Rb6riAElzxIUmOx+DP2Mo91Hq7wLFY56hR1Q5FgSAuNm48gSXOi2FgMGwL3yoqv16d8u3LcdbFAdsx7XGcOXvVEZnx4vHsDMi8H3jmGSzw8nDVwF+iXBXDGzrf43ZatwQ7bJ7avG5HRkJj5SdA50PYeUUdVK7udx8zwnWBk4A1vso+xS0ivUxtdRelM6LWPvSDmUNZ7weBvxsucg2W0jeK7gmbn2WwDXZNjoUQsP2Rc7bX9QbOOvOyplkpWeLJM9oq5V6fywcuIPWSGgsGUtjcjD0bpjQdlzZOTU75bOx5r1HgrGL3p4QwiplmQGbcJswfyiWGQfl8BTqFe5zTdCYTAT954itHuk5w3Fe4k0UUzEI1JVzFUHIUGHn9Vsb10PH9mbC4DbfCIxLVjSNXoYo5MBA1Z3IbGPEmQsG+vG1JdwWxI3j6G3EWwHpUKCwW+z9ltlMtzY7fNabsFQhGz2qmeKBBwahh98jyFs3sFi1WOSYdJR7COY34sNrYQ2BOHk+cJqfhVhLPM8d1qyZN1yUONxYI1cTIaKOoRYdjs1d3MuCWYDcgnhGkYC+LNdcAP6zVqUG62dM2O5+YnK0M5YkcsrUAHmm5ANMOsBwFvnqyoWa5yuq6na1tUlRBIQo0xXGKmDN1FxASCoc7h8XiLidkwaCVN4t0z3hRDpmC4hooQBRDNZ3SNo9kqzRb61iU5TPaX3gyQHs3ArMNlLXlpZHkRx4N4wCc6b7g2kUcvIybJPYPxSDswY4HwsCj5drXiyXrJl3nMe6yIi57BgBwc1FXqOdNWuMevwIz3h9mAfEIYIk45IzOrBDSH6u4a5wqeh56/mxFCiC1q93HvsabjIGQgRvQs+n1KVjDUefJCqGrDe6NrO5KiIhbGmHtEpIWqKB0drWsQhv4llvZ4nXEz43UQ785wC1Uim8oHw3xJuxU2Fz3bC8V3Zez3YldX84ZZj8sUFc/6rKBatGjepuLQkCjbhtkg4j8aLAHyMBqBIKQ2yLEl7drlfFXXPFkueZzDfWK+ruRYzcdI3L3Ov5rHx23BNQMyRxo/fsSU5WhQlsBjAX9S8txO+PHiKc/MaDF8SGVdY/D72vaGGpGYLJV9OtPlEmXgJXB52dO1hvdx0iLlQwxFTFBGJVcLIWpoWdq6jLXL8+h7M8RLOVy/VOMRCpqtsLuE7Qa6nRD6PCXVrxgPgaFQMCuEvFCWS0deKcG61BBqKAO0PYPvqjeQHM3Yl8YMFwKVc6xE+LZY8NvVmh/KmPMoiYucowWD18bB9IhfcZy8aaxrHoKvjNGA2JD44jCZNuOjxBjEYN+I50uF85MVfzXPv28u+alrCfgolChu4jHcABtWnKmNqRpFGectdcp2A9tNIHiJxe24fRpVTRAcFgyTIlJKGduXIsScyIw3g1nyPlJY0jKCr9leKtsLo22U0MueuS2TqjxLxsM5Iy8z6kVGWUNeBGxQ1d3XeAw/jyPEQ8An5zU34Qzl68WKP65P+b4SHhLpunBIPz+E3PD6FazCnCR5bxgNyDQUPhuPTwJTdpYQe6r/1kF995T/p1zwfz39kR93O5qhpRwvmsBjE9sxqBAw8wTzuFyoXU6wSA21oPhUTpK+uoeiY691AUL0fkQ6wiDAOPmKDZQe2K965/lhwLgqt8HfNMF7o+9bmm1Oc7mgb8H8yJDaf0ui8GGgR6QnK5XF2lEuPHnuQaMsSXInr6YiJtNEIkUAnYsLgc5BjbJSx6NqwR/unfF9ClsNQqDXvY5XPed5grotuBbCmm/Np4XhcVOi7lAmMaTVL3J+3NT4XcsvPuAxgghhiKFf25CkmHmKRSeab6wTEMigqIyqhSYZF3yGBcGnlfEw6bigqcYgGg8VwanQW5Q+CUkM3o5MWnY4c300eBWj93qGUTgwB5ZhISbGQxfYbgKb85ZuW+O9HEz4Bqm3fYtznsx5ygpOzwryMqDaIi7KsiPhyvdirmycxtOSQtISI7Gu1IwiBO66iierNb/J4R7R87gWsnrl1MYb3PiPcKx8TJiT6J8T4jxPHeCJgrtzxj9rxf9/8Zw/dZc8FWgyxZlQDrGIa7PaYDWIGklYyp8YZSlUDwoIBW0Dz596Lp+3BByYGyPXKaGuojHIJY4QSno6emnpxNMJDCETk8CBIIbdcGhH8eH9lXdjPBLh1QKCYn1J2+RsznuandJ3SuhzgvcQ4rU2M0QC6gy0wXSDKwJZETi7W1NVW5AY1hTNJmEr2xMsbKj1YTo3x5a1gzhi5o0zzXiyXPH79RnfL5UveIHxeFeT/Gw83jlmA/KZQSw+xGeAKlhZEbqOX9pLdng8CpPJApsm2CFOJjHxrmmD+9S6CljshZ0VOVUt7LYdwQIhWFTvnab3LU2ERhTkQ0CN2CgXDM9QjDYV6JPh2F46QXx44/H2MVwzh1mk6YLDdwW7S6HblfhWMe/27TtEAzJUjIslTasGl3eUtbJYZeRFj2kHdGBG2DPywrW97w3IkDAl0rdzg4UKC5Sv84o/LE/4fTIeNVdrPCYbvIZjBOEZtxGzAfncICPVdyXw1QqkXvNMGmx7wY8Grdk+lHWsGVVk+Wui4ApYZObET2qsQM+Uqs5YroTtxui7QAhEWqm5aH5sCH8I3jpUY5I3CoyntW9i9QSGpPunaRZeDQPZIbKsCBlda7QNbC462p0ivgAf6250SKwnt03EUBdwuYEzqlVJvXRUC4dIOxKpBzfx2t4nf65EEnMzauAU5Yu65oeTU56sM+4ztqN9NTMwpete3fuM24bZgHyOkFSxLpFOaQ5+t1wDUDYNP/mOCwt4FC/Tdf8UgcGnMEbRCoYaAfHklWNljiyDzSbQNkboDSeRjYWNhWwqijNHlsIyTmJDqiBGL4rH8J/zHCISbxQZwSeWVe/YbT3bbaBrlOAzxGtku5kSzf8QhorFfy6DohQkg5PTDHGJabWvLH89euzw6YUpd53ji6Lg6+WSr5ZjR8FXNx4zPjbMBuQzxRBOWKbE+h9XJVVeUDx/hnXPaIKBgzCEr44tCu16NfLw4YBHpSUvFVVHAFVr4QAAIABJREFUliu/PO3wCOYDsVRkjKQrDkIAyWLFiMWuhl6MnUYTFT5T78OQVPgXmxl7H/uUNxvPZuPpWyX0GqXYvSKmozcBQAAJID15kVHXOZK1ZHnsHjl6HIPX8WrTvXMOC57gPWuX82R1yrfLmkel456bKuseMU1zyc8ngdmAfOYQGXMi35eCrU/YtQ2b7QXnibobEo32ejhrhE1eiQxUXANVXCFUWcayz9ANtE1PCJrakmT7mHpMqUdRC7MeT5RTUZOYXxEw+ujzfBaTz5BxiObeiA2g2qbH90azM9pdTJZjGQSXujWN345Jhxi6ygqoF0q9EnAC0qVExlW623EMnxQMZ5AHQ0JU2H2Y5TypV3xdwb2krFvwAhtx7Bd7o/JZ3NxPArMBmYEyrhatUi5PTvi52xL6ni6Fskyyff7BhuIz2NNDh3/uQ1l7jasAaojAYpkDRgg9IRiWigv39QkmQOrNa4rgiTXsPQ4dS9nEpylvIBVfnfwGU/ex+ysCODAlBKXroNl1bDceMUe7E3znIBSIxUp/kekcHBlXIoG8gNVJwWLl0LxLLWhj2MpkIDQckiVugmJkZmR9oFLhznLJ94tTvq3hoYuNzXT/2cn4eBW67rGVwWxPbi1mA/KZYjo9pGkbIRZ6/XFdkxff8q+XG/70y1N+7ju2GuhU6QQ6STUjiQOkFhk4WGyre9hgCGIIpccVsBBHVde0DWw3nmazw/curp5VUpgmyqWoZQgZle/JLOA1o5OeVnqCeIIEuhTmMkthmmRmRsGVUWb+Y0HsxRGZVpjD947dLnB50XN54SEUqMQcCOEKRZrIulI11HXgGpbLjMXSkZcBl/eYdCD9GOa6YjwiOcIfJMuHa6kImQUqM5ZBuJvnfLc+4ft1wT2JNUY5E5/mY7fhM16I2YDMOGDXqMF9gaxU7pYrii7wp/Nn/BQ8G4umoZfBE4gMKZe+JxAr0IWUXB8QDQji0SxHM8VlDlUj+BYRxUKOpcJDS1WE0TtRCsvIzeOD4kQRp/TS48XjdWTtDKEtwRCb0n4/BuMx+nAiDpEsFQcqXQvby55mI4QuRygxCvDu4JsIiarb43KjKD0mDeUikFeCZiF5HrG11yB9cnWJP9aVcy26JQYFwlme8TArebxY8DjLOQlQu0NF3UHWfd+g6u1ftBkfGAcG5OqqdMani2P3d5hKKiI7C+C3J2swT7Hd8Le2w1TwKgQzLOUlhnW/cDUCMaq1Dr1FRD3QopJTVoL3ju3GYyHQNh3iI2U3WGxEFY2aJlaRkJkQUgW707QuNo+XWPE+tMzdeyD2oszNbUC86ipR/t6Cwyyj74WuNS4vGrZbCL4gdCnPIVmkQqfJfW96BER7RDvyQlLf8hrNetR1iHhskPKX64G/PSw5gww9PcaUvDNjrRmPqppv6wVf1jUPC+FkTL2MhlsOj23Gp4cb1XhnksTnCZUx+alAVgtFeQf3k+KfPseHwI5Al1hRgwHxMo6bYQKZJtaBFGby+7xtlmecnFaUpbHdRN2lvu0IFvMiln4CqWWuI48sX0Rg39VEhF58ZGkJqdAxhmFuqiq4XYi0XDEHltO3QtMEmq3RNQ7rM8wXEFz6jBwaD4n3TbQH11HVymqdUdaBvIRgPUabDMEkEXFD7nwIXSEpJx/AiZAFzyrAo6rkyWrNt4uS+1kkYAyS7PPc8XnhaAhrHgCfMdLqMyN6IkrsbNifnmJBCNsNz9stjRkucykXEms0YuXBfjPXNhwr2kNamUoaZ0qWK6t1gXM9l+ctIcTKdWzooj0m2cUysujMIGaoh0wCrUJIxiWIxyTqaXn8Laf/Ssp3ZJjl+C6jb412a6nxk2Iheh4SXCIajN6iSbwW6nzs0VIJ65OCeqGIbuhtG8OHqc5DZOjo8uIrooC32P64MKPysOqNL6sF3y/W/HBS8hXRcEybQQ0LjxmfB44akNl4zBiqwYce618UEO6esDt3PO9yaBouQ6Aj4MXwkgzCJIZ1lVAzaGfZxMwYIOpQB2UNPoBojOP7zuLK2+Iw1bS8dbhoKVLy2FJVex8GkqkQLODFJ0HGwz2aHJs8B1cnfn54a3oKeybRNHdwbVMvCg5elwUBAzNCr+w2RrPt6VulaRTfO4JP9R0kz+PaXnpUAi4z8jKwOimoakCblO94gQ925V7tabrD+YkhFqhMuO8yvlms+eO9BzzOhcdEdeehnmio95jxeeHGJPo8GD5j2Bi/HnqsnwJ9Dk/XS34OJd3z5/jtlkCgN8OUfUvbAyNyZcPRBgwxdYvxEXUggaxwVAiasvK7TYPHY7Y4YBq54chsbFIVUEQVocfQyNBCUw1L2O/TxFJ9yZGTZrQNB1Id6ZxUhi5+w/5fsX+JTLpeWEg2yqLnkXbaNML5sxCbPnlH8KkVbarWH5LQZmM+wfBkLlAvlbICzY16IYi2mO4w+skxcJ2qOykSHcyMwF77TAWUwEoynqxP+S8nZ/ymioZjYFsd0HTfFLfXPZzxEhwYkOurmxmfHeTw5bDCFOJgyXO4R8bfzu7yb/mWPz37hb91DY3Gqg0xI0n33bxhkhGRkXKLeESFvIAsixOiPzEIwtMfL+ibCgkZIQiYokSW0rBVDbE3SdD400uUIzdRMiAkiq8nJlAG7a6AEVJ/b0tH7SyGeWSYdM1wzpE5F2fwgVp09Em5MhvKUEEeJUYwwUJG2wS2W4/vgJDRNkrfZZgfYnHRJdgzmSapCxOPSUdZGIuVsFwZRa0EokR7kA6kG49l4nGNXR+nLsf0LkUp9hxhHYRHxYIfTk/5/ckJj7NoPIr059Z6HbfyoD5NzP1AZtyIuNofjUdlsJBYK/JLDg/XNW67w282PHXQpJW2F6GTsRJjP6oOkraDhpYkJd7E9lFDnaB5jL0TlOAX7C48XePpW0cIGZiLxs0GdpAjiCPWrwcEj4kmY0FS8/Wo9skGpKNLfb6HIsXDI44HHBlfitMoiW4vNCBMTnLwVBSzeCXFckKfs9v0bC48XaPgc4JlDEWVSQY5uQUheioy7NKDtmRZx2IprE4cLm8RZ7jUICo2ivLJ43CHhmLvYk3vMvtGXmKBzIzSex6o8l9XZ/z+bM0jHfuXH7E742m/yQRyQzL/KKaX9nXwKtufJ7+I1/AI5zqQGTfi2vMkE2MC3HXw3cmK55tzbLthlzm8KDsRgnMg0DMugKfhoQH70NJ+H3LwWlQoFyl/oAHTQGg8+Bxn+cHkMxiSmKKP0KQaHMww8agp4iV5JKDiUZEobZ/Sy3sjMtnueMAyCQVNaQNXr1WsYwFHsIy2McqixmmF99A3hm9JsusOQjRw+4shAB4kGhARQ1wfGz65jvVJTl2DaINpH3t4SEjeSSJWy6B4zEG+Y8jlDFpkBvEahEDVB85EeFwu+aEu+cNyuTceQ8jKJts4uEC/ZgJ+HSMy49bgEzQg01E4LyneBYa8yAnwRZmjX37FV33P//z5J37cbYFIoA0GJtMyvisZkSO3R65l3iEvDeeEelGyvQxsLgLttsV6i+ylCe9nyF1o6jMikgyIBLBYiOhEo8aX+NhiF48ES8KRYTKt2rVVdfRArvsq1w7aSPkXxfdK2wR2lx27zQ7xJV0Loc9j4aTJQc5FlLQPD9IiTnAukFeBeiGUlbJYKnker3EfonilMRgPm/yZHNPVY2T0JNRigeAa4evFiv/z0X1+V8AXjCGrdx7iHjb8IQzJPFWMeI1r8YkZkGOMk3lkvC0M06YSJxQF7iuc1I5vcVTdGf9shu9aWoNuT92N+kkxccw+/H79Th2f5IwOyQx1nnKgsUqg3XlCXyChIJju0xOEaJwUl1bMSeoEI4jDicNLj1dBBhlzyeIEjIIljagjx/hy6MHr4IU21XT4VtlcgJMMsSz2g98f9HCF4zVSjfUbznlc0VMthHrhyAtDHXT9Fm8DCWHoXT41HjdjFHkx1GKNRylCDXx/5w6/XZ/yUCNxYgkTgypcsafjYc+P2WeJT8yAzHjXGAzIoJ21VuiABvhmuaBzhn/+jK7Z0Vp8X2Lm92ASOo7DmWgf3BKPmCFq5KUjzwuyTLnQnt2mI/QCwRH7k8R+67o3PsPryNhS8xgOldh0acpEikGt9LcNxzqdGY39JH0svIUkBrASeug62O08zdbR7hxiRWzli4tsKptuYUx4GwFVj0pHVnRUC6jqQLWIhLW4H0sJ9cFwBF5I2d3vKV1/i71CnEEpwp0854uq4renp3xXxf7lJaPxGO/aB7AUc2jr1mI2IDNeGcdCGBVxoimARyVYuaSTQPO057LdcYmCxAlT0UMl35di4AzFydHEMOlRZ5SLnBBiY6q28YQuOg4qig7J7n0YKk6DYiDi0qYteSZxwnaJHLw3GOYYROnHGSxO1LI3VdOrEY2KWTyObgeby8DFheG7DKxKleSpV0fa7N4jiwUrsRkXPZJ56jp2dSxKT1nFOg8ffKT2WjJuYhMj8uKZVobQWjoHMSPHWKrjy6rkh5MTvqti2GrNWEj6gg3O+MzxWgbk2PC8XWPoeAhkxtvBdA06eCJKnLp6wBl8JVCu1tzRgocX5/x5s+FZ17EBGgetJi0rSwyvtNFYLT5m2K/Xkhix7kJjwlgd1TLH5UbXElu77nq61tP3Al6ZUlbFJrRcAReymJw2h6qLBF+JeQQvPT1d2mssplMDNRnUueIxiu4lRUII+D7jl58UCxV9F4/LdxKT5JYhyYCGdDoHozNRb0U6itpYroXlSsnLWLmvDoL5aDAsFUiSyAXAsaneo3gVcoMsxPsjxNr+woyTLONRWfFFXfPtcsGXJdwl5rZqBp/tyCCYH6sZCa9sQG7KLtyK8XRwYHLwY8a7wdQbGV4XwApYKTxYlTzKSh5yzr88/4W/dA3Pc0eX1r9OQMM01DSkre1ILmSirCvJkKjHiaKZUdZAULYbuDjvsU2gD46hTdWgHaUDGyx5Q5kpKg5vLsmfJIl4awli+z1LStMrsTNgbBkb5VZUFe8Dm8sdzcbz9Mc7YIvD6zTZbzyH0fMY8h3qYtOnonLUS6Na9GR5D9ogAxXZkhd2bClnk2LFhKBCL0JmYw8Pl/a/Use39Yrv1yu+W7h9zqMkeh6j8ThSLPkBo1lvhDkE9s7wq0JYg/G4FUZkxnvDsYXEgthjffrelxXkD9eYBOz8GVhsUEWWEUIYavR49dEzJJmjz2NTfrAYRSksMTIHzbaj6wQfHCEQdefJ4qTNlK0V1+Qj/8qjZGRm+FQEKKK4ENCgqDmUHN8F2iZgIadrhYtzo29dLHCEfSnH4KFcvV4kwyHqcVlPWbdUtWe1LlDXYdoydF/cWx4CY/xrarqPw+0PAnoxcoHShJOs4J5Tvl8u+M3K8YAYsqqJVN1Dz+OmE/hIMBuPd4pfnQP5oMZjHhzvFcNUcowcOg1nCXEiyoBCgYenlHWFPf07u8sLDKGXKO+HyDg/vgLGkr8olTh6nAFXKKsiZ70qaRvh4rxjuw20bY/vAhYEMXcwXiOFVfcrfBEXOzMiiGSI9Yg6nHlcUDSUqFX4ro89OnZK3+YEX+7VcmU650/ObeiLgUTxQ5EOkwbJAtXCKOsek100uNJf8zT2+f79xl/05BkOIzYMNlSMwgfWOB6hPM5yfrfO+YaRaXXdeBzBp2Y8PqbzuYWYk+gz3gjT+fHqhHxV4uJLAV2UrFZfk/353/gf5+fsMkeTKb2kviJ2dK17bZ8p1Zy2n+TaRWKiPZKFEQVXOOplbKAkCi1K3wbMckSKuL0roU8xTVtQHFnMexDAtyg94h2+qfj7X7aR6esL+q7EQj4SoG5IFGpiV4l4et/gpGd9mlMvcqoFZFkb3SKNuZgXB41fliyPDKvMDBeMQqBCogR7ueT3d2oeZNFwLDmU7z968Ac/Z8wYIWavvv570Qc/6PC6/dn9TwYvmCMPL3ma7XsizfcS+BH4Tw//8/kl//LLT/zdt1wI7CRmGUw0RdwTxfaGm3iVWJu+Ef8zRSQKEYplhF7oWuHyome3FZotqBWElNiOBoh9DxFDkoy57H8HHSI9WSZURY752M1PghBCGfuTwP6ncNU4xXa7olFyvayUvOipFoHFSlEXr5LRJSmS41d5qKmJNS1xyh8/Oeb+Ym1JTxECC4yzLOdeVvCPZw/4Jsv5ehET5YPRyJhc01fKb7xK3OFXxCbeNLJwPXX2+t+Z8Vp4LQ9kvtYzbsJN845jnKQATh08vLOk7Hv++7OfCX1DyJQgEqvXQ5TgiKn064nh6b6OvquRpRQZqwFxQlYqtRiaaWyu1IN1Lk3yMdluQ1QMST0z0gRoAIpIjvXQo9G4DZpYdj3pb1f+Fft1CNUiJ88dRWUUFZhcgBpBB+HDyR9hv92Y9kh9PCzsr8u0INCG74gkppaREVip8t16zW+Wp/zDIuN+gNpD7sZw49EDf+n8/6IPTA3ge5w1poc0h7ffCz6NENbRMTqn9t8FXvmKDvF6xvzIHaI3UgD/cHpKpsry8jn/2TbsgPOuI0QGLib7TMRrHN0gM2KQtKFQQVWonJIXSpYLXeMj7bfxdJ3i++QB7RPqkpLrgz6v7ov+zGvctsFeOWvCroLRm8E8ooGiEIoK7twtI3ss63F5jzefqGED/+z6mI0ezX7Dh1IvieI15EpiXw7DWaAIgUeu4Lf1it+s7/BNpdwBKiE25AojG+zaFf7Vj80HfO7maMR7xWuFsD4eDA/ly5kqM94dhruwj61PShYuiCGtf9kZ//z0Z34JHf92cc5PIdCqw7s8TeQpr/GS+zjeab3y7iTIY9EXEnL6LmNzGfbaWn3nsBDTyLEeRVNYbcwBiIETSML1yCSEJPvhNjLFnAtkLrBYC+sTR156kB0mbQpXhcmR28QUGLGZ03g2B/1JGE1OILWdxcgEMvOcOMeDIuePi1P+qV7xsIwsq6FBmEvGI8iVJ+S2rLne9ox0G87pE0X2SdqPA3zq53f7sb8Dk/BCSSxakxLu3LnLX5otpwj/8vw5f+17zp3iRSPPKry894RNXsnk9VCNPuQlRKLircuE5cqRZ0KeC+fPWrqmxywnNqqKfwYZdrD4v5Fa0LJ/b/AERHpEO4oCyipWkeeZA9fjclD1+DDoVk1DVsK16o4jLK7pJRy7OwZEjMqMtQj3soyvl2u+Pz3lm1x5iLGww+ZPg9N0oJJ8/UK+0tU+PKq3jPnRvfX4NEJYRzEvO24DbroLGbF2pAIeFHBHa5YmSOfpLp+zI9BBWuu/aEsjxqlYDtb0gx8iiQllaYWPZuSlkuWOul6yvQzstrDbBYIHkySJMuRGpjuCUbzRPOqMQENVe6paKCshzzucC6CxW2JI8uzxgCb5javG44bz3Ts4RAFExXAKpoFTD4+Lit+uT/h+teKrbJQjcYyJ8rfzVEyP9h0+Z1dpeW+SJJ/xTvEJG5AZtx1DbiQDvs5gfVKxcvdZVRX/9+Uzfu48W4mlfUGG5PqLMVJ847+Gv0f6b9j/TiQgmeLIKXKlyB31wnF50XN50dF0PUYOkiGpoiI5Gynf7hFpyHJPVWfUixxvHXWtZPmQgzFQJaa+U+3KlTqOo5Xlw1FOvLZ9Pkkgs0COR7yRAV/lBT8slvwuGY9TDtvNXg3qDuexxxvZgQ8cIr5qYGa8d4j3vd2a1fqLBsPrHuJtiefOmOAqPXUyARl4gR3wN+C/A//892f867Pn/Bw82yTLca3L4RHcRMS5np4mSZMoSoFYAZRcnLdst56mha4X2kYIPouFghANj3hUjaxoqcpAucgoCnB5lCSRRMedNi6UiSyIMZUlmQbgODhDmaTW1ZIEjBlV6FmbUWPcryv+6eEjnlQZ94idI+skae/1+jQfaQGjN/OCi3QDPgDD6ibMVN0PitkDmfEe8YIVq0SxvyXwUGKN+aJccncp/L+75/y5bxBxKak9MJ9k+vUDHJtXrtJr4xdD8ih6NDWbWixhdVoTvHJx0fLzz1vancekiGfgOspCqOuCeqUURYe6gGriAidRRrNw0FBr3L8MLc+PXocxPzEalwCgA7k4sALuu4zfr0/5451TvihibUdG8lJ03L5xaLr3XsjLQkQ3Yp6RZ0Qk4Z70r9s4Lt70mG7jucx4MdKEVhMlxZcnGQ/qE/SpUZ8blwiXIbAzi2V3IthQ8Jc28EZRDRmotz0msR97sBYTIS8Dp6fQVtC2Hh966tpTVo66NooSVAUzF1VyLSSjFJJWl03k61/MJZtO9KaRVCwYziL1tjKoVVlmGV9XGf+lXvLNSc39LOaT9lIke48n/vtqm6kDM/4pPief4jndUkjfd9MR/mEv/q/lcN9mQzjjtWBEL6QHfgb+2sF/bI3/df6cf99c8EvouFTBSwxteWO/2r8aKHsRhgr2KJooqERDEKzfU5YcNSI1fV/StJeU1TbmP0h9z82BJXkUNqlD4JSUOyTz91mUA/7VkAUxUthJjE5j0l8xag+LIDzKSx5XS749XfFDAb9NntqO6LnVcEPp5SeMXztnzPhVuB7CmnMHM24BhtUzxNBMnkOVC7mekKmRX17w1AIN0JjRitKL0NthSvqVPZJ9oYWPfyTVYgBGGz/iOorSE+gRPFEIcghbjXsbEvZXubjX/54m/eP+RWIligJ5CFQinIlyPy/4bnXCd4uaxyXcB2qLtRwvFkF8T4yp24LP4BRvE47nQN5mMnvGjF8BZWytegdgJeTZGblTss2G865lAwyhon6yAnq9oRqr2AO27zkycqSSMq40iBtT3EIgiKXpfvAw9uV9x/dx5N3AGK4CyEXIgaUod/KCB5LxdVHzm1XNlwXctUjPHYxsfsPejvtir3BVPlZP/mM73k8AsZDwtlDhfu1x3JbzmPFWMKWeOmKIBsCVkN1bkxc5P282/NK3+Laht7iCD0Mu5AWCjOM+pgYn+Q1Du9v0ruwDasN3YpfA2BIXTCx6JIO/Y4OaLi/d/7DfIVyVG1TB75PkX2nB3bzgYVXxIDeWyVHyHDKppnuxm5wOm3zhxRfl48THetwfMcYOOy/Dx3BzZl74J4mpGONQO5IrlKcVz9YVf73csf3Pv9D0LVYUtCKx6/c+xATHBrkdebV/R4a/JBmIiczIYDgGn2HQMdlXh09N3w3sryvvOWJ/8gVwR5Uv85Jv6iXf1WuWGSxSbccgvX64hxdt+sp5v4FDMmPGTZCu6159yn3X+ZG3kRCbczifHIZhMQSGhsTxBmiBZ8Cftx3/6+lT/tY2/BICzwV2ZvTs53UG/pHIIY322HARmw6kuIFIfVXC/ncy9iY3Se/Eo5z2Yx/ncEPMxnSJRG9HMSoLrDAeZjnfLVb8sDrh2yrjPqOxqDgsDuTK6zdePN3EgZ6foxkvwetpYd300bc14N6W9zB7IZ8khlDW3gshqvvWwKrKODm7y39eXPAf7Y7/6Dqehp5LoDPDMxQhJu7TxD4c8T8mPyd/khEaQ2OT7dj0e3KwzTEYZpAMSGajcm5ugTsiPCgKvq1qvq5qvnSOu2bUAUKq6RjO/eox27UXRy7ciz5zddE1Pz8zXhHStu3reSDw7lYsMyVvxitimNYHr6QheiUN8LcA//z0kj9dnvPX4HnW92yJulo2KQ2/sSpDDnMe02S0SGpEZZLk2wdDcszoTLcXvQ8lkCHUAdYmrNU4zZQnizW/v3fGQ40aVgfihwnHOwZOdnsTXvYMvYrhmTHjCN5MjffqV2bPYcYHgDBOqgUjYysXsJMFpcCdruGvu4afupYLCzQitKn3x2E+efKPfRHg9HcpAzI0kpp8ZW9IbJL/GIwGoGHIlhhqgRxYoTxwOY/rnCcna75elNzFqC2eg/Iaj9nLFl5v+lzNz+OMl+D1pEzm/MKMW4ghtCWMqrNfOVidLHi0y/l3zfjzVvmL7/glqfzG9rPDf6NxAI7IjIxeiyUvZtrYaZISmTjjY02IkyjTEsRwQBkCZ3nOD6dnfF0VfF851kQj6GwsKTnMwIxHMmPGbcHb0cKaR/WMD4SjyeT0ula4U+acSc4dyXlgnn/dbfhL03AZAj0wVTscciTeYoHei3DI4Ir5EUutZCUVISrRYOTBqIHTrOQsz7ibVzwsSr6pC+5PQ1b2+tGmfRTt2C9fupX5wZ3x6/B2kuhvC7PLPONXQAAshrCGhPMaWOVwx/3v9s61N3EcCsOPHUgIt9J22ul0Zy/SSvP/f9FqVhrNaKu57JbSQCD2fnACIQ0hUJhSOI+EeqEkTnOcY5/3+Djgpgn9h4Be9Mg/kwl34zEzAyZN952vBlE23TukDDtfaLFI4U3/0tp0z3KLh6FhSfUOw7nn8aHb56oZ8Lbj8QZoY10JEvtU38h3yxJVZeman2RhVaazlyYAC8JWbDYDEZsTDp3URnXuAdpSrhRKHwi7HlfNHn/FIQQPDCcxo3hKkriqvCp1IG5SsThIpnM86QKZ70jlfIWhaRJaiaFtLINGg5tOl9+6ff7sBQxwdavaOPE/0zueshwMK/523fWXs8oNCcJ2SDl34XgoG1inP2cr2W9wi/I83UD5A74/RnxXEcPxI5PZDIPm0bpyJGaefqvIP8izba2UdZs7ZTMfhcVOY960Wgy05boV8r7X47bb4grnwFo4p5FVyV3aL34ej3v6kF8kIFew7QCvNC4mCOtRURTtbUiycaRV0niFbVllOwUjzMbgMS7l9xtwF8PfP4Z8GQ65NwlfdcJnPSNx6wPxrEKnaz80HgqNtulWsVbhGdAYfJNwrjVvWwHvux1uwjaXgaavnfOaTCFsOgeSif1LS07Uclt3T1GOX7kQRvqdUIstHUi9GOrrcCC79J/S616EOrewKDSnGVNR+roHvibw+WHMx9E9H8dDRsZV+50pRaI0M+2yr5pW0TTOeYRGEVpNoKGjLB8uL/il0+YqSENmLKrlZitLMsF8ZQfZqwNZdyK75v0NDiUcPVuEsOonFb4emxInctSUZSmlGU9t5R7oPtBLT+bSAAACeklEQVT2oNNtcaYMv7cCPj2MuIsn/Gst/ymIlcu0ChJX9DCwigvP57oZctluMWg2+KPX5NJzGoePO3YWkVrqbMVlJsW2bsPaAVjh4CvHgRUNEglFyLHFQsI9CnEvYpxl17NNQ8RxHCRVtzZ7sCsntGvA1zDohdzHIWdeg/Mo4tNkjDeLYRqDsVwYjzOvST8I+LVzxrsgZOBDtwE9vbwYcH6aOiZWkj1VZYmrBP3aByilUBheHIZQgYjoKxEnchSsUp8L44ZG+vKVmz0MfDjz21yEIZ1oRBhFdKYRzBJu8blud7nq9XgXaC41BMZ9FtysY3GStBGKZaE8e7tC96gaqqniH+6MgherTAkua4xwSqjRaLSh+eXzyHdsOS+mgZQNDzftlVlhDelNB8eqW7mU+VT4iFpU/L0HviXwZTzGJDNu/Q4DX9HR6V7kNiuOCErndwcsUfDrUBD8y95eG3mqS+U0RmxZqEYcyE4ciCq8hIOjOAsp3uISkR3cnuxT5ar+/gAmMzhvuHTcrOChNjk/pHOpudYsDqZyJ685oq81+8gjk2bhJ7NFCGvvuYYHwDFfmyOvfSl1/NdbekvX/S63or2Bcxi2sUjB9fKfKXNQ+b6y4exjVfME4ZDYrhovsBd17WBE9G2P83pwNZvU/HuhhPTfolhoJCvJZg22zBJqKONlmWI/A7n1wjOo3GLgNDm9cZ84kN1Ry3qKEc/TMznhSDisLKw6GR97O3H+6/FTDFvlZySCIAh1eEYIa0+8aHNOM5SV2YBSSpyIIAi1ObwQ1glN7V/SecdxzHQ6XXIggiDsjlPoV4cVwjoBDsWotNalYSw4kawsQRCezf/7i7LVdIQcswAAAABJRU5ErkJggg==;" parent="1" vertex="1">
          <mxGeometry x="389.11" y="-110" width="101.77" height="92.1" as="geometry" />
        </mxCell>
        <mxCell id="e5_O-6P5KocpQV2n-92U-1" value="" style="endArrow=classic;html=1;rounded=0;exitX=0.175;exitY=0.021;exitDx=0;exitDy=0;exitPerimeter=0;shadow=0;flowAnimation=1;" edge="1" parent="1" source="4weoMkwUrQ4pHuwGIA3--1">
          <mxGeometry relative="1" as="geometry">
            <mxPoint x="428.2089898053755" y="145.8000000000001" as="sourcePoint" />
            <mxPoint x="415" y="50" as="targetPoint" />
          </mxGeometry>
        </mxCell>
        <mxCell id="e5_O-6P5KocpQV2n-92U-2" value="Function- Call" style="edgeLabel;resizable=0;html=1;;align=center;verticalAlign=middle;" connectable="0" vertex="1" parent="e5_O-6P5KocpQV2n-92U-1">
          <mxGeometry relative="1" as="geometry" />
        </mxCell>
        <mxCell id="e5_O-6P5KocpQV2n-92U-3" value="" style="endArrow=classic;html=1;rounded=0;entryX=0.975;entryY=0.041;entryDx=0;entryDy=0;entryPerimeter=0;flowAnimation=1;" edge="1" parent="1" target="4weoMkwUrQ4pHuwGIA3--1">
          <mxGeometry relative="1" as="geometry">
            <mxPoint x="480" y="50" as="sourcePoint" />
            <mxPoint x="730" y="30" as="targetPoint" />
          </mxGeometry>
        </mxCell>
        <mxCell id="e5_O-6P5KocpQV2n-92U-4" value="Instructions" style="edgeLabel;resizable=0;html=1;;align=center;verticalAlign=middle;" connectable="0" vertex="1" parent="e5_O-6P5KocpQV2n-92U-3">
          <mxGeometry relative="1" as="geometry" />
        </mxCell>
        <mxCell id="e5_O-6P5KocpQV2n-92U-5" value="Generated&amp;nbsp;" style="edgeLabel;resizable=0;html=1;;align=left;verticalAlign=bottom;" connectable="0" vertex="1" parent="e5_O-6P5KocpQV2n-92U-3">
          <mxGeometry x="-1" relative="1" as="geometry">
            <mxPoint x="-10" y="79" as="offset" />
          </mxGeometry>
        </mxCell>
        <mxCell id="e5_O-6P5KocpQV2n-92U-13" value="" style="endArrow=classic;startArrow=classic;html=1;rounded=0;flowAnimation=1;entryX=0;entryY=0.5;entryDx=0;entryDy=0;" edge="1" parent="1" source="4weoMkwUrQ4pHuwGIA3--1" target="e5_O-6P5KocpQV2n-92U-54">
          <mxGeometry width="50" height="50" relative="1" as="geometry">
            <mxPoint x="590" y="200" as="sourcePoint" />
            <mxPoint x="850" y="196.9000000000001" as="targetPoint" />
          </mxGeometry>
        </mxCell>
        <mxCell id="e5_O-6P5KocpQV2n-92U-19" value="3" style="ellipse;whiteSpace=wrap;html=1;aspect=fixed;rotation=0;gradientColor=#0057D2;strokeColor=none;gradientDirection=east;fillColor=#2395FF;rounded=0;pointerEvents=0;fontFamily=Helvetica;fontSize=16;fontColor=#FFFFFF;spacingTop=4;spacingBottom=4;spacingLeft=4;spacingRight=4;points=[];fontStyle=1" vertex="1" parent="1">
          <mxGeometry x="630" y="260" width="30" height="30" as="geometry" />
        </mxCell>
        <mxCell id="e5_O-6P5KocpQV2n-92U-20" value="" style="endArrow=classic;startArrow=classic;html=1;rounded=0;flowAnimation=1;exitX=1.038;exitY=0.912;exitDx=0;exitDy=0;exitPerimeter=0;" edge="1" parent="1" source="4weoMkwUrQ4pHuwGIA3--1">
          <mxGeometry width="50" height="50" relative="1" as="geometry">
            <mxPoint x="610" y="236.9" as="sourcePoint" />
            <mxPoint x="720" y="406.9" as="targetPoint" />
            <Array as="points">
              <mxPoint x="720" y="241" />
            </Array>
          </mxGeometry>
        </mxCell>
        <mxCell id="e5_O-6P5KocpQV2n-92U-22" value="" style="swimlane;startSize=0;" vertex="1" parent="1">
          <mxGeometry x="170" y="140" width="365" height="290" as="geometry" />
        </mxCell>
        <mxCell id="e5_O-6P5KocpQV2n-92U-7" value="Function- API Getway" style="text;html=1;align=center;verticalAlign=middle;resizable=0;points=[];autosize=1;strokeColor=#82b366;fillColor=#d5e8d4;" vertex="1" parent="e5_O-6P5KocpQV2n-92U-22">
          <mxGeometry x="225" y="260" width="140" height="30" as="geometry" />
        </mxCell>
        <mxCell id="e5_O-6P5KocpQV2n-92U-62" value="" style="endArrow=classic;startArrow=classic;html=1;rounded=0;flowAnimation=1;" edge="1" parent="e5_O-6P5KocpQV2n-92U-22">
          <mxGeometry width="50" height="50" relative="1" as="geometry">
            <mxPoint x="310" y="20" as="sourcePoint" />
            <mxPoint x="550" y="-250" as="targetPoint" />
            <Array as="points">
              <mxPoint x="550" y="20" />
            </Array>
          </mxGeometry>
        </mxCell>
        <mxCell id="e5_O-6P5KocpQV2n-92U-30" value="" style="swimlane;startSize=0;" vertex="1" parent="1">
          <mxGeometry x="810" y="90" width="280" height="270" as="geometry" />
        </mxCell>
        <mxCell id="e5_O-6P5KocpQV2n-92U-31" value="Ticket Registeration" style="text;html=1;align=center;verticalAlign=middle;resizable=0;points=[];autosize=1;strokeColor=#b85450;fillColor=#f8cecc;" vertex="1" parent="e5_O-6P5KocpQV2n-92U-30">
          <mxGeometry x="140" width="130" height="30" as="geometry" />
        </mxCell>
        <mxCell id="e5_O-6P5KocpQV2n-92U-54" value="Jira Ticket Services" style="image;html=1;image=img/lib/atlassian/Jira_Software_Logo.svg;" vertex="1" parent="e5_O-6P5KocpQV2n-92U-30">
          <mxGeometry x="60" y="68.89999999999998" width="74" height="76" as="geometry" />
        </mxCell>
        <mxCell id="e5_O-6P5KocpQV2n-92U-32" value="1" style="ellipse;whiteSpace=wrap;html=1;aspect=fixed;rotation=0;gradientColor=#0057D2;strokeColor=none;gradientDirection=east;fillColor=#2395FF;rounded=0;pointerEvents=0;fontFamily=Helvetica;fontSize=16;fontColor=#FFFFFF;spacingTop=4;spacingBottom=4;spacingLeft=4;spacingRight=4;points=[];fontStyle=1" vertex="1" parent="1">
          <mxGeometry x="770" y="158.9" width="30" height="30" as="geometry" />
        </mxCell>
        <mxCell id="e5_O-6P5KocpQV2n-92U-52" value="Task description" style="html=1;shadow=0;dashed=0;shape=mxgraph.atlassian.issue;issueType=story;issuePriority=blocker;issueStatus=inProgress;verticalAlign=top;align=left;whiteSpace=wrap;overflow=hidden;spacingTop=25;strokeColor=#A8ADB0;fillColor=#EEEEEE;fontSize=12;backgroundOutline=1;sketch=0;" vertex="1" parent="1">
          <mxGeometry x="840" y="270" width="200" height="80" as="geometry" />
        </mxCell>
        <mxCell id="e5_O-6P5KocpQV2n-92U-53" value="ID" style="strokeColor=none;fillColor=none;part=1;resizable=0;align=left;autosize=1;points=[];deletable=0;connectable=0;" vertex="1" parent="e5_O-6P5KocpQV2n-92U-52">
          <mxGeometry width="60" height="20" relative="1" as="geometry">
            <mxPoint x="20" as="offset" />
          </mxGeometry>
        </mxCell>
        <mxCell id="e5_O-6P5KocpQV2n-92U-58" value="2" style="ellipse;whiteSpace=wrap;html=1;aspect=fixed;rotation=0;gradientColor=#0057D2;strokeColor=none;gradientDirection=east;fillColor=#2395FF;rounded=0;pointerEvents=0;fontFamily=Helvetica;fontSize=16;fontColor=#FFFFFF;spacingTop=4;spacingBottom=4;spacingLeft=4;spacingRight=4;points=[];fontStyle=1" vertex="1" parent="1">
          <mxGeometry x="630" y="117.9" width="30" height="30" as="geometry" />
        </mxCell>
        <mxCell id="e5_O-6P5KocpQV2n-92U-59" value="" style="swimlane;startSize=0;" vertex="1" parent="1">
          <mxGeometry x="680" y="-350" width="490" height="240" as="geometry" />
        </mxCell>
        <mxCell id="e5_O-6P5KocpQV2n-92U-60" value="Categorization of Tickets" style="text;html=1;align=center;verticalAlign=middle;resizable=0;points=[];autosize=1;strokeColor=#b85450;fillColor=#f8cecc;" vertex="1" parent="e5_O-6P5KocpQV2n-92U-59">
          <mxGeometry x="340" width="150" height="30" as="geometry" />
        </mxCell>
        <mxCell id="e5_O-6P5KocpQV2n-92U-64" value="" style="swimlane;startSize=0;" vertex="1" parent="1">
          <mxGeometry x="680" y="420" width="490" height="240" as="geometry" />
        </mxCell>
        <mxCell id="e5_O-6P5KocpQV2n-92U-65" value="Ticket Montoring" style="text;html=1;align=center;verticalAlign=middle;resizable=0;points=[];autosize=1;strokeColor=#b85450;fillColor=#f8cecc;" vertex="1" parent="e5_O-6P5KocpQV2n-92U-64">
          <mxGeometry x="380" width="110" height="30" as="geometry" />
        </mxCell>
      </root>
    </mxGraphModel>
  </diagram>
</mxfile>
